<?xml version="1.0" encoding="utf-8"?>
<!-- Generator: Adobe Illustrator 24.2.3, SVG Export Plug-In . SVG Version: 6.00 Build 0)  -->
<svg version="1.1" id="Layer_1" xmlns="http://www.w3.org/2000/svg" xmlns:xlink="http://www.w3.org/1999/xlink" x="0px" y="0px"
	 viewBox="0 0 220 220" style="enable-background:new 0 0 220 220;" xml:space="preserve">
<style type="text/css">
	.st0{fill:#FFFFFF;}
	.st1{fill:#172D5F;}
	.st2{clip-path:url(#SVGID_2_);}
	.st3{clip-path:url(#SVGID_4_);}
	.st4{clip-path:url(#SVGID_6_);}
</style>
<g>
	<path class="st0" d="M197.06,168.75c-3.73,5.51-8.01,10.69-12.81,15.5c-19.83,19.83-46.19,30.76-74.25,30.76
		c-28.05,0-54.41-10.92-74.25-30.76c-4.8-4.81-9.08-9.99-12.81-15.5c-1.11-1.64-2.18-3.3-3.2-5h-5.77c0.95,1.69,1.94,3.36,2.98,5
		c4.31,6.81,9.42,13.19,15.26,19.03C52.99,208.56,80.62,220,110,220s57-11.44,77.78-32.22c5.84-5.84,10.95-12.22,15.27-19.03
		c1.04-1.64,2.03-3.31,2.98-5h-5.78C199.24,165.45,198.17,167.11,197.06,168.75"/>
	<path class="st0" d="M22.94,51.25c3.73-5.5,8.01-10.69,12.81-15.5C55.59,15.92,81.96,5,110.01,5c28.05,0,54.41,10.92,74.24,30.75
		c4.81,4.81,9.08,10,12.81,15.5c1.12,1.64,2.18,3.3,3.2,5h5.77c-0.95-1.69-1.94-3.36-2.98-5c-4.33-6.81-9.42-13.19-15.27-19.03
		C167.01,11.44,139.39,0,110.01,0C80.62,0,53,11.44,32.22,32.22c-5.84,5.84-10.94,12.22-15.26,19.03c-1.04,1.64-2.03,3.31-2.98,5
		h5.78C20.77,54.55,21.84,52.89,22.94,51.25"/>
	<path class="st0" d="M110,210c33.27,0,62.74-16.25,80.92-41.25c1.19-1.63,2.33-3.29,3.42-5H25.66c1.09,1.7,2.23,3.36,3.42,5
		C47.26,193.75,76.73,210,110,210"/>
	<path class="st0" d="M110,10c-33.27,0-62.75,16.26-80.93,41.25c-1.19,1.63-2.33,3.29-3.41,5h168.68c-1.09-1.7-2.23-3.36-3.42-5
		C172.75,26.26,143.28,10,110,10"/>
	<path class="st0" d="M68.38,98.1h-8.43v11.14h8.49c4.38,0,6.9-2.12,6.9-5.51v-0.13C75.35,99.95,72.69,98.1,68.38,98.1"/>
	<path class="st0" d="M208.67,61.25H11.34C3.93,76.22,0,92.81,0,110s3.93,33.78,11.34,48.75h197.33
		c7.41-14.96,11.33-31.54,11.34-48.72V110v-0.03C220,92.79,216.08,76.21,208.67,61.25 M38.59,133.38H25.67V86.95h12.93V133.38z
		 M74.95,133.38l-9.36-14.06h-5.64v14.06H47.08V86.95h21.96c7.1,0,12.01,1.86,15.12,5.04c2.72,2.66,4.11,6.24,4.11,10.82v0.13
		c0,7.1-3.78,11.81-9.55,14.26l11.08,16.19H74.95z M129.46,133.38l-3.39-8.29h-17.91l-3.32,8.29H91.32l19.76-46.76h12.41
		l19.77,46.76H129.46z M194.33,133.38h-12.8v-26.67l-11.87,18.18h-0.27l-11.8-18.05v26.54h-12.61V86.95h13.6l11.08,17.98
		l11.08-17.98h13.6V133.38z"/>
	<polygon class="st0" points="110.62,116.76 123.68,116.76 117.19,100.2 	"/>
</g>
</svg>
