<svg id="Capa_2" data-name="Capa 2" xmlns="http://www.w3.org/2000/svg" xmlns:xlink="http://www.w3.org/1999/xlink" viewBox="0 0 165.7 115.2"><defs><style>.cls-1{fill:none;}.cls-2{fill:#537c3c;}.cls-3{isolation:isolate;}.cls-4{fill:#fff;}.cls-5{clip-path:url(#clip-path);}</style><clipPath id="clip-path"><circle class="cls-1" cx="82.8" cy="64.6" r="24.9"/></clipPath></defs><title>Mesa de trabajo 1</title><path class="cls-2" d="M14,0H151.7a13.19,13.19,0,0,1,13.2,13.2h0a13.19,13.19,0,0,1-13.2,13.2H14A13.19,13.19,0,0,1,.8,13.2h0A13.19,13.19,0,0,1,14,0Z"/><path class="cls-2" d="M111.8,63.2c0,24-29,52-29,52s-29-28-29-52a29,29,0,0,1,58,0Z"/><g class="cls-3"><path class="cls-4" d="M26.2,8.8c0,.2-.1.2-.2.2H23.4v7.6a.22.22,0,0,1-.2.2h-.7a.22.22,0,0,1-.2-.2V9H19.7a.22.22,0,0,1-.2-.2V8.3a.22.22,0,0,1,.2-.2H26a.22.22,0,0,1,.2.2Z"/><path class="cls-4" d="M35.2,16.8a.22.22,0,0,1-.2-.2V12.7H30.3v3.9a.22.22,0,0,1-.2.2h-.7a.22.22,0,0,1-.2-.2V8.3a.22.22,0,0,1,.2-.2h.7a.22.22,0,0,1,.2.2v3.5h4.8V8.3a.22.22,0,0,1,.2-.2H36a.22.22,0,0,1,.2.2v8.3a.22.22,0,0,1-.2.2Z"/><path class="cls-4" d="M41.3,14.1l-.9,2.5a.22.22,0,0,1-.2.2h-.7a.22.22,0,0,1-.2-.2l3.1-8.3a.22.22,0,0,1,.2-.2h.8c.1,0,.2,0,.2.2l3.1,8.3c0,.1,0,.2-.2.2h-.7c-.1,0-.2,0-.2-.2l-.9-2.5Zm1.8-4.7h0l-1.4,3.8h2.8Z"/><path class="cls-4" d="M57.7,16.8a.22.22,0,0,1-.2-.2l-.1-7.3-2.6,7.4a.22.22,0,0,1-.2.2h-.7c-.1,0-.2,0-.2-.2L51.1,9.2,51,16.6a.22.22,0,0,1-.2.2h-.7a.22.22,0,0,1-.2-.2l.3-8.3a.22.22,0,0,1,.2-.2h1.2c.1,0,.2,0,.2.2l2.5,7.2,2.5-7.2a.22.22,0,0,1,.2-.2h1.1a.22.22,0,0,1,.2.2l.3,8.3a.22.22,0,0,1-.2.2Z"/><path class="cls-4" d="M67.8,15.8a.22.22,0,0,1,.2.2v.6a.22.22,0,0,1-.2.2H62.5a.22.22,0,0,1-.2-.2V8.3a.22.22,0,0,1,.2-.2h5.2a.22.22,0,0,1,.2.2v.6c.1.1,0,.1-.1.1H63.4v2.7h3.7a.22.22,0,0,1,.2.2v.6a.22.22,0,0,1-.2.2H63.4v3.1Z"/><path class="cls-4" d="M77.6,10c0,.1,0,.2-.2.2h-.6c-.1,0-.2,0-.2-.1a2.57,2.57,0,0,0-2.2-1.2c-1.2,0-1.8.5-1.8,1.3s.6,1.2,2.1,1.6l.5.1c1.9.6,2.7,1.5,2.7,2.7,0,1.5-1.2,2.4-3.1,2.4a3.47,3.47,0,0,1-3.6-2.4c0-.1,0-.2.2-.2H72c.1,0,.2,0,.2.1A2.46,2.46,0,0,0,74.7,16c1.3,0,2-.5,2-1.3s-.6-1.3-2.2-1.8l-.5-.2c-1.6-.5-2.6-1.2-2.6-2.4,0-1.5,1.3-2.4,3-2.4A3.09,3.09,0,0,1,77.6,10Z"/><path class="cls-4" d="M88.6,16.8a.22.22,0,0,1-.2-.2V8.9h-.1l-2.2,1.9a.19.19,0,0,1-.3,0l-.4-.4a.19.19,0,0,1,0-.3l2.3-2h1.6a.22.22,0,0,1,.2.2v8.3a.22.22,0,0,1-.2.2Z"/><path class="cls-4" d="M99.6,14.3a2.61,2.61,0,0,1-2.9,2.6,2.74,2.74,0,0,1-3-2.2c0-.1,0-.2.2-.2h.7a.22.22,0,0,1,.2.2A1.79,1.79,0,0,0,96.7,16a1.69,1.69,0,0,0,1.9-1.7c0-1-.7-1.6-2.4-1.6h-.4a.22.22,0,0,1-.2-.2V12a.22.22,0,0,1,.2-.2h.4c1.5,0,2.1-.6,2.1-1.4a1.5,1.5,0,0,0-1.6-1.5,1.72,1.72,0,0,0-1.8,1.3.22.22,0,0,1-.2.2H94a.22.22,0,0,1-.2-.2,2.88,2.88,0,0,1,2.9-2.1,2.35,2.35,0,0,1,2.6,2.3,1.89,1.89,0,0,1-1.4,1.9A2,2,0,0,1,99.6,14.3Z"/><path class="cls-4" d="M109.2,14.6a.22.22,0,0,1-.2.2h-1.2v1.8a.22.22,0,0,1-.2.2h-.7a.22.22,0,0,1-.2-.2V14.8h-3.9a.22.22,0,0,1-.2-.2v-.5a.9.9,0,0,1,.1-.5l3.8-5.4c.1-.1.2-.2.3-.2h.7a.22.22,0,0,1,.2.2v5.6h1.2a.22.22,0,0,1,.2.2v.6Zm-2.4-5h0l-3.1,4.3h3Z"/><path class="cls-4" d="M118.3,14.3a2.61,2.61,0,0,1-2.9,2.6,2.74,2.74,0,0,1-3-2.2c0-.1,0-.2.2-.2h.7a.22.22,0,0,1,.2.2,1.79,1.79,0,0,0,1.9,1.3,1.69,1.69,0,0,0,1.9-1.7c0-1-.7-1.6-2.4-1.6h-.4a.22.22,0,0,1-.2-.2V12a.22.22,0,0,1,.2-.2h.4c1.5,0,2.1-.6,2.1-1.4a1.5,1.5,0,0,0-1.6-1.5,1.72,1.72,0,0,0-1.8,1.3.22.22,0,0,1-.2.2h-.6a.22.22,0,0,1-.2-.2,2.88,2.88,0,0,1,2.9-2.1,2.35,2.35,0,0,1,2.6,2.3,1.89,1.89,0,0,1-1.4,1.9A1.86,1.86,0,0,1,118.3,14.3Z"/><path class="cls-4" d="M126.5,13.7a.22.22,0,0,1-.2.2h-3.8a.22.22,0,0,1-.2-.2v-.5a.22.22,0,0,1,.2-.2h3.8a.22.22,0,0,1,.2.2Z"/><path class="cls-4" d="M137,14.6a.22.22,0,0,1-.2.2h-1.2v1.8a.22.22,0,0,1-.2.2h-.7a.22.22,0,0,1-.2-.2V14.8h-3.9a.22.22,0,0,1-.2-.2v-.5a.9.9,0,0,1,.1-.5l3.8-5.4c.1-.1.2-.2.3-.2h.7a.22.22,0,0,1,.2.2v5.6h1.2a.22.22,0,0,1,.2.2v.6Zm-2.4-5h0l-3.1,4.3h3Z"/><path class="cls-4" d="M145.7,8.1a.22.22,0,0,1,.2.2v.5a.76.76,0,0,1-.1.4,59.75,59.75,0,0,0-3.4,7.6.22.22,0,0,1-.2.2h-.8a.22.22,0,0,1-.2-.2c1.1-2.7,2.3-5.2,3.5-7.5V9h-4.4a.22.22,0,0,1-.2-.2V8.3a.22.22,0,0,1,.2-.2Z"/></g><g class="cls-5"><image class="cls-3" width="100" height="100" transform="translate(57.55 39.35) scale(0.5)" xlink:href="../../../Assets/Atv_Thames_Ext_Dia_04.jpg"/></g></svg>