<?xml version="1.0" encoding="utf-8"?>
<!-- Generator: Adobe Illustrator 23.0.6, SVG Export Plug-In . SVG Version: 6.00 Build 0)  -->
<svg version="1.1" id="Layer_1" xmlns="http://www.w3.org/2000/svg" xmlns:xlink="http://www.w3.org/1999/xlink" x="0px" y="0px"
	 viewBox="0 0 377.2 135.6" style="enable-background:new 0 0 377.2 135.6;" xml:space="preserve">
<style type="text/css">
	.st0{fill:#FFFFFF;}
</style>
<g>
	<g>
		<circle class="st0" cx="48.4" cy="36.5" r="5.1"/>
	</g>
	<path class="st0" d="M18.7,134.2C2,123.9,0,103.2,0,87.2V3.3c0,0,8.9-0.3,8.9,7.9s0,76.7,0,76.7c0,21.3,4.5,33.1,15.1,39.6
		c1.6,1,4.1,2.5,7.9,3.7C31.9,132.7,25.2,138.2,18.7,134.2z"/>
	<path class="st0" d="M55.6,113.2c-10.4-9.1-11.9-24.1-11.9-35.9V57c0,0,8.9-0.2,8.9,7.3s0,13.7,0,13.7c0,13.7,2.7,22.5,8.2,28.2
		l0,0c1.6,1.6,3.4,3,5.3,4.2c1.6,1,4.1,2.5,7.9,3.7c0,1.5-6.8,7-13.3,3C58.9,116,57.2,114.7,55.6,113.2L55.6,113.2z"/>
	<path class="st0" d="M107.6,108.6c0.1,0,0.3,0,0.4,0c0.2,0,0.4,0,0.5,0c0.1,0,0.1,0,0.2,0l0,0c4-0.6,7-4.1,7.8-5.2
		c6.7-8.9,15.9-24.1,23.2-46.3c-3.3-1.1-8.7-0.3-10.9,6.1c-4.8,14.5-10.2,22.6-14.6,29.7c-1.9,3-3.6,4.9-5,5.9
		c-0.5,0.3-1,0.5-1.5,0.5c-0.5,0-1-0.2-1.5-0.5c-1.5-1.1-3.1-2.9-5-5.9c-4.4-7.1-9.8-15.2-14.6-29.7c-2.3-6.4-7.6-7.2-10.9-6.1
		c7.3,22.3,16.5,37.5,23.2,46.3c0.8,1.1,3.8,4.6,7.8,5.2l0,0c0.1,0,0.1,0,0.2,0c0.2,0,0.4,0,0.5,0c0.1,0,0.3,0,0.4,0"/>
</g>
<g>
	<path class="st0" d="M157.7,39h2v-2l-5.2-13.4h-2.8l-5.2,13.4v2h2l1.3-3.3c0-0.1,0.1-0.1,0.2-0.1h6.4c0.1,0,0.1,0,0.2,0.1L157.7,39
		z M155.1,33.1h-4.2c-0.1,0-0.1,0-0.2-0.1c0,0,0-0.1,0-0.2l2.1-5.5c0-0.1,0.1-0.1,0.2-0.1c0.1,0,0.1,0,0.2,0.1l2.1,5.5
		c0,0.1,0,0.1,0,0.2C155.2,33.1,155.2,33.1,155.1,33.1"/>
	<path class="st0" d="M178,39h2.8l5.2-13.1v-2.2h-2l-4.5,11.6c0,0.1-0.1,0.1-0.2,0.1c-0.1,0-0.1,0-0.2-0.1l-4.5-11.6h-2v2.2L178,39z
		"/>
	<path class="st0" d="M163.7,39h2.6V26.4c0-0.1,0.1-0.2,0.2-0.2h4.2v-2.6h-11.2v2.6h4.1c0.1,0,0.2,0.1,0.2,0.2V39z"/>
</g>
<g>
	<path class="st0" d="M196.1,60.6c0,0.3-0.1,0.4-0.4,0.4H189l0.1,19.3c0,0.3-0.2,0.4-0.4,0.4h-1.3c-0.3,0-0.4-0.1-0.4-0.4L187,61
		h-6.7c-0.3,0-0.4-0.1-0.4-0.4v-1c0-0.3,0.1-0.4,0.4-0.4h15.4c0.3,0,0.4,0.1,0.4,0.4V60.6z"/>
	<path class="st0" d="M226.9,80.8c-0.3,0-0.4-0.1-0.4-0.4l0-10H214l0,10c0,0.3-0.1,0.4-0.4,0.4h-1.3c-0.3,0-0.4-0.1-0.4-0.4
		l0.1-20.7c0-0.3,0.1-0.4,0.4-0.4h1.1c0.3,0,0.4,0.1,0.4,0.4l0,8.9h12.6l0-8.9c0-0.3,0.1-0.4,0.4-0.4h1.1c0.3,0,0.4,0.1,0.4,0.4
		l0.1,20.7c0,0.3-0.1,0.4-0.4,0.4H226.9z"/>
	<path class="st0" d="M249.2,73.8l-2.4,6.6c-0.1,0.2-0.2,0.4-0.5,0.4H245c-0.3,0-0.4-0.2-0.3-0.5l7.8-20.8c0.1-0.2,0.2-0.4,0.5-0.4
		h1.3c0.3,0,0.4,0.1,0.5,0.4l7.8,20.8c0.1,0.3,0,0.5-0.3,0.5H261c-0.3,0-0.4-0.1-0.5-0.4l-2.4-6.6H249.2z M253.6,61.7L249.9,72h7.5
		L253.6,61.7z"/>
	<path class="st0" d="M298.2,80.8c-0.3,0-0.4-0.1-0.4-0.4l-0.3-19.3l-7,19.4c-0.1,0.2-0.2,0.4-0.5,0.4h-1.4c-0.3,0-0.4-0.1-0.5-0.4
		L281,60.8l-0.3,19.5c0,0.3-0.1,0.4-0.4,0.4h-1.2c-0.3,0-0.4-0.1-0.4-0.4l0.6-20.7c0-0.3,0.1-0.4,0.4-0.4h2.3c0.3,0,0.4,0.1,0.5,0.4
		l6.9,18.6l6.8-18.6c0.1-0.2,0.2-0.4,0.5-0.4h2.2c0.3,0,0.4,0.1,0.4,0.4l0.5,20.7c0,0.3-0.1,0.4-0.4,0.4H298.2z"/>
	<path class="st0" d="M330.6,78.9c0.3,0,0.4,0.2,0.4,0.4v1c0,0.3-0.1,0.4-0.4,0.4h-12.8c-0.3,0-0.4-0.1-0.4-0.4l0.1-20.7
		c0-0.3,0.2-0.4,0.4-0.4h12.7c0.3,0,0.4,0.1,0.4,0.4v1c0,0.3-0.2,0.4-0.4,0.4h-11.1l0,7.5h9.4c0.3,0,0.4,0.2,0.4,0.4v1
		c0,0.3-0.1,0.4-0.4,0.4h-9.4l0,8.6H330.6z"/>
	<path class="st0" d="M362.9,63.7c0.1,0.3,0,0.5-0.4,0.5h-1.1c-0.2,0-0.4-0.1-0.5-0.3c-0.9-1.6-2.7-3.2-5.8-3.2c-3.1,0-5,1.4-5,3.5
		c0,2.2,1.9,3.1,5.4,4.2l1.3,0.4c4.6,1.4,6.6,3.4,6.6,6.4c0,3.7-2.9,5.9-7.6,5.9c-5.4,0-8-3.1-8.7-5.7c-0.1-0.3,0.1-0.5,0.4-0.5h1.2
		c0.3,0,0.4,0.1,0.5,0.4c0.8,1.9,2.7,3.9,6.7,3.9c3.4,0,5.4-1.4,5.4-3.8c0-2.2-1.8-3.6-5.6-4.8l-1.3-0.4c-4-1.3-6.3-2.8-6.4-5.8
		c-0.1-3.5,3.1-5.6,7.2-5.6C359.6,58.8,362,61.4,362.9,63.7z"/>
</g>
<g>
	<path class="st0" d="M183.2,100.4h-3.1v-0.9h7.2v0.9h-3.1v8.2h-1V100.4z"/>
	<path class="st0" d="M189.7,99.5h1v4h5.3v-4h1v9.1h-1v-4.1h-5.3v4.1h-1V99.5z"/>
	<path class="st0" d="M203.5,99.4h1l4.1,9.2h-1.1l-1.1-2.4h-5l-1.1,2.4h-1.1L203.5,99.4z M206,105.3l-2.1-4.6l-2.1,4.6H206z"/>
	<path class="st0" d="M210.9,99.5h1l3.3,5l3.3-5h1v9.1h-1v-7.4l-3.3,4.9h-0.1l-3.3-4.9v7.4h-1V99.5z"/>
	<path class="st0" d="M222.7,99.5h6.6v0.9h-5.6v3.1h5v0.9h-5v3.2h5.6v0.9h-6.6V99.5z"/>
	<path class="st0" d="M231.3,107.3l0.6-0.8c0.9,0.9,1.9,1.3,3.1,1.3c1.2,0,2-0.7,2-1.5v0c0-0.8-0.5-1.3-2.4-1.7
		c-2.1-0.5-3.1-1.1-3.1-2.6v0c0-1.4,1.3-2.5,3-2.5c1.3,0,2.3,0.4,3.2,1.1l-0.6,0.8c-0.8-0.7-1.7-1-2.6-1c-1.2,0-1.9,0.7-1.9,1.5v0
		c0,0.9,0.5,1.3,2.5,1.8c2,0.4,3,1.2,3,2.6v0c0,1.6-1.3,2.6-3.1,2.6C233.6,108.7,232.4,108.2,231.3,107.3z"/>
	<path class="st0" d="M246.2,100.5l-1.7,0.5l-0.2-0.8l2.2-0.8h0.8v9.2h-1V100.5z"/>
	<path class="st0" d="M249.7,107.1l0.7-0.7c0.7,0.9,1.5,1.4,2.7,1.4c1.1,0,2-0.7,2-1.8v0c0-1.1-1.1-1.8-2.5-1.8H252l-0.2-0.6
		l2.9-3.2h-4.4v-0.9h5.8v0.8l-2.9,3.2c1.6,0.1,3,0.9,3,2.6v0c0,1.6-1.4,2.7-3,2.7C251.6,108.8,250.5,108.1,249.7,107.1z"/>
	<path class="st0" d="M263.2,106.4h-4.8l-0.3-0.7l5.1-6.3h0.9v6.1h1.4v0.9h-1.4v2.2h-1V106.4z M263.2,105.6v-4.7l-3.8,4.7H263.2z"/>
	<path class="st0" d="M267.4,107.1l0.7-0.7c0.7,0.9,1.5,1.4,2.7,1.4c1.1,0,2-0.7,2-1.8v0c0-1.1-1.1-1.8-2.5-1.8h-0.6l-0.2-0.6
		l2.9-3.2h-4.4v-0.9h5.8v0.8l-2.9,3.2c1.6,0.1,3,0.9,3,2.6v0c0,1.6-1.4,2.7-3,2.7C269.3,108.8,268.2,108.1,267.4,107.1z"/>
	<path class="st0" d="M276.1,104.2h3.6v1.1h-3.6V104.2z"/>
	<path class="st0" d="M286.7,106.4h-4.8l-0.3-0.7l5.1-6.3h0.9v6.1h1.4v0.9h-1.4v2.2h-1V106.4z M286.7,105.6v-4.7l-3.8,4.7H286.7z"/>
	<path class="st0" d="M295.8,100.4h-5v-0.9h6.2v0.8l-4.1,8.3h-1.1L295.8,100.4z"/>
</g>
</svg>
