<?xml version="1.0" encoding="utf-8"?>
<!-- Generator: Adobe Illustrator 22.1.0, SVG Export Plug-In . SVG Version: 6.00 Build 0)  -->
<svg version="1.1" id="Layer_1" xmlns="http://www.w3.org/2000/svg" xmlns:xlink="http://www.w3.org/1999/xlink" x="0px" y="0px"
	 viewBox="0 0 286.2 204.4" style="enable-background:new 0 0 286.2 204.4;" xml:space="preserve">
<style type="text/css">
	.st0{fill:#B68C57;}
	.st1{fill:#B98E58;}
</style>
<g>
	<g>
		<circle class="st0" cx="49.4" cy="33.1" r="5.1"/>
	</g>
	<path class="st0" d="M19.7,130.8C3,120.6,1,99.9,1,83.9V0c0,0,8.9-0.3,8.9,7.9s0,76.7,0,76.7c0,21.3,4.5,33.1,15.1,39.6
		c1.6,1,4.1,2.5,7.9,3.7C32.9,129.4,26.2,134.9,19.7,130.8z"/>
	<path class="st0" d="M56.6,109.9c-10.4-9.1-11.9-24.1-11.9-35.9V53.7c0,0,8.9-0.2,8.9,7.3s0,13.7,0,13.7c0,13.7,2.7,22.5,8.2,28.2
		l0,0c1.6,1.6,3.4,3,5.3,4.2c1.6,1,4.1,2.5,7.9,3.7c0,1.5-6.8,7-13.3,3C59.9,112.7,58.2,111.4,56.6,109.9L56.6,109.9z"/>
	<path class="st0" d="M108.6,105.3c0.1,0,0.3,0,0.4,0c0.2,0,0.4,0,0.5,0c0.1,0,0.1,0,0.2,0l0,0c4-0.6,7-4.1,7.8-5.2
		c6.7-8.9,15.9-24.1,23.2-46.3c-3.3-1.1-8.7-0.3-10.9,6.1c-4.8,14.5-10.2,22.6-14.6,29.7c-1.9,3-3.6,4.9-5,5.9
		c-0.5,0.3-1,0.5-1.5,0.5c-0.5,0-1-0.2-1.5-0.5c-1.5-1.1-3.1-2.9-5-5.9c-4.4-7.1-9.8-15.2-14.6-29.7c-2.3-6.4-7.6-7.2-10.9-6.1
		c7.3,22.3,16.5,37.5,23.2,46.3c0.8,1.1,3.8,4.6,7.8,5.2l0,0c0.1,0,0.1,0,0.2,0c0.2,0,0.4,0,0.5,0c0.1,0,0.3,0,0.4,0"/>
</g>
<g>
	<path class="st0" d="M158.7,35.7h2v-2l-5.2-13.4h-2.8l-5.2,13.4v2h2l1.3-3.3c0-0.1,0.1-0.1,0.2-0.1h6.4c0.1,0,0.1,0,0.2,0.1
		L158.7,35.7z M156.1,29.8h-4.2c-0.1,0-0.1,0-0.2-0.1c0,0,0-0.1,0-0.2l2.1-5.5c0-0.1,0.1-0.1,0.2-0.1c0.1,0,0.1,0,0.2,0.1l2.1,5.5
		c0,0.1,0,0.1,0,0.2C156.2,29.7,156.2,29.8,156.1,29.8"/>
	<path class="st0" d="M179,35.7h2.8l5.2-13.1v-2.2h-2L180.6,32c0,0.1-0.1,0.1-0.2,0.1c-0.1,0-0.1,0-0.2-0.1l-4.5-11.6h-2v2.2
		L179,35.7z"/>
	<path class="st0" d="M164.7,35.7h2.6V23.1c0-0.1,0.1-0.2,0.2-0.2h4.2v-2.6h-11.2v2.6h4.1c0.1,0,0.2,0.1,0.2,0.2V35.7z"/>
</g>
<g>
	<path class="st1" d="M26.8,168.9c0,0.2-0.1,0.4-0.4,0.4h-11l0.1,31.7c0,0.2-0.1,0.4-0.4,0.4h-1.2c-0.2,0-0.4-0.1-0.4-0.4l0.1-31.7
		h-11c-0.2,0-0.4-0.1-0.4-0.4V168c0-0.2,0.1-0.4,0.4-0.4h23.8c0.2,0,0.4,0.1,0.4,0.4V168.9z"/>
	<path class="st1" d="M75.1,201.4c-0.2,0-0.4-0.1-0.4-0.4l0-16.6H53.5l0,16.6c0,0.2-0.1,0.4-0.4,0.4H52c-0.2,0-0.4-0.1-0.4-0.4l0-33
		c0-0.2,0.1-0.4,0.4-0.4h1c0.2,0,0.4,0.1,0.4,0.4l0,14.7h21.2l0-14.7c0-0.2,0.1-0.4,0.4-0.4h0.9c0.2,0,0.4,0.1,0.4,0.4l0.1,33
		c0,0.2-0.1,0.4-0.4,0.4H75.1z"/>
	<path class="st1" d="M107.8,189.9l-4.2,11.2c0,0.2-0.2,0.3-0.4,0.3h-1c-0.3,0-0.4-0.2-0.3-0.4l12.4-33c0-0.2,0.2-0.3,0.4-0.3h1.4
		c0.2,0,0.4,0.1,0.4,0.3l12.4,33c0.1,0.2,0,0.4-0.3,0.4h-1c-0.2,0-0.4-0.1-0.4-0.3l-4.2-11.2H107.8z M115.5,169.9h-0.2l-6.9,18.3
		h13.9L115.5,169.9z"/>
	<path class="st1" d="M184.7,201.4c-0.2,0-0.4-0.1-0.4-0.4l-0.4-31.9l-12.6,32c0,0.2-0.2,0.3-0.4,0.3h-1.3c-0.2,0-0.4-0.1-0.4-0.3
		l-12.6-32l-0.5,31.9c0,0.2-0.1,0.4-0.4,0.4h-1.1c-0.2,0-0.4-0.1-0.4-0.4l0.7-33c0-0.2,0.1-0.4,0.4-0.4h2c0.2,0,0.4,0.1,0.4,0.3
		l12.5,31.6l12.6-31.6c0-0.2,0.2-0.3,0.4-0.3h1.9c0.2,0,0.4,0.1,0.4,0.4l0.7,33c0,0.2-0.1,0.4-0.4,0.4H184.7z"/>
	<path class="st1" d="M234.4,199.8c0.2,0,0.4,0.1,0.4,0.4v0.9c0,0.2-0.1,0.4-0.4,0.4h-19.8c-0.2,0-0.4-0.1-0.4-0.4l0-33
		c0-0.2,0.1-0.4,0.4-0.4h19.6c0.2,0,0.4,0.1,0.4,0.4v0.9c0,0.2-0.1,0.4-0.4,0.4h-18.2v13.4h15.2c0.2,0,0.4,0.1,0.4,0.4v0.9
		c0,0.2-0.1,0.4-0.4,0.4h-15.2l0,15.4H234.4z"/>
	<path class="st1" d="M283.8,174.6c0.1,0.2,0,0.4-0.3,0.4h-1c-0.2,0-0.4-0.1-0.5-0.3c-1.2-2.5-4.1-5.8-9.9-5.8
		c-5.3,0-8.7,2.5-8.7,6.3c0,4,3.4,5.5,8.8,7.2l2.3,0.7c6.8,2.1,10.2,4.8,10.2,9.6c0,5.5-4.3,8.9-11.3,8.9c-8.4,0-12.1-4.8-13.2-8.6
		c0-0.3,0.1-0.4,0.3-0.4h1.1c0.2,0,0.4,0.1,0.4,0.3c1.1,3.1,4.2,7,11.4,7c5.7,0,9.4-2.6,9.4-7c0-4.1-3.3-6.4-9.4-8.2l-2.3-0.8
		c-6-1.8-9.5-3.9-9.6-8.6c0-5.1,4.5-8.2,10.7-8.2C279.3,167.3,282.6,171.6,283.8,174.6z"/>
</g>
</svg>
