<?xml version="1.0" encoding="utf-8"?>
<!-- Generator: Adobe Illustrator 22.1.0, SVG Export Plug-In . SVG Version: 6.00 Build 0)  -->
<svg version="1.1" id="Layer_1" xmlns="http://www.w3.org/2000/svg" xmlns:xlink="http://www.w3.org/1999/xlink" x="0px" y="0px"
	 viewBox="0 0 186.1 189.7" style="enable-background:new 0 0 186.1 189.7;" xml:space="preserve">
<style type="text/css">
	.st0{fill:#B68C57;}
	.st1{fill:#B98E58;}
</style>
<g>
	<g>
		<circle class="st0" cx="48.4" cy="33.1" r="5.1"/>
	</g>
	<path class="st0" d="M18.7,130.8C2,120.6,0,99.9,0,83.9V0c0,0,8.9-0.3,8.9,7.9s0,76.7,0,76.7c0,21.3,4.5,33.1,15.1,39.6
		c1.6,1,4.1,2.5,7.9,3.7C31.9,129.4,25.2,134.9,18.7,130.8z"/>
	<path class="st0" d="M55.6,109.9c-10.4-9.1-11.9-24.1-11.9-35.9V53.7c0,0,8.9-0.2,8.9,7.3s0,13.7,0,13.7c0,13.7,2.7,22.5,8.2,28.2
		l0,0c1.6,1.6,3.4,3,5.3,4.2c1.6,1,4.1,2.5,7.9,3.7c0,1.5-6.8,7-13.3,3C58.9,112.7,57.2,111.4,55.6,109.9L55.6,109.9z"/>
	<path class="st0" d="M107.6,105.3c0.1,0,0.3,0,0.4,0c0.2,0,0.4,0,0.5,0c0.1,0,0.1,0,0.2,0l0,0c4-0.6,7-4.1,7.8-5.2
		c6.7-8.9,15.9-24.1,23.2-46.3c-3.3-1.1-8.7-0.3-10.9,6.1c-4.8,14.5-10.2,22.6-14.6,29.7c-1.9,3-3.6,4.9-5,5.9
		c-0.5,0.3-1,0.5-1.5,0.5c-0.5,0-1-0.2-1.5-0.5c-1.5-1.1-3.1-2.9-5-5.9c-4.4-7.1-9.8-15.2-14.6-29.7c-2.3-6.4-7.6-7.2-10.9-6.1
		c7.3,22.3,16.5,37.5,23.2,46.3c0.8,1.1,3.8,4.6,7.8,5.2l0,0c0.1,0,0.1,0,0.2,0c0.2,0,0.4,0,0.5,0c0.1,0,0.3,0,0.4,0"/>
</g>
<g>
	<path class="st0" d="M157.7,35.7h2v-2l-5.2-13.4h-2.8l-5.2,13.4v2h2l1.3-3.3c0-0.1,0.1-0.1,0.2-0.1h6.4c0.1,0,0.1,0,0.2,0.1
		L157.7,35.7z M155.1,29.8h-4.2c-0.1,0-0.1,0-0.2-0.1c0,0,0-0.1,0-0.2l2.1-5.5c0-0.1,0.1-0.1,0.2-0.1c0.1,0,0.1,0,0.2,0.1l2.1,5.5
		c0,0.1,0,0.1,0,0.2C155.2,29.7,155.2,29.8,155.1,29.8"/>
	<path class="st0" d="M178,35.7h2.8l5.2-13.1v-2.2h-2L179.6,32c0,0.1-0.1,0.1-0.2,0.1c-0.1,0-0.1,0-0.2-0.1l-4.5-11.6h-2v2.2
		L178,35.7z"/>
	<path class="st0" d="M163.7,35.7h2.6V23.1c0-0.1,0.1-0.2,0.2-0.2h4.2v-2.6h-11.2v2.6h4.1c0.1,0,0.2,0.1,0.2,0.2V35.7z"/>
</g>
<g>
	<path class="st1" d="M17.7,168.2c0,0.2-0.1,0.2-0.2,0.2h-7l0.1,20.2c0,0.2-0.1,0.2-0.2,0.2H9.5c-0.1,0-0.2-0.1-0.2-0.2l0.1-20.2h-7
		c-0.1,0-0.2-0.1-0.2-0.2v-0.6c0-0.2,0.1-0.2,0.2-0.2h15.2c0.1,0,0.2,0.1,0.2,0.2V168.2z"/>
	<path class="st1" d="M48.5,188.9c-0.1,0-0.2-0.1-0.2-0.2l0-10.6H34.7l0,10.6c0,0.2-0.1,0.2-0.2,0.2h-0.7c-0.2,0-0.2-0.1-0.2-0.2
		l0-21.1c0-0.2,0.1-0.2,0.2-0.2h0.6c0.1,0,0.2,0.1,0.2,0.2l0,9.4h13.6l0-9.4c0-0.2,0.1-0.2,0.2-0.2h0.6c0.1,0,0.2,0.1,0.2,0.2
		l0.1,21.1c0,0.2-0.1,0.2-0.2,0.2H48.5z"/>
	<path class="st1" d="M69.4,181.6l-2.7,7.1c0,0.1-0.1,0.2-0.3,0.2h-0.6c-0.2,0-0.3-0.1-0.2-0.3l7.9-21.1c0-0.1,0.1-0.2,0.3-0.2h0.9
		c0.1,0,0.2,0.1,0.3,0.2l7.9,21.1c0.1,0.1,0,0.3-0.2,0.3h-0.7c-0.1,0-0.2-0.1-0.3-0.2l-2.7-7.1H69.4z M74.3,168.8h-0.1l-4.4,11.7
		h8.9L74.3,168.8z"/>
	<path class="st1" d="M118.5,188.9c-0.1,0-0.2-0.1-0.2-0.2l-0.3-20.3l-8,20.4c0,0.1-0.1,0.2-0.3,0.2h-0.8c-0.2,0-0.2-0.1-0.3-0.2
		l-8.1-20.4l-0.3,20.3c0,0.2-0.1,0.2-0.2,0.2h-0.7c-0.2,0-0.2-0.1-0.2-0.2l0.4-21.1c0-0.2,0.1-0.2,0.2-0.2h1.3
		c0.1,0,0.2,0.1,0.3,0.2l8,20.2l8-20.2c0-0.1,0.1-0.2,0.3-0.2h1.2c0.1,0,0.2,0.1,0.2,0.2l0.4,21.1c0,0.2-0.1,0.2-0.2,0.2H118.5z"/>
	<path class="st1" d="M150.2,187.9c0.2,0,0.2,0.1,0.2,0.2v0.6c0,0.2-0.1,0.2-0.2,0.2h-12.7c-0.2,0-0.2-0.1-0.2-0.2l0-21.1
		c0-0.2,0.1-0.2,0.2-0.2h12.5c0.2,0,0.2,0.1,0.2,0.2v0.6c0,0.2-0.1,0.2-0.2,0.2h-11.6v8.6h9.7c0.2,0,0.2,0.1,0.2,0.2v0.6
		c0,0.2-0.1,0.2-0.2,0.2h-9.7l0,9.8H150.2z"/>
	<path class="st1" d="M181.7,171.8c0.1,0.1,0,0.3-0.2,0.3h-0.6c-0.1,0-0.2-0.1-0.3-0.2c-0.8-1.6-2.6-3.7-6.3-3.7
		c-3.4,0-5.6,1.6-5.6,4c0,2.6,2.2,3.5,5.6,4.6l1.5,0.5c4.3,1.3,6.5,3.1,6.5,6.1c0,3.5-2.8,5.7-7.2,5.7c-5.4,0-7.7-3.1-8.4-5.5
		c0-0.2,0.1-0.3,0.2-0.3h0.7c0.2,0,0.2,0.1,0.3,0.2c0.7,2,2.7,4.5,7.3,4.5c3.6,0,6-1.7,6-4.5c0-2.6-2.1-4.1-6-5.3l-1.5-0.5
		c-3.8-1.2-6.1-2.5-6.1-5.5c0-3.2,2.8-5.3,6.8-5.3C178.9,167.1,181,169.9,181.7,171.8z"/>
</g>
</svg>
