<?xml version="1.0" encoding="utf-8"?>
<!-- Generator: Adobe Illustrator 22.1.0, SVG Export Plug-In . SVG Version: 6.00 Build 0)  -->
<svg version="1.1" id="Capa_1" xmlns="http://www.w3.org/2000/svg" xmlns:xlink="http://www.w3.org/1999/xlink" x="0px" y="0px"
	 viewBox="0 0 786 304.2" style="enable-background:new 0 0 786 304.2;" xml:space="preserve">
<style type="text/css">
	.st0{enable-background:new    ;}
	.st1{fill:#FFFFFF;}
</style>
<title>logo-four-developers</title>
<g id="Capa_2_1_">
	<g class="st0">
		<path class="st1" d="M350.4,39.2H366v10.9h-15.5v31.6h-12V5.2h31.9v10.9h-19.8v23.1H350.4z"/>
		<path class="st1" d="M381.6,23.6c0-12.3,6.5-19.3,18.3-19.3s18.3,7,18.3,19.3v39.8c0,12.3-6.5,19.3-18.3,19.3s-18.3-7-18.3-19.3
			V23.6z M393.7,64.2c0,5.5,2.4,7.6,6.2,7.6s6.2-2.1,6.2-7.6V22.8c0-5.5-2.4-7.6-6.2-7.6s-6.2,2.1-6.2,7.6V64.2z"/>
		<path class="st1" d="M444,5.2v59.1c0,5.5,2.4,7.4,6.2,7.4c3.8,0,6.2-2,6.2-7.4V5.2h11.4v58.3c0,12.3-6.1,19.3-18,19.3
			c-11.8,0-18-7-18-19.3V5.2H444z"/>
		<path class="st1" d="M507.8,81.8c-0.7-2-1.1-3.2-1.1-9.4v-12c0-7.1-2.4-9.7-7.9-9.7h-4.2v31.2h-12V5.2h18.2
			c12.5,0,17.8,5.8,17.8,17.6v6c0,7.9-2.5,12.9-7.9,15.4v0.2c6,2.5,8,8.2,8,16.2v11.8c0,3.7,0.1,6.5,1.3,9.3L507.8,81.8L507.8,81.8z
			 M494.7,16.2v23.5h4.7c4.5,0,7.2-2,7.2-8.1V24c0-5.5-1.9-7.9-6.1-7.9h-5.8V16.2z"/>
	</g>
	<g class="st0">
		<path class="st1" d="M338.4,105.2h19c12,0,18,6.7,18,18.9v38.8c0,12.3-5.9,18.9-18,18.9h-19V105.2z M350.4,116.2v54.7h6.8
			c3.8,0,6.1-2,6.1-7.4v-39.8c0-5.5-2.3-7.4-6.1-7.4L350.4,116.2L350.4,116.2z"/>
		<path class="st1" d="M399.4,137.5h16.5v10.9h-16.5v22.4h20.8v10.9h-32.8v-76.6h32.8V116h-20.8V137.5z"/>
		<path class="st1" d="M449.9,167.7h0.2l9.1-62.5h11.1l-11.8,76.6h-18l-11.8-76.6h12.2L449.9,167.7z"/>
		<path class="st1" d="M492.2,137.5h16.5v10.9h-16.5v22.4H513v10.9h-32.8v-76.6H513V116h-20.8V137.5z"/>
		<path class="st1" d="M524.7,105.2h12v65.7h19.8v10.9h-31.9v-76.6H524.7z"/>
		<path class="st1" d="M565.1,123.6c0-12.3,6.5-19.3,18.3-19.3s18.3,7,18.3,19.3v39.8c0,12.3-6.5,19.3-18.3,19.3s-18.3-7-18.3-19.3
			V123.6z M577.1,164.2c0,5.5,2.4,7.6,6.2,7.6s6.2-2.1,6.2-7.6v-41.4c0-5.5-2.4-7.6-6.2-7.6s-6.2,2.1-6.2,7.6V164.2z"/>
		<path class="st1" d="M649.4,124.2v10c0,12.3-5.9,18.9-18,18.9h-5.7v28.8h-12v-76.6h17.7C643.5,105.2,649.4,111.9,649.4,124.2z
			 M625.7,116.2v25.9h5.7c3.8,0,5.9-1.8,5.9-7.2v-11.5c0-5.5-2.1-7.2-5.9-7.2H625.7z"/>
		<path class="st1" d="M671.3,137.5h16.5v10.9h-16.5v22.4h20.8v10.9h-32.8v-76.6h32.8V116h-20.8V137.5z"/>
		<path class="st1" d="M729,181.8c-0.7-2-1.1-3.2-1.1-9.4v-12c0-7.1-2.4-9.7-7.9-9.7h-4.2v31.2h-12v-76.6H722
			c12.5,0,17.8,5.8,17.8,17.6v6c0,7.9-2.5,12.9-7.9,15.4v0.2c6,2.5,8,8.2,8,16.2v11.8c0,3.7,0.1,6.5,1.3,9.3H729z M715.8,116.2v23.5
			h4.7c4.5,0,7.2-2,7.2-8.1V124c0-5.5-1.9-7.9-6.1-7.9L715.8,116.2L715.8,116.2z"/>
		<path class="st1" d="M768.3,104.3c11.7,0,17.7,7,17.7,19.3v2.4h-11.4v-3.2c0-5.5-2.2-7.6-6-7.6s-6,2.1-6,7.6
			c0,5.6,2.4,9.7,10.3,16.6c10.1,8.9,13.2,15.2,13.2,24c0,12.3-6.1,19.3-18,19.3s-18-7-18-19.3v-4.7h11.4v5.5c0,5.5,2.4,7.4,6.2,7.4
			s6.2-2,6.2-7.4c0-5.6-2.4-9.7-10.3-16.6c-10.1-8.9-13.2-15.2-13.2-24C750.5,111.3,756.5,104.3,768.3,104.3z"/>
	</g>
	<g class="st0">
		<path class="st1" d="M339.3,210.7h8c5.1,0,7.5,2.8,7.5,7.9v16.3c0,5.1-2.5,7.9-7.5,7.9h-8V210.7z M344.4,215.3v23h2.8
			c1.6,0,2.6-0.8,2.6-3.1v-16.7c0-2.3-1-3.1-2.6-3.1L344.4,215.3L344.4,215.3z"/>
		<path class="st1" d="M364.9,224.3h6.9v4.6h-6.9v9.4h8.7v4.6h-13.8v-32.2h13.8v4.6h-8.7V224.3z"/>
		<path class="st1" d="M385.4,210.4c4.9,0,7.4,2.9,7.4,8.1v1H388v-1.3c0-2.3-0.9-3.2-2.5-3.2s-2.5,0.9-2.5,3.2s1,4.1,4.3,7
			c4.2,3.7,5.6,6.4,5.6,10.1c0,5.1-2.6,8.1-7.5,8.1c-5,0-7.5-2.9-7.5-8.1v-2h4.8v2.3c0,2.3,1,3.1,2.6,3.1s2.6-0.8,2.6-3.1
			s-1-4.1-4.3-7c-4.2-3.7-5.6-6.4-5.6-10.1C378,213.3,380.5,210.4,385.4,210.4z"/>
		<path class="st1" d="M414,242.9h-5.1L408,237h-6.2l-0.9,5.8h-4.6l5.1-32.2h7.4L414,242.9z M402.5,232.7h4.9l-2.4-16.3h-0.1
			L402.5,232.7z"/>
		<path class="st1" d="M428.8,242.9c-0.3-0.8-0.5-1.3-0.5-4v-5.1c0-3-1-4.1-3.3-4.1h-1.7v13.1h-5.1v-32.2h7.6c5.2,0,7.5,2.4,7.5,7.4
			v2.5c0,3.3-1.1,5.4-3.3,6.5v0.1c2.5,1.1,3.4,3.4,3.4,6.8v5c0,1.6,0,2.7,0.6,3.9h-5.2V242.9z M423.3,215.3v9.9h2c1.9,0,3-0.8,3-3.4
			v-3.2c0-2.3-0.8-3.3-2.6-3.3H423.3z"/>
		<path class="st1" d="M449.1,242.9c-0.3-0.8-0.5-1.3-0.5-4v-5.1c0-3-1-4.1-3.3-4.1h-1.7v13.1h-5.1v-32.2h7.6c5.2,0,7.5,2.4,7.5,7.4
			v2.5c0,3.3-1.1,5.4-3.3,6.5v0.1c2.5,1.1,3.4,3.4,3.4,6.8v5c0,1.6,0,2.7,0.6,3.9h-5.2V242.9z M443.6,215.3v9.9h2c1.9,0,3-0.8,3-3.4
			v-3.2c0-2.3-0.8-3.3-2.6-3.3H443.6z"/>
		<path class="st1" d="M458.4,218.4c0-5.1,2.7-8.1,7.7-8.1s7.7,2.9,7.7,8.1v16.7c0,5.1-2.7,8.1-7.7,8.1s-7.7-2.9-7.7-8.1V218.4z
			 M463.5,235.5c0,2.3,1,3.2,2.6,3.2s2.6-0.9,2.6-3.2v-17.4c0-2.3-1-3.2-2.6-3.2s-2.6,0.9-2.6,3.2V235.5z"/>
		<path class="st1" d="M478.9,210.7h5.1v27.6h8.3v4.6h-13.4V210.7z"/>
		<path class="st1" d="M496.3,210.7h5.1v27.6h8.3v4.6h-13.4V210.7z"/>
		<path class="st1" d="M513.3,218.4c0-5.1,2.7-8.1,7.7-8.1s7.7,2.9,7.7,8.1v16.7c0,5.1-2.7,8.1-7.7,8.1s-7.7-2.9-7.7-8.1V218.4z
			 M518.3,235.5c0,2.3,1,3.2,2.6,3.2s2.6-0.9,2.6-3.2v-17.4c0-2.3-1-3.2-2.6-3.2s-2.6,0.9-2.6,3.2V235.5z"/>
		<path class="st1" d="M540.5,210.4c4.9,0,7.4,2.9,7.4,8.1v1h-4.8v-1.3c0-2.3-0.9-3.2-2.5-3.2s-2.5,0.9-2.5,3.2s1,4.1,4.3,7
			c4.2,3.7,5.6,6.4,5.6,10.1c0,5.1-2.6,8.1-7.5,8.1s-7.5-2.9-7.5-8.1v-2h4.8v2.3c0,2.3,1,3.1,2.6,3.1s2.6-0.8,2.6-3.1s-1-4.1-4.3-7
			c-4.2-3.7-5.6-6.4-5.6-10.1C533.1,213.3,535.6,210.4,540.5,210.4z"/>
		<path class="st1" d="M561.7,210.7h5.1v32.2h-5.1V210.7z"/>
		<path class="st1" d="M576.9,219.6L576.9,219.6l-0.1,23.3h-4.5v-32.2h6.3l5.1,19.3h0.1v-19.3h4.5v32.2h-5.2L576.9,219.6z"/>
		<path class="st1" d="M604.4,233.6L604.4,233.6l3.5-22.8h7V243h-4.8v-23.1H610l-3.4,23.1h-4.8l-3.7-22.7H598V243h-4.4v-32.2h7
			L604.4,233.6z"/>
		<path class="st1" d="M620,218.4c0-5.1,2.7-8.1,7.7-8.1s7.7,2.9,7.7,8.1v16.7c0,5.1-2.7,8.1-7.7,8.1s-7.7-2.9-7.7-8.1V218.4z
			 M625.1,235.5c0,2.3,1,3.2,2.6,3.2s2.6-0.9,2.6-3.2v-17.4c0-2.3-1-3.2-2.6-3.2s-2.6,0.9-2.6,3.2V235.5z"/>
		<path class="st1" d="M655.6,218.1v1.1c0,3.3-1,5.4-3.3,6.4v0.1c2.7,1.1,3.8,3.4,3.8,6.8v2.6c0,5-2.6,7.6-7.7,7.6h-7.9v-32.2h7.6
			C653.3,210.7,655.6,213.2,655.6,218.1z M645.5,215.3v8.5h2c1.9,0,3-0.8,3-3.4v-1.8c0-2.3-0.8-3.3-2.6-3.3H645.5z M645.5,228.4v9.9
			h2.9c1.7,0,2.6-0.8,2.6-3.2v-2.8c0-3-1-3.9-3.3-3.9H645.5z"/>
		<path class="st1" d="M661,210.7h5.1v32.2H661V210.7z"/>
		<path class="st1" d="M671.5,210.7h5.1v27.6h8.3v4.6h-13.4L671.5,210.7L671.5,210.7z"/>
		<path class="st1" d="M688.9,210.7h5.1v32.2h-5.1V210.7z"/>
		<path class="st1" d="M715.9,242.9h-5.1l-0.9-5.8h-6.2l-0.9,5.8h-4.6l5.1-32.2h7.4L715.9,242.9z M704.3,232.7h4.9l-2.4-16.3h-0.1
			L704.3,232.7z"/>
		<path class="st1" d="M730.6,242.9c-0.3-0.8-0.5-1.3-0.5-4v-5.1c0-3-1-4.1-3.3-4.1h-1.7v13.1H720v-32.2h7.6c5.2,0,7.5,2.4,7.5,7.4
			v2.5c0,3.3-1.1,5.4-3.3,6.5v0.1c2.5,1.1,3.4,3.4,3.4,6.8v5c0,1.6,0,2.7,0.6,3.9h-5.2V242.9z M725.1,215.3v9.9h2c1.9,0,3-0.8,3-3.4
			v-3.2c0-2.3-0.8-3.3-2.6-3.3H725.1z"/>
		<path class="st1" d="M740.4,210.7h5.1v32.2h-5.1V210.7z"/>
		<path class="st1" d="M750.5,218.4c0-5.1,2.7-8.1,7.7-8.1s7.7,2.9,7.7,8.1v16.7c0,5.1-2.7,8.1-7.7,8.1s-7.7-2.9-7.7-8.1V218.4z
			 M755.6,235.5c0,2.3,1,3.2,2.6,3.2s2.6-0.9,2.6-3.2v-17.4c0-2.3-1-3.2-2.6-3.2s-2.6,0.9-2.6,3.2V235.5z"/>
		<path class="st1" d="M777.8,210.4c4.9,0,7.4,2.9,7.4,8.1v1h-4.8v-1.3c0-2.3-0.9-3.2-2.5-3.2s-2.5,0.9-2.5,3.2s1,4.1,4.3,7
			c4.2,3.7,5.6,6.4,5.6,10.1c0,5.1-2.6,8.1-7.5,8.1s-7.5-2.9-7.5-8.1v-2h4.8v2.3c0,2.3,1,3.1,2.6,3.1s2.6-0.8,2.6-3.1s-1-4.1-4.3-7
			c-4.2-3.7-5.6-6.4-5.6-10.1C770.3,213.3,772.8,210.4,777.8,210.4z"/>
	</g>
	<path class="st1" d="M302.8,121.4L179.6,247V0L302.8,121.4z M216.8,93.3V147l28.1-26.8L216.8,93.3z"/>
	<path class="st1" d="M168.9,257.3l-43.9,47l1.2-56.7H0L168.9,67V257.3z M87.8,211.5h42.7V167L87.8,211.5z"/>
</g>
</svg>
