<?xml version="1.0" encoding="utf-8"?>
<!-- Generator: Adobe Illustrator 22.1.0, SVG Export Plug-In . SVG Version: 6.00 Build 0)  -->
<svg version="1.1" class="logo-360-svg"  xmlns="http://www.w3.org/2000/svg" xmlns:xlink="http://www.w3.org/1999/xlink" x="0px" y="0px"
	 viewBox="0 0 77.1 77.1" style="enable-background:new 0 0 77.1 77.1;" xml:space="preserve">
<style type="text/css">
	.st0{fill:#657C28;}
	.st1 logo-360-svg{fill:#FFFFFF;}
</style>
<circle class="st0" cx="38.6" cy="38.6" r="38.6"/>
<g>
	<path class="st1" d="M29.5,41.3c0,2.9-2,5.2-5.8,5.2c-3.5,0-5.7-2.1-6.1-4.3c0-0.3,0.1-0.4,0.4-0.4h1.4c0.2,0,0.4,0.1,0.4,0.3
		c0.4,1.6,1.9,2.5,3.8,2.5c2.4,0,3.9-1.3,3.9-3.5c0-2-1.4-3.2-4.8-3.2H22c-0.2,0-0.4-0.1-0.4-0.4v-1c0-0.2,0.1-0.4,0.4-0.4h0.7
		c3,0,4.3-1.2,4.3-2.9s-1.2-2.9-3.3-2.9c-1.8,0-3.1,0.9-3.7,2.5c-0.1,0.2-0.2,0.3-0.4,0.3h-1.2c-0.3,0-0.4-0.2-0.3-0.4
		c0.6-2.2,2.5-4.3,5.8-4.3c3.3,0,5.2,2.2,5.2,4.6c0,1.7-0.9,3.1-2.8,3.9C28.5,37.8,29.5,39.3,29.5,41.3z"/>
	<path class="st1" d="M44.3,41.1c0,3.6-2.6,5.5-5.8,5.5c-3.8,0-6.6-2.6-6.6-8.4c0-6,2.6-9.7,6.6-9.7c2.9,0,4.7,1.7,5.2,4
		c0.1,0.2-0.1,0.4-0.3,0.4h-1.2c-0.2,0-0.4-0.1-0.4-0.3c-0.5-1.4-1.8-2.2-3.3-2.2c-2.6,0-4.2,2.4-4.5,6.5h0.2
		c1.2-0.8,2.6-1.3,4.2-1.3C41.9,35.6,44.3,37.9,44.3,41.1z M42.3,41.2c0-2-1.3-3.7-4.2-3.7c-1.7,0-3.1,0.6-4.2,1.4
		c0.1,4.2,1.9,5.8,4.5,5.8C40.7,44.8,42.3,43.5,42.3,41.2z"/>
	<path class="st1" d="M59,37.4c0,5.6-2.5,9.2-6.3,9.2c-3.7,0-6.1-3.4-6.1-8.9c0-5.6,2.5-9,6.3-9C56.6,28.6,59,31.9,59,37.4z
		 M48.6,37.4c0,4.7,1.6,7.3,4.2,7.3c2.6,0,4.1-2.5,4.1-7c0-4.7-1.7-7.2-4.2-7.2C50.1,30.5,48.6,32.9,48.6,37.4z"/>
	<path class="st1" d="M68.7,31.5c0,1.8-1.5,3.4-3.3,3.4c-1.9,0-3.4-1.5-3.4-3.4s1.5-3.3,3.4-3.3C67.2,28.1,68.7,29.6,68.7,31.5z
		 M63.6,31.5c0,1,0.8,1.8,1.8,1.8c1,0,1.8-0.8,1.8-1.8c0-1-0.8-1.8-1.8-1.8C64.4,29.7,63.6,30.5,63.6,31.5z"/>
</g>
<path class="st1" d="M71.9,48.5l-4.6-6.7l-6.7,4.6l1.1,1.6l4-2.8c-3.1,12.5-14.3,21.4-27.2,21.4c-15.5,0-28.1-12.6-28.1-28.1
	s12.6-28.1,28.1-28.1c10.2,0,19.7,5.6,24.6,14.6l1.8-1C59.6,14.5,49.5,8.5,38.5,8.5C21.9,8.5,8.5,22,8.5,38.6
	c0,16.6,13.5,30.1,30.1,30.1c13.8,0,25.8-9.5,29.2-22.7l2.6,3.7L71.9,48.5z"/>
</svg>
