<svg xmlns="http://www.w3.org/2000/svg" viewBox="0 0 269.1 201.42"><defs><style>.cls-1{fill:#fff;}</style></defs><title>Mesa de trabajo 1</title><g id="Layer_1" data-name="Layer 1"><circle class="cls-1" cx="48.4" cy="33.2" r="5.1"/><path class="cls-1" d="M18.7,130.9C2,120.6,0,100,0,83.9V0S8.9-.3,8.9,7.9V84.6c0,21.3,4.5,33.1,15.1,39.6a32.81,32.81,0,0,0,7.9,3.7C32,129.5,25.3,134.9,18.7,130.9Z"/><path class="cls-1" d="M55.7,110c-10.4-9.1-11.9-24.1-11.9-35.9V53.8s8.9-.2,8.9,7.3V74.8c0,13.7,2.7,22.5,8.2,28.2h0a30.59,30.59,0,0,0,5.3,4.2,32.81,32.81,0,0,0,7.9,3.7c0,1.5-6.8,7-13.3,3a49.06,49.06,0,0,1-5.1-3.9Z"/><path class="cls-1" d="M107.7,105.3h1.1c4-.6,7-4.1,7.8-5.2,6.7-8.9,15.9-24.1,23.2-46.3-3.3-1.1-8.7-.3-10.9,6.1-4.8,14.5-10.2,22.6-14.6,29.7a21.35,21.35,0,0,1-5,5.9,2.5,2.5,0,0,1-3,0,21.18,21.18,0,0,1-5-5.9c-4.4-7.1-9.8-15.2-14.6-29.7-2.3-6.4-7.6-7.2-10.9-6.1C83.1,76.1,92.3,91.3,99,100.1c.8,1.1,3.8,4.6,7.8,5.2h1.1"/><path class="cls-1" d="M157.7,35.8h2v-2l-5.2-13.4h-2.8l-5.2,13.4v2h2l1.3-3.3c0-.1.1-.1.2-.1h6.4c.1,0,.1,0,.2.1Zm-2.5-6H151c-.1,0-.1,0-.2-.1v-.2l2.1-5.5c0-.1.1-.1.2-.1s.1,0,.2.1l2.1,5.5v.2a.31.31,0,0,1-.2.1"/><path class="cls-1" d="M178.1,35.8h2.8l5.2-13.1V20.5h-2l-4.5,11.6c0,.1-.1.1-.2.1s-.1,0-.2-.1l-4.5-11.6h-2v2.2Z"/><path class="cls-1" d="M163.7,35.8h2.6V23.2a.22.22,0,0,1,.2-.2h4.2V20.4H159.5V23h4.1a.22.22,0,0,1,.2.2V35.8Z"/><path class="cls-1" d="M18.61,191.71a.22.22,0,0,1,.25.24c0,6.17-4,9.65-9,9.65C4.39,201.6.6,197.14.6,190.85s4-10.74,9.46-10.74a8.29,8.29,0,0,1,7.88,4.94c.06.13,0,.25-.18.25h-.61a.33.33,0,0,1-.31-.18,7.4,7.4,0,0,0-6.84-4c-4.82,0-8.3,3.84-8.3,9.64s3.36,9.77,8.18,9.77c4,0,7.51-2.62,7.82-7.81h-6a.22.22,0,0,1-.24-.25V192a.22.22,0,0,1,.24-.24Z"/><path class="cls-1" d="M52.26,192.32c0,6.05-3.48,9.28-8.19,9.28S36,198.37,36,192.32V180.6a.23.23,0,0,1,.25-.25h.61a.22.22,0,0,1,.24.25v11.66c0,5.49,2.87,8.3,7,8.3s7-2.81,7.08-8.3V180.6a.22.22,0,0,1,.24-.25h.61a.23.23,0,0,1,.25.25Z"/><path class="cls-1" d="M71.73,194.27l-2.62,7c0,.12-.12.18-.25.18h-.61c-.18,0-.24-.12-.18-.25l7.75-20.57c0-.13.13-.19.25-.19h.85c.13,0,.25.06.25.19l7.75,20.57c.06.13,0,.25-.18.25h-.67c-.12,0-.25-.06-.25-.18l-2.62-7Zm4.83-12.51h-.12l-4.28,11.42h8.67Z"/><path class="cls-1" d="M111.67,181.15a.22.22,0,0,1-.25.24h-6.9l.06,19.78a.22.22,0,0,1-.24.25h-.73a.23.23,0,0,1-.25-.25l.06-19.78h-6.9a.22.22,0,0,1-.24-.24v-.55a.22.22,0,0,1,.24-.25h14.84a.23.23,0,0,1,.25.25l.06.55Z"/><path class="cls-1" d="M139.75,200.38a.22.22,0,0,1,.25.24v.55a.23.23,0,0,1-.25.25H127.36a.23.23,0,0,1-.25-.25V180.6a.23.23,0,0,1,.25-.25h12.21a.22.22,0,0,1,.24.25v.55a.22.22,0,0,1-.24.24H128.21v8.37h9.53a.22.22,0,0,1,.24.24v.55a.22.22,0,0,1-.24.24h-9.53v9.59Z"/><path class="cls-1" d="M175.6,201.42a.23.23,0,0,1-.25-.25l-.24-19.84-7.88,19.91c0,.12-.12.18-.24.18h-.8c-.12,0-.24-.06-.24-.18l-7.88-19.91-.3,19.84a.23.23,0,0,1-.25.25h-.67a.22.22,0,0,1-.24-.25L157,180.6a.23.23,0,0,1,.25-.25h1.22c.12,0,.24.06.24.19l7.82,19.72,7.88-19.72c0-.13.12-.19.24-.19h1.16a.22.22,0,0,1,.24.25l.43,20.57a.22.22,0,0,1-.24.25Z"/><path class="cls-1" d="M196.05,194.27l-2.63,7c0,.12-.12.18-.24.18h-.61c-.18,0-.24-.12-.18-.25l7.75-20.57c0-.13.12-.19.25-.19h.85c.12,0,.24.06.24.19l7.76,20.57c.06.13,0,.25-.18.25h-.68c-.12,0-.24-.06-.24-.18l-2.63-7Zm4.76-12.51h-.12l-4.27,11.42h8.67Z"/><path class="cls-1" d="M237.57,200.38a.22.22,0,0,1,.24.24v.55a.22.22,0,0,1-.24.25H225.24a.23.23,0,0,1-.25-.25V180.6a.23.23,0,0,1,.25-.25h.67a.22.22,0,0,1,.24.25v19.78Z"/><path class="cls-1" d="M255.89,194.27l-2.63,7c0,.12-.12.18-.24.18h-.61c-.19,0-.25-.12-.19-.25L260,180.6c0-.13.12-.19.24-.19h.86c.12,0,.24.06.24.19l7.76,20.57c.06.13,0,.25-.19.25h-.67c-.12,0-.24-.06-.24-.18l-2.63-7Zm4.82-12.51h-.12l-4.27,11.42H265Z"/></g></svg>