<?xml version="1.0" encoding="utf-8"?>
<!-- Generator: Adobe Illustrator 23.0.6, SVG Export Plug-In . SVG Version: 6.00 Build 0)  -->
<svg version="1.1" xmlns="http://www.w3.org/2000/svg" xmlns:xlink="http://www.w3.org/1999/xlink" x="0px" y="0px"
	 viewBox="0 0 464.5 135.6" style="enable-background:new 0 0 464.5 135.6;" xml:space="preserve">
<style type="text/css">
	.st0{fill:#FFFFFF;}
	.st1{display:none;}
	.st2{display:inline;fill:#FFFFFF;}
	.st3{font-family:'Gravity-Book';}
	.st4{font-size:29.9386px;}
	.st5{letter-spacing:13;}
	.st6{font-family:'Gotham-Book';}
	.st7{font-size:13px;}
</style>
<g id="Layer_1">
	<g>
		<g>
			<circle class="st0" cx="48.4" cy="36.5" r="5.1"/>
		</g>
		<path class="st0" d="M18.7,134.2C2,123.9,0,103.2,0,87.2V3.3c0,0,8.9-0.3,8.9,7.9s0,76.7,0,76.7c0,21.3,4.5,33.1,15.1,39.6
			c1.6,1,4.1,2.5,7.9,3.7C31.9,132.7,25.2,138.2,18.7,134.2z"/>
		<path class="st0" d="M55.6,113.2c-10.4-9.1-11.9-24.1-11.9-35.9V57c0,0,8.9-0.2,8.9,7.3s0,13.7,0,13.7c0,13.7,2.7,22.5,8.2,28.2
			l0,0c1.6,1.6,3.4,3,5.3,4.2c1.6,1,4.1,2.5,7.9,3.7c0,1.5-6.8,7-13.3,3C58.9,116,57.2,114.7,55.6,113.2L55.6,113.2z"/>
		<path class="st0" d="M107.6,108.6c0.1,0,0.3,0,0.4,0c0.2,0,0.4,0,0.5,0c0.1,0,0.1,0,0.2,0l0,0c4-0.6,7-4.1,7.8-5.2
			c6.7-8.9,15.9-24.1,23.2-46.3c-3.3-1.1-8.7-0.3-10.9,6.1c-4.8,14.5-10.2,22.6-14.6,29.7c-1.9,3-3.6,4.9-5,5.9
			c-0.5,0.3-1,0.5-1.5,0.5c-0.5,0-1-0.2-1.5-0.5c-1.5-1.1-3.1-2.9-5-5.9c-4.4-7.1-9.8-15.2-14.6-29.7c-2.3-6.4-7.6-7.2-10.9-6.1
			c7.3,22.3,16.5,37.5,23.2,46.3c0.8,1.1,3.8,4.6,7.8,5.2l0,0c0.1,0,0.1,0,0.2,0c0.2,0,0.4,0,0.5,0c0.1,0,0.3,0,0.4,0"/>
	</g>
	<g>
		<path class="st0" d="M157.7,39h2v-2l-5.2-13.4h-2.8l-5.2,13.4v2h2l1.3-3.3c0-0.1,0.1-0.1,0.2-0.1h6.4c0.1,0,0.1,0,0.2,0.1
			L157.7,39z M155.1,33.1h-4.2c-0.1,0-0.1,0-0.2-0.1c0,0,0-0.1,0-0.2l2.1-5.5c0-0.1,0.1-0.1,0.2-0.1c0.1,0,0.1,0,0.2,0.1l2.1,5.5
			c0,0.1,0,0.1,0,0.2C155.2,33.1,155.2,33.1,155.1,33.1"/>
		<path class="st0" d="M178,39h2.8l5.2-13.1v-2.2h-2l-4.5,11.6c0,0.1-0.1,0.1-0.2,0.1c-0.1,0-0.1,0-0.2-0.1l-4.5-11.6h-2v2.2L178,39
			z"/>
		<path class="st0" d="M163.7,39h2.6V26.4c0-0.1,0.1-0.2,0.2-0.2h4.2v-2.6h-11.2v2.6h4.1c0.1,0,0.2,0.1,0.2,0.2V39z"/>
	</g>
	<g>
		<path class="st0" d="M200.1,70.5c0.3,0,0.4,0.2,0.4,0.4c-0.1,6.2-4.1,10.2-9.7,10.2c-5.7,0-9.8-4.6-9.8-11.2
			c0-6.6,4.3-11.1,10-11.1c3.9,0,7.1,2.1,8.4,5.4c0.1,0.3,0,0.5-0.3,0.5l-1.1,0c-0.2,0-0.4-0.1-0.5-0.3c-1.3-2.3-3.7-3.8-6.6-3.8
			c-4.5,0-7.8,3.5-7.8,9.2s3.3,9.4,8,9.4c3.7,0,6.9-2.4,7.4-6.9l-5.7,0c-0.3,0-0.4-0.1-0.4-0.4V71c0-0.3,0.1-0.4,0.4-0.4L200.1,70.5
			z"/>
		<path class="st0" d="M234.9,71.5c0,6.3-3.7,9.7-8.7,9.7s-8.6-3.4-8.6-9.7l0-11.9c0-0.3,0.1-0.4,0.4-0.4h1.1c0.3,0,0.4,0.1,0.4,0.4
			l0,11.6c0,5.4,2.6,8,6.6,8c4,0,6.5-2.6,6.6-8l0-11.6c0-0.3,0.1-0.4,0.4-0.4h1.1c0.3,0,0.4,0.1,0.4,0.4L234.9,71.5z"/>
		<path class="st0" d="M255.4,73.8l-2.4,6.6c-0.1,0.2-0.2,0.4-0.5,0.4h-1.3c-0.3,0-0.4-0.2-0.3-0.5l7.8-20.8
			c0.1-0.2,0.2-0.4,0.5-0.4h1.3c0.3,0,0.4,0.1,0.5,0.4l7.8,20.8c0.1,0.3,0,0.5-0.3,0.5h-1.3c-0.3,0-0.4-0.1-0.5-0.4l-2.4-6.6H255.4z
			 M259.9,61.7L256.1,72h7.5L259.9,61.7z"/>
		<path class="st0" d="M296.4,60.6c0,0.3-0.1,0.4-0.4,0.4h-6.6l0.1,19.3c0,0.3-0.2,0.4-0.4,0.4h-1.3c-0.3,0-0.4-0.1-0.4-0.4
			l0.1-19.3h-6.7c-0.3,0-0.4-0.1-0.4-0.4v-1c0-0.3,0.1-0.4,0.4-0.4h15.4c0.3,0,0.4,0.1,0.4,0.4V60.6z"/>
		<path class="st0" d="M325.4,78.9c0.3,0,0.4,0.2,0.4,0.4v1c0,0.3-0.1,0.4-0.4,0.4h-12.8c-0.3,0-0.4-0.1-0.4-0.4l0.1-20.7
			c0-0.3,0.2-0.4,0.4-0.4h12.7c0.3,0,0.4,0.1,0.4,0.4v1c0,0.3-0.2,0.4-0.4,0.4h-11.1l0,7.5h9.4c0.3,0,0.4,0.2,0.4,0.4v1
			c0,0.3-0.1,0.4-0.4,0.4h-9.4l0,8.6H325.4z"/>
		<path class="st0" d="M362.1,80.8c-0.3,0-0.4-0.1-0.4-0.4l-0.3-19.3l-7,19.4c-0.1,0.2-0.2,0.4-0.5,0.4h-1.4c-0.3,0-0.4-0.1-0.5-0.4
			l-7.1-19.6l-0.3,19.5c0,0.3-0.1,0.4-0.4,0.4H343c-0.3,0-0.4-0.1-0.4-0.4l0.6-20.7c0-0.3,0.1-0.4,0.4-0.4h2.3
			c0.3,0,0.4,0.1,0.5,0.4l6.9,18.6l6.8-18.6c0.1-0.2,0.2-0.4,0.5-0.4h2.2c0.3,0,0.4,0.1,0.4,0.4l0.5,20.7c0,0.3-0.1,0.4-0.4,0.4
			H362.1z"/>
		<path class="st0" d="M384.3,73.8l-2.4,6.6c-0.1,0.2-0.2,0.4-0.5,0.4h-1.3c-0.3,0-0.4-0.2-0.3-0.5l7.8-20.8
			c0.1-0.2,0.2-0.4,0.5-0.4h1.3c0.3,0,0.4,0.1,0.5,0.4l7.8,20.8c0.1,0.3,0,0.5-0.3,0.5h-1.3c-0.3,0-0.4-0.1-0.5-0.4l-2.4-6.6H384.3z
			 M388.8,61.7L385,72h7.5L388.8,61.7z"/>
		<path class="st0" d="M427.2,78.9c0.3,0,0.4,0.2,0.4,0.4v1c0,0.3-0.1,0.4-0.4,0.4h-12.9c-0.3,0-0.4-0.1-0.4-0.4l0.1-20.7
			c0-0.3,0.2-0.4,0.4-0.4h1.1c0.3,0,0.4,0.1,0.4,0.4l0.1,19.3H427.2z"/>
		<path class="st0" d="M446.8,73.8l-2.4,6.6c-0.1,0.2-0.2,0.4-0.5,0.4h-1.3c-0.3,0-0.4-0.2-0.3-0.5l7.8-20.8
			c0.1-0.2,0.2-0.4,0.5-0.4h1.3c0.3,0,0.4,0.1,0.5,0.4l7.8,20.8c0.1,0.3,0,0.5-0.3,0.5h-1.3c-0.3,0-0.4-0.1-0.5-0.4l-2.4-6.6H446.8z
			 M451.3,61.7L447.5,72h7.5L451.3,61.7z"/>
	</g>
	<g>
		<path class="st0" d="M180.3,104.1L180.3,104.1c0-2.5,1.8-4.7,4.6-4.7c1.5,0,2.5,0.4,3.4,1.2l-0.7,0.8c-0.7-0.6-1.5-1-2.8-1
			c-2,0-3.5,1.7-3.5,3.7v0c0,2.2,1.4,3.8,3.6,3.8c1,0,2-0.4,2.6-0.9v-2.3h-2.8v-0.9h3.8v3.6c-0.8,0.8-2.1,1.4-3.7,1.4
			C182.1,108.8,180.3,106.7,180.3,104.1z"/>
		<path class="st0" d="M191.3,104.8v-5.3h1v5.2c0,2,1,3.1,2.8,3.1c1.7,0,2.7-1,2.7-3v-5.3h1v5.2c0,2.7-1.5,4-3.8,4
			C192.8,108.7,191.3,107.4,191.3,104.8z"/>
		<path class="st0" d="M204.9,99.4h1l4.1,9.2h-1.1l-1.1-2.4h-5l-1.1,2.4h-1.1L204.9,99.4z M207.4,105.3l-2.1-4.6l-2.1,4.6H207.4z"/>
		<path class="st0" d="M213.5,100.4h-3.1v-0.9h7.2v0.9h-3.1v8.2h-1V100.4z"/>
		<path class="st0" d="M220.1,99.5h6.6v0.9h-5.6v3.1h5v0.9h-5v3.2h5.6v0.9h-6.6V99.5z"/>
		<path class="st0" d="M229.3,99.5h1l3.3,5l3.3-5h1v9.1h-1v-7.4l-3.3,4.9h-0.1l-3.3-4.9v7.4h-1V99.5z"/>
		<path class="st0" d="M244.5,99.4h1l4.1,9.2h-1.1l-1.1-2.4h-5l-1.1,2.4h-1.1L244.5,99.4z M247,105.3l-2.1-4.6l-2.1,4.6H247z"/>
		<path class="st0" d="M251.9,99.5h1v8.2h5.1v0.9h-6.1V99.5z"/>
		<path class="st0" d="M263.8,99.4h1l4.1,9.2h-1.1l-1.1-2.4h-5l-1.1,2.4h-1.1L263.8,99.4z M266.4,105.3l-2.1-4.6l-2.1,4.6H266.4z"/>
		<path class="st0" d="M275.1,107.3l0.7-0.7c0.8,0.8,1.7,1.2,2.6,1.2c1.3,0,2.2-0.9,2.2-2v0c0-1.1-0.9-1.9-2.3-1.9
			c-0.8,0-1.4,0.2-1.9,0.5l-0.7-0.5l0.3-4.4h5.2v0.9h-4.3l-0.2,2.9c0.5-0.2,1-0.4,1.8-0.4c1.8,0,3.1,1.1,3.1,2.8v0
			c0,1.8-1.4,3-3.3,3C277,108.8,275.9,108.1,275.1,107.3z"/>
		<path class="st0" d="M284.8,107.8c-0.7-0.7-1.1-1.7-1.1-3.5v0c0-2.8,1.4-4.9,3.8-4.9c1.1,0,1.9,0.4,2.7,1l-0.6,0.8
			c-0.7-0.6-1.3-0.9-2.1-0.9c-1.7,0-2.7,1.7-2.7,4c0.5-0.7,1.3-1.4,2.6-1.4c1.7,0,3.1,1.1,3.1,2.8v0c0,1.8-1.4,3-3.3,3
			C286.2,108.8,285.4,108.4,284.8,107.8z M289.4,105.8L289.4,105.8c0-1.1-0.9-2-2.2-2c-1.4,0-2.3,1-2.3,2v0c0,1.2,1,2,2.3,2
			C288.6,107.8,289.4,106.9,289.4,105.8z"/>
		<path class="st0" d="M292.4,107.8l3.3-2.9c1.4-1.2,1.9-2,1.9-2.9c0-1.1-0.8-1.7-1.8-1.7c-1,0-1.7,0.5-2.4,1.6l-0.8-0.5
			c0.8-1.2,1.7-1.9,3.3-1.9c1.6,0,2.8,1.1,2.8,2.6v0c0,1.3-0.7,2.1-2.3,3.5l-2.4,2.2h4.8v0.9h-6.4V107.8z"/>
		<path class="st0" d="M301.1,107.6l0.6-0.8c0.7,0.6,1.4,1,2.2,1c1.6,0,2.7-1.7,2.7-4c-0.5,0.8-1.3,1.5-2.6,1.5
			c-1.9,0-3.2-1.2-3.2-2.8v0c0-1.7,1.3-3.1,3.3-3.1c1,0,1.8,0.4,2.4,0.9c0.7,0.7,1.1,1.7,1.1,3.5v0c0,2.9-1.5,4.9-3.8,4.9
			C302.8,108.8,301.9,108.3,301.1,107.6z M306.5,102.3L306.5,102.3c0-1.2-0.9-2.1-2.3-2.1c-1.4,0-2.2,1-2.2,2.1v0c0,1.2,0.9,2,2.2,2
			C305.6,104.4,306.5,103.4,306.5,102.3z"/>
		<path class="st0" d="M314.3,104.2h3.6v1.1h-3.6V104.2z"/>
		<path class="st0" d="M324.3,107.8l3.3-2.9c1.4-1.2,1.9-2,1.9-2.9c0-1.1-0.8-1.7-1.8-1.7c-1,0-1.7,0.5-2.4,1.6l-0.8-0.5
			c0.8-1.2,1.7-1.9,3.3-1.9c1.6,0,2.8,1.1,2.8,2.6v0c0,1.3-0.7,2.1-2.3,3.5l-2.4,2.2h4.8v0.9h-6.4V107.8z"/>
		<path class="st0" d="M334.3,100.5l-1.7,0.5l-0.2-0.8l2.2-0.8h0.8v9.2h-1V100.5z"/>
	</g>
</g>
<g id="Capa_2" class="st1">
	<text transform="matrix(1 0 0 1 179.4587 80.7938)" class="st2 st3 st4 st5">guatemala</text>
	<text transform="matrix(1 0 0 1 179.4587 108.5954)" class="st2 st6 st7">Guatemala 5629 - 21</text>
</g>
</svg>
