<?xml version="1.0" encoding="utf-8"?>
<!-- Generator: Adobe Illustrator 22.1.0, SVG Export Plug-In . SVG Version: 6.00 Build 0)  -->
<svg version="1.1" id="Layer_1" xmlns="http://www.w3.org/2000/svg" xmlns:xlink="http://www.w3.org/1999/xlink" x="0px" y="0px"
	 viewBox="0 0 439.7 198.3" style="enable-background:new 0 0 439.7 198.3;" xml:space="preserve">
<style type="text/css">
	.st0{fill:#3A6A5E;}
</style>
<g>
	<g>
		<circle class="st0" cx="49.8" cy="33.2" r="5.1"/>
	</g>
	<path class="st0" d="M20.1,130.9C3.4,120.6,1.4,100,1.4,83.9V0c0,0,8.9-0.3,8.9,7.9s0,76.7,0,76.7c0,21.3,4.5,33.1,15.1,39.6
		c1.6,1,4.1,2.5,7.9,3.7C33.4,129.5,26.7,134.9,20.1,130.9z"/>
	<path class="st0" d="M57.1,110c-10.4-9.1-11.9-24.1-11.9-35.9V53.8c0,0,8.9-0.2,8.9,7.3c0,7.6,0,13.7,0,13.7
		c0,13.7,2.7,22.5,8.2,28.2l0,0c1.6,1.6,3.4,3,5.3,4.2c1.6,1,4.1,2.5,7.9,3.7c0,1.5-6.8,7-13.3,3C60.4,112.7,58.7,111.4,57.1,110
		L57.1,110z"/>
	<path class="st0" d="M109.1,105.3c0.1,0,0.3,0,0.4,0c0.2,0,0.4,0,0.5,0s0.1,0,0.2,0l0,0c4-0.6,7-4.1,7.8-5.2
		c6.7-8.9,15.9-24.1,23.2-46.3c-3.3-1.1-8.7-0.3-10.9,6.1c-4.8,14.5-10.2,22.6-14.6,29.7c-1.9,3-3.6,4.9-5,5.9
		c-0.5,0.3-1,0.5-1.5,0.5s-1-0.2-1.5-0.5c-1.5-1.1-3.1-2.9-5-5.9c-4.4-7.1-9.8-15.2-14.6-29.7c-2.3-6.4-7.6-7.2-10.9-6.1
		c7.3,22.3,16.5,37.5,23.2,46.3c0.8,1.1,3.8,4.6,7.8,5.2l0,0c0.1,0,0.1,0,0.2,0c0.2,0,0.4,0,0.5,0s0.3,0,0.4,0"/>
</g>
<g>
	<path class="st0" d="M159.1,35.8h2v-2l-5.2-13.4h-2.8l-5.2,13.4v2h2l1.3-3.3c0-0.1,0.1-0.1,0.2-0.1h6.4c0.1,0,0.1,0,0.2,0.1
		L159.1,35.8z M156.6,29.8h-4.2c-0.1,0-0.1,0-0.2-0.1c0,0,0-0.1,0-0.2l2.1-5.5c0-0.1,0.1-0.1,0.2-0.1c0.1,0,0.1,0,0.2,0.1l2.1,5.5
		c0,0.1,0,0.1,0,0.2C156.7,29.8,156.6,29.8,156.6,29.8"/>
	<path class="st0" d="M179.5,35.8h2.8l5.2-13.1v-2.2h-2L181,32.1c0,0.1-0.1,0.1-0.2,0.1s-0.1,0-0.2-0.1l-4.5-11.6h-2v2.2L179.5,35.8
		z"/>
	<path class="st0" d="M165.1,35.8h2.6V23.2c0-0.1,0.1-0.2,0.2-0.2h4.2v-2.6h-11.2V23h4.1c0.1,0,0.2,0.1,0.2,0.2v12.6H165.1z"/>
</g>
<g>
	<path class="st0" d="M29.5,182.4c0.3,0,0.4,0.2,0.4,0.4c0,10.1-6.5,15.8-14.8,15.8C6.2,198.6,0,191.3,0,181
		c0-10.4,6.5-17.6,15.5-17.6c6,0,10.8,3.2,12.9,8.1c0.1,0.2,0,0.4-0.3,0.4h-1c-0.2,0-0.4-0.1-0.5-0.3c-2.1-4-6-6.6-11.2-6.6
		c-7.9,0-13.6,6.3-13.6,15.8s5.5,16,13.4,16c6.6,0,12.3-4.3,12.8-12.8h-9.8c-0.2,0-0.4-0.1-0.4-0.4v-0.8c0-0.2,0.1-0.4,0.4-0.4H29.5
		z"/>
	<path class="st0" d="M84.6,183.4c0,9.9-5.7,15.2-13.4,15.2c-7.8,0-13.2-5.3-13.2-15.2v-19.2c0-0.2,0.1-0.4,0.4-0.4h1
		c0.2,0,0.4,0.1,0.4,0.4v19.1c0,9,4.7,13.6,11.5,13.6s11.5-4.6,11.6-13.6v-19.1c0-0.2,0.1-0.4,0.4-0.4h1c0.2,0,0.4,0.1,0.4,0.4
		L84.6,183.4z"/>
	<path class="st0" d="M116.5,186.6l-4.3,11.4c0,0.2-0.2,0.3-0.4,0.3h-1c-0.3,0-0.4-0.2-0.3-0.4l12.7-33.7c0-0.2,0.2-0.3,0.4-0.3h1.4
		c0.2,0,0.4,0.1,0.4,0.3l12.7,33.7c0.1,0.2,0,0.4-0.3,0.4h-1.1c-0.2,0-0.4-0.1-0.4-0.3l-4.3-11.4H116.5z M124.4,166.1h-0.2l-7,18.7
		h14.2L124.4,166.1z"/>
	<path class="st0" d="M181.9,165.1c0,0.2-0.1,0.4-0.4,0.4h-11.3l0.1,32.4c0,0.2-0.1,0.4-0.4,0.4h-1.2c-0.2,0-0.4-0.1-0.4-0.4
		l0.1-32.4h-11.3c-0.2,0-0.4-0.1-0.4-0.4v-0.9c0-0.2,0.1-0.4,0.4-0.4h24.3c0.2,0,0.4,0.1,0.4,0.4L181.9,165.1L181.9,165.1z"/>
	<path class="st0" d="M227.9,196.6c0.2,0,0.4,0.1,0.4,0.4v0.9c0,0.2-0.1,0.4-0.4,0.4h-20.3c-0.2,0-0.4-0.1-0.4-0.4v-33.7
		c0-0.2,0.1-0.4,0.4-0.4h20c0.2,0,0.4,0.1,0.4,0.4v0.9c0,0.2-0.1,0.4-0.4,0.4H209v13.7h15.6c0.2,0,0.4,0.1,0.4,0.4v0.9
		c0,0.2-0.1,0.4-0.4,0.4H209v15.7L227.9,196.6L227.9,196.6z"/>
	<path class="st0" d="M286.6,198.3c-0.2,0-0.4-0.1-0.4-0.4l-0.4-32.5L272.9,198c0,0.2-0.2,0.3-0.4,0.3h-1.3c-0.2,0-0.4-0.1-0.4-0.3
		l-12.9-32.6l-0.5,32.5c0,0.2-0.1,0.4-0.4,0.4h-1.1c-0.2,0-0.4-0.1-0.4-0.4l0.7-33.7c0-0.2,0.1-0.4,0.4-0.4h2c0.2,0,0.4,0.1,0.4,0.3
		l12.8,32.3l12.9-32.3c0-0.2,0.2-0.3,0.4-0.3h1.9c0.2,0,0.4,0.1,0.4,0.4l0.7,33.7c0,0.2-0.1,0.4-0.4,0.4H286.6z"/>
	<path class="st0" d="M320.1,186.6l-4.3,11.4c0,0.2-0.2,0.3-0.4,0.3h-1c-0.3,0-0.4-0.2-0.3-0.4l12.7-33.7c0-0.2,0.2-0.3,0.4-0.3h1.4
		c0.2,0,0.4,0.1,0.4,0.3l12.7,33.7c0.1,0.2,0,0.4-0.3,0.4h-1.1c-0.2,0-0.4-0.1-0.4-0.3l-4.3-11.4H320.1z M327.9,166.1h-0.2l-7,18.7
		h14.2L327.9,166.1z"/>
	<path class="st0" d="M388.1,196.6c0.2,0,0.4,0.1,0.4,0.4v0.9c0,0.2-0.1,0.4-0.4,0.4h-20.2c-0.2,0-0.4-0.1-0.4-0.4v-33.7
		c0-0.2,0.1-0.4,0.4-0.4h1.1c0.2,0,0.4,0.1,0.4,0.4v32.4L388.1,196.6L388.1,196.6z"/>
	<path class="st0" d="M418.1,186.6l-4.3,11.4c0,0.2-0.2,0.3-0.4,0.3h-1c-0.3,0-0.4-0.2-0.3-0.4l12.7-33.7c0-0.2,0.2-0.3,0.4-0.3h1.4
		c0.2,0,0.4,0.1,0.4,0.3l12.7,33.7c0.1,0.2,0,0.4-0.3,0.4h-1.1c-0.2,0-0.4-0.1-0.4-0.3l-4.3-11.4H418.1z M426,166.1h-0.2l-7,18.7
		H433L426,166.1z"/>
</g>
</svg>
