<?xml version="1.0" encoding="utf-8"?>
<!-- Generator: Adobe Illustrator 24.2.3, SVG Export Plug-In . SVG Version: 6.00 Build 0)  -->
<svg version="1.1" id="Layer_1" xmlns="http://www.w3.org/2000/svg" xmlns:xlink="http://www.w3.org/1999/xlink" x="0px" y="0px"
	 viewBox="0 0 412.59 107.39" style="enable-background:new 0 0 412.59 107.39;" xml:space="preserve">
<style type="text/css">
	.st0{fill:#FFFFFF;}
	.st1{fill:#172D5F;}
	.st2{clip-path:url(#SVGID_2_);}
	.st3{clip-path:url(#SVGID_4_);}
	.st4{clip-path:url(#SVGID_6_);}
</style>
<g>
	<rect x="55.24" y="0.81" class="st0" width="22.09" height="22.09"/>
	<rect x="55.24" y="28.43" class="st0" width="22.09" height="22.09"/>
	<rect x="55.24" y="56.05" class="st0" width="22.09" height="22.09"/>
	<rect x="55.24" y="83.67" class="st0" width="22.09" height="22.1"/>
	<rect x="27.62" y="56.05" class="st0" width="22.09" height="22.09"/>
	<rect x="27.62" y="83.67" class="st0" width="22.09" height="22.1"/>
	<rect y="83.67" class="st0" width="22.09" height="22.1"/>
	<g>
		<path class="st0" d="M125.73,14.88c-1.16-0.45-2.5-0.67-4.02-0.67c-1.7,0-3.08,0.38-4.15,1.14c-1.07,0.76-1.92,1.76-2.55,3.02
			c-0.63,1.25-1.07,2.68-1.34,4.28c-0.27,1.61-0.4,3.26-0.4,4.96v9.99h10.86v13H113.4v55.04H98.51V50.61h-8.58v-13h8.58V27.48
			c0-3.57,0.38-6.95,1.14-10.13c0.76-3.17,1.96-5.94,3.62-8.31c1.65-2.36,3.79-4.22,6.43-5.56c2.64-1.34,5.87-2.01,9.72-2.01
			c2.5,0,4.91,0.36,7.24,1.07L125.73,14.88z"/>
		<path class="st0" d="M150.95,17.43c0,2.68-0.85,4.91-2.55,6.71c-1.7,1.79-3.8,2.68-6.3,2.68c-2.59,0-4.72-0.89-6.37-2.68
			c-1.66-1.79-2.48-4.02-2.48-6.71c0-2.59,0.83-4.83,2.48-6.7c1.65-1.88,3.77-2.82,6.37-2.82s4.71,0.94,6.37,2.82
			C150.12,12.6,150.95,14.84,150.95,17.43"/>
	</g>
	<rect x="134.6" y="37.61" class="st0" width="15.15" height="68.04"/>
	<g>
		<path class="st0" d="M183.01,50.6v33.46c0,3.76,0.56,6.48,1.67,8.18c1.12,1.7,2.84,2.55,5.16,2.55c0.81,0,1.63-0.1,2.48-0.27
			c0.85-0.18,1.59-0.44,2.22-0.8l0.27,11.8c-1.07,0.54-2.51,0.99-4.29,1.34c-1.79,0.36-3.58,0.53-5.36,0.53
			c-5.82,0-9.99-1.72-12.54-5.16c-2.55-3.45-3.82-8.38-3.82-14.82V50.6h-8.58v-13h8.58V19.84h14.21v17.77h11.93v13H183.01z"/>
	</g>
	<polygon class="st0" points="211.7,37.79 228.08,92.88 228.37,92.88 246.64,37.79 256.2,37.79 274.76,92.88 275.05,92.88 
		291.29,37.79 301.72,37.79 280.27,105.63 269.54,105.63 251.42,50.69 251.13,50.69 233.3,105.63 222.57,105.63 201.12,37.79 	"/>
	<g>
		<path class="st0" d="M368.7,69.55v2.17c0,0.78-0.05,1.59-0.15,2.47h-56.25c0.09,3.38,0.77,6.57,2.03,9.56c1.25,3,3,5.61,5.22,7.83
			c2.22,2.22,4.83,3.99,7.83,5.3c2.99,1.3,6.23,1.96,9.71,1.96c5.12,0,9.54-1.18,13.26-3.55c3.72-2.36,6.55-5.1,8.48-8.19l7.39,5.8
			c-4.06,5.12-8.53,8.8-13.41,11.02c-4.88,2.23-10.13,3.34-15.73,3.34c-5.03,0-9.69-0.89-13.99-2.68c-4.3-1.79-7.99-4.28-11.09-7.47
			c-3.09-3.19-5.53-6.96-7.32-11.31c-1.79-4.35-2.68-9.08-2.68-14.2c0-5.12,0.87-9.86,2.61-14.2c1.74-4.35,4.15-8.12,7.25-11.31
			c3.09-3.19,6.72-5.68,10.87-7.47c4.15-1.79,8.65-2.68,13.48-2.68c5.31,0,10,0.89,14.06,2.68c4.06,1.79,7.44,4.2,10.15,7.25
			c2.71,3.04,4.76,6.59,6.16,10.65C367.99,60.56,368.7,64.91,368.7,69.55 M358.7,66.36c-0.29-6.37-2.35-11.67-6.16-15.87
			c-3.82-4.2-9.26-6.31-16.31-6.31c-3.29,0-6.33,0.6-9.14,1.81c-2.8,1.21-5.27,2.85-7.39,4.93c-2.13,2.08-3.82,4.44-5.07,7.1
			c-1.26,2.66-1.98,5.43-2.18,8.33H358.7z"/>
	</g>
	<rect x="378.09" y="0.84" class="st0" width="9.86" height="104.79"/>
	<g>
		<path class="st0" d="M402.44,7.85h1.66c0.33,0,0.65-0.01,0.96-0.04c0.31-0.02,0.59-0.08,0.84-0.19c0.24-0.1,0.44-0.26,0.58-0.47
			c0.14-0.21,0.21-0.5,0.21-0.89c0-0.33-0.07-0.59-0.19-0.79s-0.29-0.35-0.5-0.46c-0.21-0.1-0.44-0.17-0.7-0.2
			c-0.26-0.03-0.52-0.05-0.77-0.05h-2.08V7.85z M401.1,3.55h3.53c1.16,0,2.02,0.22,2.57,0.66c0.55,0.44,0.83,1.14,0.83,2.11
			c0,0.86-0.24,1.5-0.73,1.9c-0.5,0.4-1.1,0.64-1.81,0.72l2.77,4.25h-1.46l-2.64-4.14h-1.72v4.14h-1.34V3.55z M397.17,8.36
			c0,1,0.18,1.93,0.55,2.78c0.37,0.86,0.87,1.6,1.51,2.24c0.64,0.63,1.38,1.13,2.24,1.5c0.85,0.37,1.77,0.55,2.75,0.55
			c0.99,0,1.9-0.18,2.75-0.55c0.85-0.37,1.59-0.87,2.23-1.51c0.64-0.64,1.15-1.4,1.51-2.27c0.37-0.87,0.55-1.82,0.55-2.83
			c0-1-0.18-1.93-0.55-2.79c-0.37-0.86-0.87-1.62-1.51-2.25c-0.64-0.63-1.38-1.13-2.23-1.49c-0.85-0.36-1.77-0.54-2.75-0.54
			c-0.98,0-1.9,0.18-2.75,0.55c-0.85,0.37-1.59,0.86-2.24,1.5c-0.64,0.63-1.15,1.38-1.51,2.26C397.35,6.39,397.17,7.34,397.17,8.36
			 M395.82,8.36c0-1.19,0.22-2.3,0.67-3.32c0.44-1.02,1.05-1.91,1.81-2.65c0.76-0.74,1.65-1.33,2.66-1.75
			c1.01-0.42,2.09-0.64,3.24-0.64c1.13,0,2.21,0.21,3.23,0.64s1.91,1.01,2.67,1.75c0.76,0.74,1.36,1.61,1.81,2.61
			c0.45,1.01,0.67,2.1,0.67,3.28c0,1.19-0.22,2.3-0.67,3.32c-0.44,1.02-1.05,1.91-1.81,2.65c-0.76,0.75-1.65,1.33-2.67,1.76
			c-1.02,0.42-2.1,0.64-3.23,0.64c-1.15,0-2.23-0.21-3.24-0.64c-1.02-0.43-1.9-1.01-2.66-1.75c-0.76-0.74-1.36-1.61-1.81-2.61
			C396.05,10.63,395.82,9.54,395.82,8.36"/>
	</g>
</g>
</svg>
