<?xml version="1.0" encoding="utf-8"?>
<!-- Generator: Adobe Illustrator 24.2.3, SVG Export Plug-In . SVG Version: 6.00 Build 0)  -->
<svg version="1.1" id="Layer_1" xmlns="http://www.w3.org/2000/svg" xmlns:xlink="http://www.w3.org/1999/xlink" x="0px" y="0px"
	 viewBox="0 0 290.12 155.6" style="enable-background:new 0 0 290.12 155.6;" xml:space="preserve">
<style type="text/css">
	.st0{fill:#FFFFFF;}
	.st1{fill:#172D5F;}
	.st2{clip-path:url(#SVGID_2_);}
	.st3{clip-path:url(#SVGID_4_);}
	.st4{clip-path:url(#SVGID_6_);}
</style>
<g>
	<rect x="89.5" y="95" class="st0" width="1.98" height="1.81"/>
	<g>
		<path class="st0" d="M36.37,90.67h1.79v2.09h-1.79V90.67z M33.35,90.67h1.79v2.09h-1.79V90.67z M41.25,94.54v7.94
			c0,3.37-2.42,5.01-5.5,5.01c-3.07,0-5.5-1.64-5.5-5.01v-7.94h2.72v6.89c0,2.14,0.1,4.09,2.77,4.09c2.67,0,2.77-1.95,2.77-4.09
			v-6.89H41.25z"/>
	</g>
	<polygon class="st0" points="43.23,94.54 46.2,94.54 49.5,104.53 49.53,104.53 52.86,94.54 55.54,94.54 50.87,107.22 47.91,107.22 
			"/>
	<g>
		<path class="st0" d="M59.56,99.98h2.9c1.95-0.09,2.39-0.97,2.39-1.97c0-1-0.44-1.88-2.39-1.97h-2.9V99.98z M59.6,101.49v5.72
			h-1.76V94.54h4.53c2.13,0,4.32,0.67,4.32,3.18c0,1.53-0.91,2.71-2.39,3.05v0.03c1.53,0.37,1.74,1.18,1.93,2.6
			c0.19,1.27,0.34,2.62,0.79,3.81h-1.88c-0.16-0.75-0.37-1.58-0.46-2.33c-0.14-1.14-0.14-2.18-0.72-2.81
			c-0.51-0.58-1.21-0.53-1.91-0.58H59.6z"/>
		<path class="st0" d="M69.57,107.22V94.54h1.67v5.04h0.04c0.63-0.99,1.58-1.44,2.86-1.44c2.3,0,3.02,1.53,3.02,3.11v5.97h-1.67V102
			c0-1.55-0.4-2.54-1.97-2.58c-0.66-0.02-1.68,0.49-2,1.23c-0.39,0.91-0.29,1.54-0.29,2.04v4.53H69.57z"/>
		<path class="st0" d="M85.6,101.97c0.03-1.48-0.63-2.62-2.25-2.62c-1.38,0-2.22,1.17-2.22,2.62H85.6z M81.13,103.13
			c-0.12,1.54,0.51,3.15,2.22,3.15c1.3,0,1.95-0.51,2.14-1.8h1.75c-0.26,2.01-1.81,3.01-3.92,3.01c-2.82,0-3.95-2.01-3.95-4.6
			c0-2.58,1.3-4.75,4.09-4.75c2.64,0.05,3.88,1.72,3.88,4.16v0.83H81.13z"/>
	</g>
	<rect x="89.66" y="98.4" class="st0" width="1.67" height="8.82"/>
	<g>
		<path class="st0" d="M95.88,99.7h0.03c0.56-1.1,1.8-1.57,2.67-1.57c0.61,0,3.34,0.16,3.34,2.99v6.09h-1.67v-5.55
			c0-1.46-0.61-2.25-2.02-2.25c0,0-0.91-0.05-1.62,0.65c-0.25,0.24-0.7,0.63-0.7,2.35v4.79h-1.67V98.4h1.64V99.7z"/>
	</g>
	<rect x="104.72" y="94.54" class="st0" width="1.67" height="12.68"/>
	<g>
		<path class="st0" d="M112.81,102.93c-1.02,0.05-2.37,0.42-2.37,1.7c0,1.09,0.76,1.64,1.74,1.64c1.96,0,2.33-1.7,2.3-3.34H112.81z
			 M114.48,101.77c0-1.53-0.09-2.42-1.86-2.42c-0.84,0-1.63,0.49-1.65,1.41h-1.76c0.09-1.93,1.6-2.62,3.34-2.62
			c1.81,0,3.6,0.55,3.6,3v4.22c0,0.39,0.02,1.12,0.07,1.86h-1.12c-0.16,0-0.46,0.08-0.47-0.12c-0.03-0.41-0.07-0.79-0.08-1.2h-0.04
			c-0.55,1.1-1.53,1.58-2.74,1.58c-1.53,0-3.07-0.79-3.07-2.51c0-2.48,2.19-3.2,4.28-3.2H114.48z"/>
		<path class="st0" d="M120.47,99.75h0.03c0.56-1.11,1.79-1.57,2.67-1.57c0.62,0,3.34,0.16,3.34,2.99v6.09h-1.67v-5.55
			c0-1.46-0.61-2.25-2.02-2.25c0,0-0.91-0.05-1.62,0.65c-0.25,0.24-0.7,0.63-0.7,2.35v4.8h-1.67v-8.82h1.63V99.75z"/>
		<path class="st0" d="M132.92,106.38c2.02,0,2.49-1.88,2.49-3.53c0-1.6-0.6-3.5-2.49-3.5c-2.01,0-2.5,1.85-2.5,3.5
			S131.04,106.38,132.92,106.38 M135.4,94.58h1.67v11.12c0,0.53,0.05,1.06,0.09,1.57h-1.7l-0.05-1.32v-0.09h-0.03
			c-0.6,1.23-1.76,1.67-3.04,1.67c-2.62,0-3.65-2.41-3.65-4.67c0-2.39,1.21-4.67,3.95-4.67c1.12,0,2.23,0.41,2.74,1.46h0.03V94.58z"
			/>
	</g>
	<polygon class="st0" points="17.98,94.54 28.25,94.54 28.25,96.64 24.48,96.64 24.48,107.22 21.75,107.22 21.75,96.64 17.98,96.64 
			"/>
	<g>
		<path class="st0" d="M124.97,82.83c-2.84,0-5.16,2.32-5.16,5.16s2.32,5.16,5.16,5.16c2.85,0,5.16-2.32,5.16-5.16
			S127.81,82.83,124.97,82.83 M129.52,88c0,2.51-2.04,4.55-4.55,4.55c-2.51,0-4.55-2.04-4.55-4.55s2.04-4.55,4.55-4.55
			C127.48,83.44,129.52,85.49,129.52,88"/>
		<path class="st0" d="M123.93,87.5h1.27c0.86-0.04,1.05-0.43,1.05-0.86c0-0.44-0.19-0.83-1.05-0.86h-1.27V87.5z M123.95,88.17v2.51
			h-0.77v-5.57h1.99c0.93,0,1.9,0.29,1.9,1.4c0,0.67-0.4,1.19-1.05,1.34v0.01c0.67,0.16,0.77,0.52,0.85,1.14
			c0.08,0.55,0.14,1.15,0.34,1.67h-0.82c-0.07-0.33-0.16-0.7-0.21-1.03c-0.06-0.5-0.06-0.96-0.31-1.23
			c-0.22-0.25-0.53-0.23-0.84-0.25H123.95z"/>
		<path class="st0" d="M77.73,14.36l-37.17,64.4c5.93,1.62,12.15,2.4,18.59,2.4c6.41,0,12.68-0.78,18.57-2.4
			c5.95-1.47,12.14-2.32,18.58-2.32c6.4,0,12.64,0.84,18.59,2.32l-0.47-0.82l-4.57-7.91c-4.39-0.77-8.94-1.17-13.54-1.17
			c-6.43,0-12.63,0.78-18.59,2.32c-5.9,1.54-12.16,2.36-18.57,2.36c-2.28,0-4.5-0.09-6.69-0.31l25.24-43.77l15.27,26.41
			c-5.27,0.23-10.31,0.98-15.25,2.25c-3.58,0.92-7.26,1.58-11.02,1.95l-4.6,7.97c5.37-0.21,10.62-1.02,15.63-2.27
			c5.95-1.55,12.14-2.34,18.58-2.34c3.4,0,6.83,0.23,10.12,0.67l-4.84-8.38l-12.5-21.67L77.73,14.36z"/>
	</g>
	<polygon class="st0" points="175.34,125.36 177,130.85 178.74,125.36 180.43,125.36 181.99,130.8 183.72,125.36 185.05,125.36 
		182.63,132.25 181.14,132.25 179.52,126.58 177.73,132.25 176.2,132.25 173.93,125.36 	"/>
	<polygon class="st0" points="187.62,125.36 189.28,130.85 191.03,125.36 192.72,125.36 194.28,130.8 196.01,125.36 197.34,125.36 
		194.91,132.25 193.43,132.25 191.81,126.58 190.01,132.25 188.49,132.25 186.21,125.36 	"/>
	<polygon class="st0" points="199.91,125.36 201.57,130.85 203.31,125.36 205,125.36 206.56,130.8 208.29,125.36 209.62,125.36 
		207.19,132.25 205.71,132.25 204.09,126.58 202.3,132.25 200.77,132.25 198.5,125.36 	"/>
	<rect x="210.7" y="130.6" class="st0" width="1.52" height="1.64"/>
	<g>
		<path class="st0" d="M213.65,125.33h1.22v-1.44l1.26-0.42v1.85h1.54v0.95h-1.54v4.13c0,0.08,0,0.18,0.01,0.29
			c0.01,0.11,0.05,0.21,0.11,0.31c0.06,0.09,0.15,0.17,0.27,0.23c0.13,0.06,0.3,0.1,0.53,0.1c0.13,0,0.25-0.01,0.37-0.02
			c0.11-0.01,0.2-0.03,0.25-0.05v1c-0.12,0.02-0.27,0.04-0.44,0.05c-0.18,0.02-0.39,0.03-0.63,0.03c-0.59,0-1.03-0.1-1.31-0.31
			c-0.28-0.21-0.42-0.6-0.42-1.16v-4.59h-1.22V125.33z"/>
		<path class="st0" d="M220.77,125.36v4.43c0,0.16,0.01,0.34,0.04,0.52c0.03,0.18,0.1,0.35,0.2,0.5c0.11,0.15,0.26,0.27,0.45,0.37
			c0.19,0.1,0.45,0.14,0.78,0.14c0.32,0,0.63-0.06,0.91-0.18c0.29-0.12,0.52-0.31,0.71-0.59c0.15-0.21,0.23-0.43,0.25-0.67
			c0.02-0.24,0.04-0.44,0.04-0.62v-3.89h1.33v5.6c0,0.04,0,0.1,0,0.21s0.01,0.21,0.02,0.34c0,0.13,0,0.26,0.01,0.39
			c0,0.14,0.01,0.26,0.01,0.34h-1.35l-0.03-1.18c-0.06,0.12-0.15,0.25-0.24,0.4c-0.1,0.15-0.23,0.28-0.39,0.41
			c-0.16,0.12-0.37,0.23-0.63,0.31c-0.25,0.08-0.56,0.13-0.93,0.13c-0.43,0-0.8-0.05-1.11-0.17c-0.31-0.11-0.57-0.27-0.78-0.48
			c-0.2-0.21-0.36-0.45-0.46-0.74c-0.1-0.29-0.15-0.6-0.15-0.94v-4.62H220.77z"/>
	</g>
	<polygon class="st0" points="227.25,125.36 228.69,125.36 230.89,130.82 233.03,125.36 234.46,125.36 231.44,132.25 230.13,132.25 
			"/>
	<rect x="235.39" y="130.6" class="st0" width="1.53" height="1.64"/>
	<g>
		<path class="st0" d="M243.51,127.57c-0.01-0.08-0.03-0.21-0.05-0.37c-0.03-0.16-0.08-0.32-0.18-0.48c-0.1-0.16-0.23-0.3-0.41-0.42
			c-0.18-0.12-0.42-0.18-0.73-0.18c-0.45,0-0.79,0.1-1.04,0.33c-0.24,0.22-0.42,0.47-0.53,0.77c-0.11,0.29-0.17,0.58-0.19,0.87
			c-0.02,0.29-0.03,0.5-0.03,0.62c0,0.36,0.03,0.7,0.08,1.02c0.05,0.32,0.14,0.62,0.27,0.87c0.13,0.26,0.3,0.46,0.52,0.61
			c0.22,0.15,0.5,0.23,0.85,0.23c0.27,0,0.5-0.05,0.69-0.14c0.18-0.09,0.34-0.21,0.45-0.36c0.11-0.15,0.2-0.31,0.26-0.48
			c0.05-0.18,0.08-0.35,0.1-0.52h1.3c-0.02,0.34-0.09,0.66-0.23,0.95c-0.13,0.3-0.32,0.56-0.55,0.78c-0.24,0.22-0.53,0.4-0.86,0.53
			c-0.34,0.13-0.72,0.2-1.14,0.2c-0.12,0-0.27,0-0.45-0.03s-0.37-0.06-0.58-0.12c-0.21-0.06-0.42-0.15-0.63-0.27
			c-0.21-0.12-0.41-0.28-0.6-0.48c-0.1-0.12-0.2-0.26-0.31-0.41c-0.1-0.16-0.19-0.34-0.27-0.55c-0.08-0.21-0.14-0.45-0.19-0.73
			c-0.05-0.28-0.07-0.59-0.07-0.95c0-0.71,0.1-1.31,0.3-1.79c0.2-0.48,0.45-0.86,0.76-1.14c0.31-0.29,0.64-0.49,1.01-0.6
			c0.37-0.12,0.72-0.18,1.07-0.18c0.11,0,0.25,0.01,0.43,0.03c0.18,0.02,0.37,0.06,0.56,0.12c0.2,0.06,0.39,0.14,0.59,0.26
			c0.2,0.11,0.37,0.26,0.53,0.45c0.25,0.29,0.41,0.57,0.46,0.84c0.06,0.27,0.1,0.5,0.11,0.69H243.51z"/>
		<path class="st0" d="M247.74,128.81c0,0.36,0.04,0.7,0.12,1.03c0.08,0.32,0.2,0.61,0.37,0.86c0.17,0.25,0.38,0.46,0.64,0.6
			c0.26,0.15,0.57,0.23,0.94,0.23c0.25,0,0.5-0.05,0.74-0.15c0.25-0.1,0.47-0.25,0.67-0.47c0.2-0.21,0.36-0.5,0.49-0.85
			c0.13-0.36,0.19-0.79,0.19-1.32c0-0.86-0.18-1.51-0.55-1.96c-0.36-0.44-0.85-0.67-1.45-0.67c-0.21,0-0.44,0.04-0.69,0.12
			c-0.25,0.08-0.48,0.22-0.7,0.41c-0.22,0.2-0.4,0.47-0.55,0.82C247.82,127.82,247.74,128.27,247.74,128.81 M246.4,128.89
			c0-0.42,0.05-0.85,0.16-1.29c0.11-0.44,0.3-0.84,0.57-1.2c0.27-0.35,0.63-0.65,1.08-0.88c0.44-0.23,1.01-0.34,1.69-0.34
			c0.68,0,1.25,0.12,1.69,0.36c0.44,0.24,0.78,0.55,1.04,0.91c0.25,0.36,0.42,0.75,0.51,1.17c0.09,0.42,0.14,0.81,0.14,1.17
			c0,0.5-0.07,0.98-0.22,1.43c-0.14,0.44-0.35,0.84-0.64,1.17c-0.29,0.34-0.65,0.6-1.09,0.8c-0.44,0.2-0.95,0.3-1.54,0.3
			c-0.57,0-1.07-0.1-1.49-0.29c-0.42-0.19-0.78-0.44-1.07-0.76c-0.28-0.32-0.49-0.7-0.63-1.14
			C246.47,129.86,246.4,129.39,246.4,128.89"/>
		<path class="st0" d="M255.49,126.28l-0.03-0.92h1.3v1c0.17-0.28,0.34-0.49,0.54-0.65c0.19-0.15,0.39-0.27,0.58-0.35
			c0.19-0.08,0.39-0.13,0.57-0.15c0.18-0.02,0.35-0.03,0.49-0.03c0.39,0,0.7,0.04,0.96,0.13c0.26,0.09,0.47,0.2,0.65,0.32
			c0.18,0.13,0.31,0.27,0.41,0.42c0.09,0.16,0.18,0.29,0.24,0.42c0.05-0.09,0.13-0.21,0.25-0.36c0.11-0.15,0.25-0.29,0.43-0.43
			c0.18-0.14,0.4-0.26,0.66-0.36c0.26-0.1,0.59-0.15,0.98-0.15c0.24,0,0.51,0.03,0.81,0.1c0.29,0.06,0.57,0.18,0.83,0.36
			c0.25,0.18,0.47,0.43,0.63,0.75c0.17,0.32,0.26,0.73,0.26,1.23v4.62h-1.31v-4.41c0-0.31-0.02-0.53-0.07-0.68
			c-0.05-0.16-0.1-0.27-0.16-0.37c-0.11-0.16-0.28-0.3-0.5-0.42c-0.22-0.12-0.49-0.18-0.82-0.18c-0.21,0-0.39,0.03-0.56,0.08
			c-0.16,0.05-0.3,0.12-0.42,0.19c-0.13,0.07-0.22,0.15-0.3,0.23c-0.08,0.08-0.14,0.16-0.19,0.22c-0.08,0.11-0.13,0.23-0.17,0.37
			c-0.04,0.14-0.07,0.28-0.09,0.42c-0.02,0.14-0.03,0.28-0.03,0.4c0,0.12-0.01,0.22-0.01,0.29v3.86h-1.31v-4.56
			c0-0.43-0.12-0.78-0.37-1.07c-0.24-0.29-0.63-0.43-1.14-0.43c-0.22,0-0.42,0.03-0.58,0.09c-0.17,0.06-0.32,0.13-0.44,0.21
			c-0.13,0.08-0.23,0.17-0.31,0.25c-0.09,0.08-0.14,0.15-0.18,0.21c-0.15,0.2-0.23,0.43-0.26,0.68c-0.03,0.26-0.04,0.5-0.04,0.72
			v3.91h-1.3V126.28z"/>
	</g>
	<rect x="174.97" y="137.89" class="st0" width="1.37" height="9.91"/>
	<g>
		<path class="st0" d="M180.47,146.68h1.34c0.48,0,0.94-0.03,1.41-0.09c0.47-0.05,0.86-0.21,1.19-0.46
			c0.31-0.23,0.55-0.51,0.73-0.81c0.18-0.3,0.31-0.6,0.39-0.9c0.08-0.3,0.13-0.57,0.15-0.83c0.02-0.26,0.03-0.46,0.03-0.6
			c0-0.09,0-0.25-0.02-0.49c-0.01-0.24-0.05-0.5-0.11-0.8c-0.06-0.3-0.16-0.6-0.29-0.92s-0.31-0.61-0.54-0.86
			c-0.32-0.34-0.69-0.58-1.1-0.69c-0.42-0.11-0.93-0.17-1.53-0.17h-1.64V146.68z M179.1,137.89h2.87c0.33,0,0.68,0.01,1.03,0.02
			c0.36,0.01,0.71,0.06,1.06,0.14c0.35,0.08,0.68,0.21,1.01,0.38c0.32,0.18,0.63,0.42,0.9,0.74c0.44,0.52,0.75,1.11,0.94,1.75
			c0.18,0.65,0.28,1.31,0.28,2c0,0.54-0.05,1.02-0.15,1.46c-0.1,0.43-0.23,0.81-0.39,1.15c-0.16,0.34-0.34,0.63-0.53,0.87
			c-0.19,0.24-0.39,0.44-0.57,0.58c-0.25,0.2-0.51,0.36-0.78,0.47c-0.27,0.11-0.56,0.19-0.86,0.24c-0.3,0.05-0.62,0.08-0.95,0.09
			c-0.34,0.01-0.68,0.02-1.05,0.02h-2.78V137.89z"/>
		<path class="st0" d="M200.91,141.22c0-0.34-0.05-0.64-0.15-0.9c-0.1-0.26-0.23-0.48-0.41-0.65c-0.18-0.17-0.37-0.3-0.59-0.39
			c-0.22-0.09-0.44-0.13-0.68-0.13c-0.27,0-0.52,0.05-0.73,0.16s-0.39,0.26-0.54,0.44c-0.14,0.18-0.25,0.39-0.32,0.64
			c-0.07,0.25-0.11,0.52-0.11,0.8c0,0.62,0.17,1.1,0.51,1.44c0.34,0.34,0.77,0.51,1.29,0.51c0.54,0,0.97-0.17,1.27-0.53
			C200.76,142.26,200.91,141.79,200.91,141.22 M197.5,145.54c0,0.41,0.12,0.75,0.36,1.01c0.23,0.26,0.62,0.39,1.16,0.39
			c0.52,0,0.92-0.13,1.2-0.4c0.28-0.27,0.49-0.61,0.62-1.01c0.13-0.41,0.2-0.84,0.21-1.28c0.01-0.45,0.01-0.87-0.01-1.24
			c-0.13,0.24-0.28,0.43-0.44,0.58c-0.16,0.16-0.34,0.28-0.52,0.37c-0.19,0.09-0.38,0.16-0.58,0.19c-0.2,0.04-0.39,0.05-0.57,0.05
			c-0.37,0-0.73-0.06-1.09-0.19c-0.35-0.13-0.66-0.32-0.92-0.57c-0.26-0.25-0.48-0.57-0.64-0.94c-0.16-0.38-0.24-0.81-0.24-1.31
			c0-0.55,0.09-1.02,0.27-1.4c0.18-0.39,0.41-0.7,0.7-0.95c0.29-0.25,0.61-0.43,0.97-0.54c0.36-0.12,0.73-0.17,1.1-0.17
			c0.26,0,0.53,0.03,0.83,0.1c0.3,0.06,0.59,0.18,0.87,0.35c0.28,0.17,0.55,0.41,0.79,0.71c0.24,0.31,0.43,0.7,0.57,1.17
			c0.08,0.29,0.15,0.63,0.2,1.01c0.05,0.38,0.08,0.89,0.08,1.54c0,0.24-0.01,0.52-0.01,0.86c-0.01,0.34-0.05,0.69-0.12,1.07
			c-0.07,0.37-0.17,0.74-0.31,1.11c-0.14,0.37-0.34,0.69-0.6,0.99c-0.26,0.29-0.58,0.53-0.99,0.71c-0.4,0.18-0.89,0.28-1.46,0.28
			c-0.32,0-0.65-0.04-0.98-0.11c-0.33-0.08-0.64-0.21-0.91-0.39c-0.28-0.19-0.5-0.44-0.68-0.77c-0.18-0.31-0.28-0.72-0.28-1.22
			H197.5z"/>
		<path class="st0" d="M206.8,139.8c-0.15,0.13-0.31,0.25-0.5,0.38c-0.19,0.13-0.38,0.25-0.57,0.37c-0.2,0.12-0.39,0.23-0.59,0.34
			c-0.2,0.1-0.38,0.2-0.54,0.28v-1.37c0.45-0.24,0.88-0.49,1.29-0.76c0.41-0.26,0.75-0.51,1.02-0.74h1.22v9.5h-1.32V139.8z"/>
		<path class="st0" d="M212.47,143.09c0,0.53,0.03,1.02,0.09,1.48c0.05,0.46,0.16,0.85,0.3,1.19c0.14,0.34,0.33,0.6,0.57,0.79
			c0.24,0.19,0.53,0.29,0.89,0.29c0.39,0,0.72-0.11,0.96-0.34c0.25-0.24,0.44-0.54,0.57-0.91c0.13-0.37,0.22-0.78,0.27-1.22
			c0.05-0.44,0.07-0.88,0.07-1.31c0-0.57-0.03-1.09-0.08-1.56c-0.05-0.47-0.15-0.88-0.29-1.22c-0.14-0.34-0.34-0.6-0.57-0.79
			c-0.24-0.18-0.54-0.28-0.89-0.28c-0.41,0-0.74,0.13-0.99,0.37c-0.25,0.24-0.44,0.56-0.57,0.93c-0.13,0.37-0.21,0.79-0.25,1.25
			C212.49,142.23,212.47,142.67,212.47,143.09 M211.15,143.16c0-0.24,0.01-0.52,0.03-0.86c0.02-0.34,0.06-0.69,0.13-1.07
			c0.08-0.37,0.17-0.75,0.31-1.12c0.13-0.37,0.32-0.7,0.55-1c0.24-0.3,0.53-0.54,0.89-0.72c0.35-0.18,0.78-0.27,1.28-0.27
			c0.47,0,0.88,0.08,1.22,0.23c0.34,0.16,0.63,0.37,0.86,0.63c0.23,0.26,0.43,0.56,0.57,0.89c0.14,0.33,0.25,0.68,0.33,1.04
			c0.08,0.36,0.13,0.71,0.16,1.07c0.03,0.36,0.05,0.68,0.05,0.97c0,1.12-0.11,2.03-0.34,2.7c-0.23,0.68-0.55,1.22-0.99,1.62
			c-0.16,0.16-0.34,0.28-0.51,0.38c-0.18,0.1-0.35,0.17-0.52,0.22c-0.17,0.05-0.32,0.08-0.47,0.1c-0.15,0.02-0.28,0.03-0.39,0.03
			c-0.32,0-0.61-0.04-0.88-0.13c-0.27-0.09-0.5-0.21-0.71-0.34c-0.21-0.14-0.39-0.31-0.56-0.5c-0.16-0.19-0.29-0.39-0.39-0.6
			c-0.16-0.31-0.29-0.72-0.42-1.22C211.22,144.69,211.15,144.01,211.15,143.16"/>
		<path class="st0" d="M224.31,140.66c0-0.44-0.15-0.81-0.46-1.11c-0.31-0.3-0.75-0.44-1.33-0.44c-0.26,0-0.49,0.03-0.71,0.11
			c-0.22,0.07-0.41,0.18-0.57,0.31c-0.16,0.14-0.29,0.3-0.38,0.49c-0.09,0.19-0.13,0.41-0.13,0.65c0,0.23,0.05,0.44,0.13,0.63
			c0.09,0.19,0.22,0.35,0.37,0.49c0.16,0.14,0.34,0.24,0.56,0.31c0.21,0.07,0.44,0.11,0.69,0.11c0.52,0,0.95-0.14,1.3-0.42
			C224.13,141.5,224.31,141.13,224.31,140.66 M220.58,145.14c0,0.18,0.03,0.38,0.1,0.58c0.06,0.21,0.17,0.39,0.32,0.57
			c0.15,0.18,0.35,0.31,0.59,0.42c0.24,0.11,0.55,0.17,0.91,0.17c0.38,0,0.7-0.06,0.94-0.18c0.24-0.12,0.44-0.27,0.58-0.44
			c0.14-0.18,0.24-0.37,0.29-0.58c0.06-0.21,0.08-0.4,0.08-0.58c0-0.53-0.17-0.96-0.52-1.27c-0.35-0.31-0.8-0.47-1.35-0.47
			c-0.29,0-0.56,0.05-0.8,0.13c-0.24,0.1-0.44,0.22-0.62,0.38c-0.17,0.16-0.3,0.35-0.39,0.57
			C220.62,144.66,220.58,144.89,220.58,145.14 M221.3,142.8c-0.63-0.14-1.1-0.41-1.43-0.81c-0.32-0.4-0.48-0.84-0.48-1.31
			c0-0.21,0.04-0.47,0.13-0.76c0.08-0.3,0.24-0.58,0.47-0.85c0.23-0.27,0.54-0.5,0.94-0.7s0.91-0.29,1.53-0.29
			c0.5,0,0.94,0.06,1.33,0.19c0.39,0.13,0.72,0.31,0.99,0.54c0.27,0.23,0.47,0.5,0.61,0.8c0.14,0.31,0.22,0.65,0.22,1.01
			c0,0.24-0.04,0.47-0.12,0.7c-0.07,0.23-0.19,0.44-0.35,0.64c-0.16,0.19-0.35,0.36-0.6,0.51c-0.25,0.14-0.53,0.24-0.86,0.31
			c0.13,0.03,0.32,0.1,0.55,0.18c0.23,0.08,0.46,0.21,0.68,0.39c0.23,0.18,0.42,0.42,0.58,0.7c0.16,0.29,0.25,0.67,0.25,1.12
			c0,0.33-0.06,0.66-0.18,0.99c-0.12,0.33-0.31,0.63-0.57,0.89c-0.26,0.26-0.6,0.48-1.02,0.65c-0.42,0.17-0.92,0.26-1.51,0.26
			c-0.41,0-0.84-0.05-1.28-0.16c-0.44-0.1-0.83-0.32-1.18-0.63c-0.26-0.24-0.46-0.52-0.61-0.86c-0.15-0.33-0.23-0.68-0.23-1.04
			c0-0.32,0.06-0.63,0.18-0.94c0.12-0.31,0.31-0.57,0.54-0.8c0.23-0.23,0.47-0.39,0.7-0.48C220.87,142.96,221.09,142.87,221.3,142.8
			"/>
		<path class="st0" d="M230.8,146.96c0.21,0,0.43-0.04,0.65-0.12c0.21-0.08,0.42-0.21,0.6-0.37c0.18-0.18,0.32-0.4,0.43-0.68
			c0.11-0.27,0.16-0.6,0.16-0.99c0-0.16-0.02-0.37-0.05-0.61c-0.04-0.24-0.12-0.47-0.24-0.7c-0.13-0.22-0.3-0.41-0.54-0.57
			c-0.24-0.16-0.55-0.24-0.94-0.24c-0.32,0-0.6,0.06-0.84,0.18c-0.23,0.12-0.43,0.28-0.59,0.48c-0.16,0.2-0.27,0.43-0.35,0.68
			c-0.08,0.25-0.11,0.51-0.11,0.79c0,0.31,0.05,0.6,0.13,0.86c0.1,0.26,0.22,0.49,0.38,0.68c0.16,0.19,0.35,0.34,0.57,0.45
			C230.28,146.91,230.53,146.96,230.8,146.96 M232.42,140.56c0-0.28-0.05-0.5-0.15-0.69c-0.1-0.18-0.21-0.33-0.36-0.44
			c-0.14-0.11-0.3-0.19-0.47-0.23c-0.17-0.04-0.33-0.06-0.47-0.06c-0.69,0-1.19,0.3-1.51,0.9c-0.33,0.6-0.52,1.54-0.58,2.81
			c0.07-0.11,0.16-0.23,0.28-0.37c0.1-0.13,0.25-0.27,0.42-0.39c0.17-0.13,0.38-0.23,0.62-0.31c0.24-0.09,0.54-0.13,0.89-0.13
			c0.39,0,0.75,0.06,1.1,0.19c0.35,0.13,0.65,0.32,0.91,0.57c0.26,0.26,0.47,0.57,0.62,0.96c0.16,0.38,0.23,0.82,0.23,1.33
			c0,0.55-0.09,1.03-0.27,1.44c-0.18,0.42-0.43,0.76-0.72,1.04c-0.3,0.28-0.64,0.49-1.02,0.62c-0.38,0.14-0.78,0.21-1.19,0.21
			c-0.47,0-0.91-0.09-1.33-0.27c-0.42-0.18-0.76-0.43-1.02-0.76c-0.18-0.23-0.32-0.48-0.43-0.77c-0.11-0.29-0.21-0.57-0.27-0.88
			c-0.06-0.3-0.11-0.61-0.13-0.93c-0.02-0.31-0.03-0.63-0.03-0.92c0-0.35,0.02-0.72,0.05-1.12c0.03-0.4,0.1-0.8,0.19-1.19
			c0.09-0.4,0.22-0.78,0.38-1.15c0.16-0.37,0.38-0.69,0.64-0.97c0.26-0.29,0.57-0.51,0.94-0.68c0.36-0.17,0.8-0.26,1.3-0.26
			c0.31,0,0.59,0.03,0.84,0.09c0.25,0.06,0.46,0.13,0.65,0.23c0.18,0.09,0.34,0.19,0.47,0.29c0.13,0.11,0.24,0.21,0.32,0.3
			c0.12,0.13,0.22,0.28,0.29,0.42c0.07,0.15,0.12,0.29,0.15,0.42c0.03,0.13,0.05,0.26,0.06,0.37c0.01,0.12,0.01,0.23,0.01,0.32
			H232.42z"/>
		<path class="st0" d="M236.99,145.36c-0.01,0.46,0.13,0.83,0.43,1.12c0.29,0.29,0.73,0.43,1.32,0.43c0.33,0,0.62-0.05,0.86-0.15
			c0.24-0.1,0.44-0.22,0.59-0.38c0.15-0.16,0.26-0.34,0.34-0.55c0.07-0.2,0.11-0.41,0.11-0.62c0-0.25-0.03-0.47-0.11-0.66
			c-0.07-0.19-0.18-0.36-0.3-0.49c-0.13-0.14-0.27-0.25-0.44-0.34c-0.16-0.09-0.34-0.15-0.51-0.19c-0.25-0.05-0.47-0.07-0.67-0.08
			c-0.2,0-0.41,0-0.65,0.01v-1.11c0.24,0.02,0.5,0.02,0.79-0.01c0.29-0.03,0.57-0.09,0.83-0.21c0.26-0.11,0.48-0.29,0.65-0.52
			c0.18-0.23,0.26-0.53,0.26-0.91c0-0.53-0.16-0.91-0.48-1.15c-0.32-0.23-0.73-0.35-1.2-0.35c-0.18,0-0.37,0.03-0.56,0.07
			c-0.19,0.05-0.36,0.13-0.53,0.24c-0.17,0.11-0.31,0.27-0.43,0.46c-0.12,0.19-0.19,0.44-0.22,0.73h-1.37
			c0.02-0.59,0.15-1.06,0.41-1.4c0.25-0.35,0.54-0.61,0.87-0.78c0.33-0.17,0.66-0.29,1-0.34c0.34-0.05,0.6-0.08,0.8-0.08
			c0.52,0,0.97,0.07,1.36,0.21c0.38,0.14,0.7,0.34,0.96,0.57c0.26,0.24,0.46,0.52,0.59,0.82c0.13,0.31,0.19,0.63,0.19,0.96
			c0,0.19-0.03,0.4-0.09,0.63c-0.06,0.23-0.16,0.45-0.31,0.66c-0.15,0.21-0.34,0.4-0.58,0.57c-0.24,0.17-0.55,0.29-0.91,0.38
			c0.5,0.08,0.9,0.23,1.17,0.45c0.28,0.23,0.48,0.47,0.6,0.73c0.12,0.26,0.2,0.5,0.22,0.72c0.03,0.22,0.03,0.35,0.03,0.39
			c0,0.33-0.07,0.66-0.21,1c-0.13,0.33-0.34,0.63-0.62,0.9c-0.28,0.27-0.62,0.49-1.03,0.65c-0.42,0.16-0.89,0.25-1.44,0.25
			c-0.51,0-0.99-0.08-1.46-0.24c-0.47-0.16-0.85-0.41-1.15-0.76c-0.14-0.15-0.24-0.3-0.32-0.46c-0.07-0.16-0.13-0.31-0.16-0.46
			c-0.04-0.15-0.06-0.29-0.07-0.42c-0.01-0.13-0.02-0.25-0.02-0.35H236.99z"/>
		<path class="st0" d="M245.14,145.36c-0.01,0.46,0.13,0.83,0.42,1.12c0.3,0.29,0.74,0.43,1.32,0.43c0.34,0,0.62-0.05,0.86-0.15
			c0.24-0.1,0.44-0.22,0.59-0.38c0.15-0.16,0.26-0.34,0.34-0.55c0.08-0.2,0.11-0.41,0.11-0.62c0-0.25-0.04-0.47-0.11-0.66
			c-0.08-0.19-0.18-0.36-0.3-0.49c-0.13-0.14-0.28-0.25-0.44-0.34c-0.16-0.09-0.33-0.15-0.51-0.19c-0.25-0.05-0.47-0.07-0.67-0.08
			c-0.19,0-0.41,0-0.65,0.01v-1.11c0.23,0.02,0.5,0.02,0.79-0.01c0.29-0.03,0.57-0.09,0.83-0.21c0.26-0.11,0.47-0.29,0.65-0.52
			c0.18-0.23,0.26-0.53,0.26-0.91c0-0.53-0.16-0.91-0.49-1.15c-0.32-0.23-0.72-0.35-1.2-0.35c-0.18,0-0.37,0.03-0.56,0.07
			c-0.19,0.05-0.37,0.13-0.53,0.24c-0.17,0.11-0.31,0.27-0.43,0.46c-0.12,0.19-0.19,0.44-0.22,0.73h-1.37
			c0.02-0.59,0.15-1.06,0.4-1.4c0.25-0.35,0.54-0.61,0.87-0.78c0.33-0.17,0.66-0.29,1-0.34c0.34-0.05,0.6-0.08,0.8-0.08
			c0.52,0,0.97,0.07,1.36,0.21c0.39,0.14,0.7,0.34,0.97,0.57c0.26,0.24,0.46,0.52,0.58,0.82c0.13,0.31,0.19,0.63,0.19,0.96
			c0,0.19-0.03,0.4-0.09,0.63c-0.06,0.23-0.16,0.45-0.31,0.66c-0.15,0.21-0.34,0.4-0.59,0.57c-0.24,0.17-0.55,0.29-0.91,0.38
			c0.5,0.08,0.89,0.23,1.17,0.45c0.28,0.23,0.48,0.47,0.6,0.73c0.13,0.26,0.2,0.5,0.22,0.72c0.02,0.22,0.03,0.35,0.03,0.39
			c0,0.33-0.07,0.66-0.21,1c-0.14,0.33-0.35,0.63-0.62,0.9c-0.28,0.27-0.62,0.49-1.03,0.65c-0.41,0.16-0.89,0.25-1.44,0.25
			c-0.5,0-0.99-0.08-1.46-0.24c-0.47-0.16-0.85-0.41-1.15-0.76c-0.13-0.15-0.24-0.3-0.31-0.46c-0.08-0.16-0.13-0.31-0.16-0.46
			c-0.04-0.15-0.06-0.29-0.07-0.42c-0.01-0.13-0.02-0.25-0.02-0.35H245.14z"/>
		<path class="st0" d="M256.78,141.22c0-0.34-0.05-0.64-0.15-0.9c-0.1-0.26-0.24-0.48-0.42-0.65c-0.17-0.17-0.37-0.3-0.59-0.39
			s-0.44-0.13-0.67-0.13c-0.28,0-0.52,0.05-0.73,0.16c-0.21,0.11-0.39,0.26-0.54,0.44c-0.14,0.18-0.25,0.39-0.32,0.64
			c-0.08,0.25-0.11,0.52-0.11,0.8c0,0.62,0.17,1.1,0.51,1.44c0.34,0.34,0.77,0.51,1.29,0.51c0.54,0,0.96-0.17,1.27-0.53
			C256.63,142.26,256.78,141.79,256.78,141.22 M253.38,145.54c0,0.41,0.12,0.75,0.35,1.01c0.24,0.26,0.63,0.39,1.16,0.39
			c0.52,0,0.92-0.13,1.2-0.4c0.28-0.27,0.49-0.61,0.62-1.01c0.13-0.41,0.19-0.84,0.21-1.28c0.01-0.45,0.01-0.87-0.01-1.24
			c-0.13,0.24-0.27,0.43-0.44,0.58c-0.16,0.16-0.34,0.28-0.53,0.37c-0.18,0.09-0.38,0.16-0.58,0.19c-0.2,0.04-0.39,0.05-0.57,0.05
			c-0.37,0-0.73-0.06-1.09-0.19c-0.35-0.13-0.65-0.32-0.92-0.57c-0.26-0.25-0.48-0.57-0.64-0.94c-0.16-0.38-0.24-0.81-0.24-1.31
			c0-0.55,0.09-1.02,0.27-1.4c0.18-0.39,0.41-0.7,0.7-0.95c0.29-0.25,0.61-0.43,0.97-0.54c0.36-0.12,0.73-0.17,1.11-0.17
			c0.26,0,0.53,0.03,0.83,0.1c0.3,0.06,0.59,0.18,0.87,0.35c0.29,0.17,0.55,0.41,0.79,0.71c0.24,0.31,0.43,0.7,0.57,1.17
			c0.08,0.29,0.15,0.63,0.2,1.01c0.05,0.38,0.08,0.89,0.08,1.54c0,0.24,0,0.52-0.01,0.86c-0.01,0.34-0.05,0.69-0.11,1.07
			c-0.07,0.37-0.18,0.74-0.31,1.11c-0.14,0.37-0.34,0.69-0.6,0.99c-0.26,0.29-0.58,0.53-0.99,0.71c-0.4,0.18-0.89,0.28-1.47,0.28
			c-0.32,0-0.65-0.04-0.98-0.11c-0.34-0.08-0.64-0.21-0.91-0.39c-0.28-0.19-0.5-0.44-0.68-0.77c-0.18-0.31-0.27-0.72-0.28-1.22
			H253.38z"/>
		<path class="st0" d="M261.64,145.55c0.01,0.24,0.06,0.44,0.16,0.61c0.1,0.17,0.22,0.31,0.37,0.42c0.15,0.11,0.32,0.19,0.5,0.24
			c0.18,0.05,0.37,0.08,0.55,0.08c0.41,0,0.75-0.08,0.99-0.25c0.26-0.17,0.44-0.37,0.57-0.6c0.13-0.24,0.21-0.48,0.26-0.72
			c0.04-0.25,0.06-0.45,0.06-0.6c0-0.65-0.16-1.15-0.48-1.51c-0.33-0.36-0.77-0.53-1.31-0.53c-0.28,0-0.52,0.05-0.73,0.13
			c-0.22,0.09-0.39,0.21-0.54,0.36s-0.25,0.29-0.3,0.42c-0.05,0.14-0.1,0.26-0.14,0.37h-1.25l0.25-5.65h5.34v1.11h-4.15l-0.18,3.07
			c0.07-0.07,0.16-0.16,0.29-0.26c0.11-0.1,0.25-0.2,0.41-0.29c0.16-0.09,0.35-0.17,0.57-0.24c0.22-0.06,0.47-0.1,0.74-0.1
			c0.48,0,0.89,0.09,1.25,0.26c0.36,0.17,0.65,0.41,0.89,0.69c0.23,0.29,0.41,0.62,0.53,0.99c0.12,0.38,0.18,0.77,0.18,1.18
			c0,0.46-0.08,0.89-0.24,1.3c-0.16,0.39-0.39,0.74-0.68,1.04c-0.29,0.3-0.65,0.53-1.06,0.7c-0.42,0.16-0.89,0.24-1.41,0.24
			c-0.39,0-0.74-0.05-1.08-0.16c-0.34-0.11-0.63-0.26-0.89-0.47c-0.26-0.21-0.46-0.46-0.61-0.78c-0.15-0.31-0.24-0.67-0.26-1.07
			H261.64z"/>
		<path class="st0" d="M269.44,143.09c0,0.53,0.03,1.02,0.09,1.48c0.06,0.46,0.16,0.85,0.3,1.19c0.14,0.34,0.33,0.6,0.57,0.79
			c0.24,0.19,0.53,0.29,0.89,0.29c0.39,0,0.71-0.11,0.97-0.34c0.24-0.24,0.43-0.54,0.57-0.91c0.13-0.37,0.22-0.78,0.27-1.22
			c0.05-0.44,0.07-0.88,0.07-1.31c0-0.57-0.03-1.09-0.08-1.56c-0.05-0.47-0.15-0.88-0.29-1.22c-0.14-0.34-0.33-0.6-0.57-0.79
			c-0.24-0.18-0.53-0.28-0.89-0.28c-0.41,0-0.74,0.13-0.99,0.37c-0.25,0.24-0.44,0.56-0.57,0.93c-0.13,0.37-0.21,0.79-0.25,1.25
			C269.47,142.23,269.44,142.67,269.44,143.09 M268.13,143.16c0-0.24,0.01-0.52,0.03-0.86c0.02-0.34,0.06-0.69,0.13-1.07
			c0.07-0.37,0.17-0.75,0.3-1.12c0.13-0.37,0.32-0.7,0.56-1c0.23-0.3,0.53-0.54,0.89-0.72c0.35-0.18,0.78-0.27,1.28-0.27
			c0.47,0,0.88,0.08,1.22,0.23c0.34,0.16,0.63,0.37,0.86,0.63c0.24,0.26,0.43,0.56,0.57,0.89c0.14,0.33,0.25,0.68,0.33,1.04
			c0.08,0.36,0.13,0.71,0.16,1.07c0.03,0.36,0.04,0.68,0.04,0.97c0,1.12-0.11,2.03-0.34,2.7c-0.22,0.68-0.55,1.22-0.98,1.62
			c-0.16,0.16-0.34,0.28-0.51,0.38c-0.18,0.1-0.36,0.17-0.52,0.22c-0.17,0.05-0.33,0.08-0.47,0.1c-0.15,0.02-0.27,0.03-0.38,0.03
			c-0.32,0-0.61-0.04-0.88-0.13c-0.27-0.09-0.51-0.21-0.72-0.34c-0.21-0.14-0.39-0.31-0.55-0.5c-0.16-0.19-0.29-0.39-0.39-0.6
			c-0.16-0.31-0.3-0.72-0.43-1.22C268.19,144.69,268.13,144.01,268.13,143.16"/>
	</g>
	<polygon class="st0" points="175.33,7.79 178.4,7.79 181.95,18.14 185.58,7.79 188.45,7.79 188.45,20.34 186.75,20.34 186.75,9.04 
		182.63,20.34 180.97,20.34 177.01,9.12 177.01,20.34 175.33,20.34 	"/>
	<g>
		<path class="st0" d="M196.85,16.1c-0.15-0.02-0.29-0.04-0.43-0.04c-0.14,0-0.31-0.01-0.5-0.01c-0.16,0-0.42,0.01-0.76,0.03
			c-0.35,0.02-0.7,0.08-1.05,0.19c-0.36,0.11-0.66,0.29-0.93,0.53c-0.27,0.24-0.4,0.58-0.4,1.02c0,0.14,0.03,0.3,0.08,0.47
			c0.05,0.18,0.15,0.34,0.28,0.5c0.13,0.16,0.31,0.29,0.55,0.39c0.23,0.1,0.53,0.16,0.9,0.16c0.84,0,1.46-0.31,1.86-0.94
			c0.09-0.15,0.16-0.29,0.22-0.43c0.05-0.14,0.09-0.3,0.11-0.47c0.02-0.18,0.04-0.37,0.05-0.6C196.83,16.67,196.84,16.4,196.85,16.1
			 M197.04,20.34c-0.06-0.22-0.1-0.43-0.12-0.64c-0.03-0.21-0.04-0.43-0.04-0.66c-0.19,0.36-0.41,0.65-0.65,0.85
			c-0.24,0.21-0.48,0.37-0.73,0.48c-0.24,0.11-0.48,0.18-0.7,0.21c-0.23,0.03-0.43,0.04-0.62,0.04c-0.5,0-0.94-0.07-1.32-0.2
			c-0.38-0.13-0.7-0.32-0.97-0.55c-0.26-0.23-0.46-0.5-0.59-0.82c-0.13-0.31-0.2-0.65-0.2-1.01c0-0.17,0.02-0.37,0.06-0.59
			c0.04-0.22,0.12-0.44,0.23-0.67c0.11-0.23,0.26-0.45,0.46-0.68c0.2-0.22,0.46-0.43,0.78-0.62c0.23-0.13,0.49-0.23,0.76-0.3
			c0.28-0.08,0.56-0.13,0.84-0.18c0.28-0.04,0.54-0.07,0.79-0.08c0.25-0.01,0.46-0.02,0.64-0.02c0.21,0,0.39,0,0.55,0.01
			c0.16,0,0.37,0.02,0.63,0.04c0-0.26,0-0.5-0.01-0.7c0-0.2-0.02-0.37-0.03-0.52c-0.02-0.15-0.05-0.28-0.09-0.39
			c-0.04-0.12-0.1-0.22-0.18-0.31c-0.16-0.22-0.4-0.37-0.7-0.45c-0.31-0.08-0.57-0.13-0.81-0.13c-0.42,0-0.75,0.06-0.98,0.18
			c-0.23,0.12-0.4,0.26-0.52,0.42c-0.11,0.16-0.19,0.33-0.22,0.5c-0.03,0.17-0.04,0.29-0.04,0.37h-1.64
			c0.03-0.23,0.07-0.49,0.13-0.78c0.06-0.28,0.22-0.57,0.48-0.88c0.16-0.18,0.36-0.34,0.59-0.46c0.23-0.12,0.47-0.22,0.72-0.29
			c0.25-0.07,0.5-0.12,0.76-0.15c0.26-0.03,0.5-0.05,0.74-0.05c0.31,0,0.63,0.03,0.94,0.08c0.32,0.05,0.62,0.13,0.9,0.23
			c0.28,0.1,0.52,0.23,0.75,0.4c0.22,0.16,0.39,0.36,0.5,0.57c0.14,0.27,0.22,0.51,0.25,0.72c0.03,0.21,0.05,0.42,0.05,0.62
			l-0.07,4.17c0,0.03,0,0.13,0.01,0.28c0,0.15,0.01,0.33,0.02,0.54c0,0.21,0.02,0.43,0.03,0.68c0.02,0.24,0.05,0.48,0.08,0.7H197.04
			z"/>
		<path class="st0" d="M201.51,12.63l-0.02-1.01h1.63l0.02,1.41c0.05-0.09,0.13-0.23,0.23-0.4c0.11-0.18,0.27-0.35,0.49-0.52
			c0.21-0.18,0.49-0.33,0.83-0.46c0.34-0.13,0.76-0.2,1.25-0.2c0.19,0,0.47,0.03,0.82,0.09c0.35,0.06,0.7,0.19,1.05,0.39
			c0.35,0.21,0.65,0.5,0.91,0.9c0.25,0.39,0.38,0.92,0.38,1.6v5.93h-1.67V14.8c0-0.29-0.03-0.56-0.09-0.82
			c-0.06-0.26-0.18-0.48-0.38-0.68c-0.21-0.19-0.45-0.34-0.72-0.44c-0.27-0.1-0.55-0.15-0.83-0.15c-0.3,0-0.59,0.05-0.86,0.16
			c-0.27,0.1-0.51,0.26-0.72,0.49c-0.21,0.22-0.38,0.49-0.5,0.82c-0.13,0.32-0.19,0.7-0.19,1.15v5.02h-1.63V12.63z"/>
		<path class="st0" d="M217.32,16.1c-0.15-0.02-0.29-0.04-0.43-0.04c-0.14,0-0.31-0.01-0.5-0.01c-0.16,0-0.42,0.01-0.76,0.03
			c-0.35,0.02-0.7,0.08-1.05,0.19c-0.35,0.11-0.66,0.29-0.93,0.53c-0.26,0.24-0.4,0.58-0.4,1.02c0,0.14,0.03,0.3,0.08,0.47
			c0.05,0.18,0.15,0.34,0.28,0.5c0.13,0.16,0.31,0.29,0.55,0.39c0.23,0.1,0.53,0.16,0.91,0.16c0.84,0,1.45-0.31,1.86-0.94
			c0.09-0.15,0.16-0.29,0.22-0.43c0.05-0.14,0.09-0.3,0.11-0.47c0.02-0.18,0.04-0.37,0.05-0.6C217.3,16.67,217.3,16.4,217.32,16.1
			 M217.51,20.34c-0.06-0.22-0.1-0.43-0.12-0.64c-0.03-0.21-0.03-0.43-0.03-0.66c-0.2,0.36-0.42,0.65-0.65,0.85
			c-0.24,0.21-0.48,0.37-0.72,0.48c-0.24,0.11-0.48,0.18-0.7,0.21c-0.23,0.03-0.43,0.04-0.62,0.04c-0.5,0-0.94-0.07-1.32-0.2
			c-0.38-0.13-0.7-0.32-0.97-0.55c-0.26-0.23-0.46-0.5-0.59-0.82c-0.13-0.31-0.2-0.65-0.2-1.01c0-0.17,0.02-0.37,0.06-0.59
			c0.04-0.22,0.12-0.44,0.23-0.67c0.11-0.23,0.26-0.45,0.46-0.68c0.19-0.22,0.46-0.43,0.78-0.62c0.23-0.13,0.49-0.23,0.76-0.3
			c0.28-0.08,0.56-0.13,0.84-0.18c0.28-0.04,0.54-0.07,0.79-0.08c0.25-0.01,0.46-0.02,0.64-0.02c0.21,0,0.39,0,0.55,0.01
			c0.16,0,0.37,0.02,0.63,0.04c0-0.26,0-0.5-0.01-0.7c0-0.2-0.02-0.37-0.03-0.52c-0.02-0.15-0.05-0.28-0.09-0.39
			c-0.04-0.12-0.1-0.22-0.18-0.31c-0.16-0.22-0.4-0.37-0.7-0.45c-0.31-0.08-0.57-0.13-0.81-0.13c-0.42,0-0.74,0.06-0.98,0.18
			c-0.23,0.12-0.4,0.26-0.52,0.42c-0.11,0.16-0.18,0.33-0.22,0.5c-0.03,0.17-0.04,0.29-0.04,0.37h-1.64
			c0.03-0.23,0.07-0.49,0.13-0.78c0.06-0.28,0.22-0.57,0.48-0.88c0.16-0.18,0.36-0.34,0.59-0.46c0.23-0.12,0.47-0.22,0.72-0.29
			c0.25-0.07,0.5-0.12,0.76-0.15c0.26-0.03,0.5-0.05,0.74-0.05c0.31,0,0.63,0.03,0.94,0.08c0.32,0.05,0.62,0.13,0.9,0.23
			c0.28,0.1,0.52,0.23,0.75,0.4c0.22,0.16,0.39,0.36,0.5,0.57c0.14,0.27,0.22,0.51,0.25,0.72c0.03,0.21,0.05,0.42,0.05,0.62
			l-0.07,4.17c0,0.03,0,0.13,0.01,0.28c0,0.15,0.01,0.33,0.02,0.54c0,0.21,0.02,0.43,0.03,0.68c0.02,0.24,0.05,0.48,0.08,0.7H217.51
			z"/>
		<path class="st0" d="M225.5,18.99c0.49,0,0.88-0.08,1.17-0.23c0.29-0.16,0.54-0.37,0.73-0.63c0.08-0.12,0.16-0.24,0.24-0.37
			c0.08-0.13,0.14-0.28,0.19-0.47c0.05-0.18,0.09-0.41,0.12-0.68c0.03-0.26,0.04-0.6,0.04-0.99c0-0.56-0.06-1-0.17-1.33
			c-0.12-0.33-0.29-0.61-0.5-0.85c-0.22-0.23-0.5-0.42-0.83-0.56c-0.33-0.14-0.68-0.21-1.05-0.21c-0.52,0-0.94,0.12-1.25,0.35
			c-0.31,0.23-0.54,0.51-0.7,0.84c-0.16,0.33-0.27,0.68-0.32,1.04c-0.05,0.37-0.08,0.69-0.08,0.97c0,0.34,0.03,0.69,0.1,1.05
			c0.06,0.37,0.18,0.7,0.36,1.01c0.17,0.31,0.42,0.56,0.73,0.76C224.59,18.89,225,18.99,225.5,18.99 M223.6,21.02
			c0.01,0.24,0.05,0.47,0.12,0.68c0.07,0.21,0.18,0.39,0.34,0.54s0.36,0.27,0.62,0.36c0.26,0.09,0.57,0.13,0.96,0.13
			c0.57,0,1.01-0.1,1.32-0.29c0.31-0.2,0.54-0.47,0.68-0.83c0.15-0.35,0.23-0.78,0.26-1.27c0.03-0.49,0.05-1.03,0.05-1.62
			c-0.17,0.36-0.4,0.64-0.67,0.84c-0.27,0.2-0.55,0.34-0.83,0.44c-0.29,0.1-0.55,0.16-0.8,0.18c-0.25,0.02-0.44,0.03-0.56,0.03
			c-0.2,0-0.42-0.01-0.65-0.04c-0.23-0.03-0.48-0.08-0.71-0.16c-0.23-0.07-0.47-0.18-0.7-0.32c-0.22-0.14-0.43-0.32-0.61-0.56
			c-0.37-0.44-0.63-0.94-0.78-1.49c-0.14-0.55-0.22-1.13-0.22-1.72c0-0.74,0.1-1.39,0.31-1.94c0.2-0.55,0.48-1.01,0.84-1.37
			c0.35-0.37,0.76-0.64,1.23-0.82c0.47-0.18,0.97-0.27,1.51-0.27c0.44,0,0.81,0.05,1.12,0.14c0.31,0.09,0.57,0.21,0.78,0.35
			c0.21,0.14,0.39,0.29,0.51,0.43c0.13,0.15,0.23,0.29,0.33,0.4l0.02-1.2h1.6l-0.04,1.58l-0.02,5.46c0,0.52,0,0.97-0.02,1.36
			c-0.01,0.38-0.03,0.71-0.06,0.99c-0.03,0.28-0.08,0.52-0.13,0.72c-0.06,0.2-0.13,0.39-0.21,0.55c-0.19,0.35-0.42,0.63-0.71,0.84
			c-0.29,0.21-0.6,0.37-0.93,0.47c-0.33,0.1-0.67,0.17-1.02,0.21c-0.35,0.03-0.68,0.05-0.98,0.05c-0.58,0-1.07-0.04-1.48-0.13
			c-0.41-0.09-0.74-0.2-1.01-0.34c-0.26-0.14-0.47-0.3-0.63-0.5c-0.15-0.19-0.27-0.39-0.35-0.6c-0.08-0.21-0.13-0.42-0.16-0.63
			c-0.02-0.21-0.04-0.42-0.05-0.62H223.6z"/>
		<path class="st0" d="M238.44,15.13c0-0.21-0.02-0.46-0.05-0.76c-0.03-0.29-0.12-0.57-0.27-0.84c-0.14-0.27-0.36-0.5-0.65-0.69
			c-0.29-0.19-0.68-0.29-1.18-0.29c-0.27,0-0.54,0.04-0.82,0.13c-0.28,0.08-0.53,0.23-0.75,0.43c-0.23,0.21-0.42,0.47-0.57,0.79
			c-0.15,0.32-0.23,0.73-0.24,1.22H238.44z M233.83,16.28c-0.01,0.45,0.03,0.86,0.12,1.25c0.09,0.38,0.24,0.71,0.44,0.99
			c0.2,0.28,0.46,0.5,0.78,0.65c0.32,0.16,0.7,0.23,1.16,0.23c0.53,0,0.99-0.14,1.37-0.43c0.38-0.29,0.61-0.74,0.68-1.36h1.64
			c-0.03,0.22-0.08,0.5-0.16,0.83c-0.08,0.33-0.28,0.66-0.59,1c-0.1,0.1-0.22,0.23-0.38,0.37c-0.16,0.14-0.37,0.26-0.61,0.38
			c-0.24,0.12-0.53,0.21-0.86,0.3c-0.33,0.08-0.71,0.12-1.15,0.12c-1.38,0-2.4-0.4-3.06-1.2c-0.66-0.8-0.99-1.89-0.99-3.27
			c0-0.86,0.11-1.64,0.35-2.34c0.23-0.7,0.69-1.29,1.37-1.77c0.21-0.15,0.42-0.26,0.65-0.35c0.23-0.08,0.45-0.14,0.66-0.19
			c0.21-0.05,0.41-0.08,0.6-0.09c0.19-0.01,0.34-0.02,0.47-0.02c0.65,0,1.2,0.09,1.64,0.26c0.44,0.18,0.81,0.4,1.09,0.69
			c0.28,0.28,0.49,0.6,0.64,0.96c0.15,0.35,0.26,0.71,0.32,1.07c0.07,0.37,0.1,0.72,0.1,1.05v0.85H233.83z"/>
		<path class="st0" d="M242.7,12.78l-0.03-1.17h1.65v1.27c0.21-0.35,0.44-0.62,0.68-0.82c0.24-0.2,0.49-0.34,0.74-0.44
			c0.25-0.1,0.49-0.16,0.72-0.19c0.23-0.03,0.44-0.05,0.63-0.05c0.49,0,0.89,0.06,1.22,0.17c0.32,0.11,0.6,0.25,0.82,0.41
			c0.22,0.16,0.39,0.34,0.51,0.53c0.12,0.19,0.22,0.37,0.3,0.53c0.07-0.12,0.18-0.27,0.31-0.45c0.14-0.18,0.32-0.37,0.55-0.54
			c0.22-0.18,0.5-0.33,0.84-0.45c0.34-0.13,0.75-0.19,1.23-0.19c0.31,0,0.66,0.04,1.03,0.12c0.37,0.08,0.72,0.23,1.04,0.46
			c0.32,0.23,0.59,0.54,0.81,0.95c0.21,0.41,0.32,0.93,0.32,1.57v5.86h-1.65v-5.6c0-0.38-0.03-0.67-0.09-0.86
			c-0.05-0.19-0.13-0.34-0.21-0.46c-0.14-0.2-0.35-0.37-0.63-0.53c-0.28-0.16-0.63-0.23-1.04-0.23c-0.27,0-0.5,0.03-0.7,0.1
			c-0.2,0.07-0.38,0.15-0.54,0.24c-0.16,0.09-0.29,0.19-0.38,0.29c-0.1,0.1-0.18,0.2-0.24,0.28c-0.09,0.14-0.17,0.29-0.22,0.47
			c-0.05,0.18-0.09,0.35-0.11,0.53c-0.02,0.18-0.04,0.34-0.04,0.5c-0.01,0.16-0.01,0.28-0.01,0.37v4.88h-1.65v-5.77
			c0-0.55-0.16-1-0.47-1.37c-0.31-0.37-0.79-0.55-1.44-0.55c-0.28,0-0.52,0.04-0.74,0.11c-0.21,0.08-0.4,0.16-0.55,0.27
			c-0.16,0.1-0.29,0.21-0.39,0.31c-0.1,0.1-0.18,0.19-0.23,0.26c-0.18,0.26-0.3,0.55-0.33,0.87c-0.03,0.32-0.05,0.63-0.05,0.9v4.96
			h-1.65V12.78z"/>
		<path class="st0" d="M264.89,15.13c0-0.21-0.01-0.46-0.05-0.76c-0.03-0.29-0.12-0.57-0.27-0.84c-0.15-0.27-0.36-0.5-0.65-0.69
			c-0.29-0.19-0.68-0.29-1.18-0.29c-0.27,0-0.54,0.04-0.82,0.13c-0.28,0.08-0.53,0.23-0.76,0.43c-0.23,0.21-0.42,0.47-0.56,0.79
			c-0.16,0.32-0.23,0.73-0.25,1.22H264.89z M260.29,16.28c-0.01,0.45,0.03,0.86,0.12,1.25c0.09,0.38,0.24,0.71,0.44,0.99
			c0.2,0.28,0.46,0.5,0.78,0.65c0.32,0.16,0.7,0.23,1.15,0.23c0.54,0,0.99-0.14,1.38-0.43c0.38-0.29,0.6-0.74,0.68-1.36h1.64
			c-0.03,0.22-0.08,0.5-0.16,0.83c-0.08,0.33-0.28,0.66-0.59,1c-0.09,0.1-0.22,0.23-0.38,0.37c-0.16,0.14-0.37,0.26-0.61,0.38
			c-0.24,0.12-0.53,0.21-0.86,0.3c-0.33,0.08-0.71,0.12-1.15,0.12c-1.38,0-2.4-0.4-3.06-1.2c-0.66-0.8-0.99-1.89-0.99-3.27
			c0-0.86,0.11-1.64,0.34-2.34c0.23-0.7,0.69-1.29,1.38-1.77c0.21-0.15,0.42-0.26,0.65-0.35c0.23-0.08,0.44-0.14,0.66-0.19
			c0.21-0.05,0.42-0.08,0.6-0.09c0.19-0.01,0.34-0.02,0.47-0.02c0.65,0,1.2,0.09,1.64,0.26c0.44,0.18,0.81,0.4,1.09,0.69
			c0.28,0.28,0.49,0.6,0.64,0.96c0.15,0.35,0.26,0.71,0.32,1.07c0.06,0.37,0.09,0.72,0.09,1.05v0.85H260.29z"/>
		<path class="st0" d="M269.21,12.63l-0.02-1.01h1.63l0.02,1.41c0.05-0.09,0.12-0.23,0.23-0.4c0.11-0.18,0.27-0.35,0.49-0.52
			c0.21-0.18,0.49-0.33,0.83-0.46c0.34-0.13,0.76-0.2,1.25-0.2c0.2,0,0.47,0.03,0.83,0.09c0.36,0.06,0.7,0.19,1.05,0.39
			c0.35,0.21,0.65,0.5,0.9,0.9c0.26,0.39,0.38,0.92,0.38,1.6v5.93h-1.67V14.8c0-0.29-0.03-0.56-0.08-0.82
			c-0.06-0.26-0.18-0.48-0.38-0.68c-0.21-0.19-0.45-0.34-0.72-0.44c-0.27-0.1-0.55-0.15-0.83-0.15c-0.3,0-0.59,0.05-0.86,0.16
			c-0.27,0.1-0.51,0.26-0.72,0.49c-0.21,0.22-0.38,0.49-0.5,0.82c-0.13,0.32-0.19,0.7-0.19,1.15v5.02h-1.64V12.63z"/>
		<path class="st0" d="M278.66,11.58h1.55V9.76l1.6-0.52v2.35h1.95v1.2h-1.95v5.23c0,0.1,0,0.23,0.02,0.37
			c0.01,0.14,0.05,0.26,0.13,0.38c0.08,0.11,0.19,0.21,0.35,0.29c0.16,0.08,0.38,0.12,0.67,0.12c0.16,0,0.31-0.01,0.46-0.03
			c0.14-0.02,0.25-0.04,0.32-0.06v1.27c-0.15,0.02-0.34,0.05-0.57,0.07c-0.23,0.02-0.49,0.03-0.79,0.03c-0.75,0-1.31-0.13-1.66-0.39
			c-0.36-0.26-0.53-0.75-0.53-1.47v-5.82h-1.55V11.58z"/>
		<path class="st0" d="M176.54,35.91c0.01,0.22,0.04,0.47,0.09,0.76c0.05,0.29,0.16,0.55,0.36,0.81c0.19,0.26,0.49,0.47,0.89,0.65
			c0.41,0.18,0.97,0.27,1.69,0.27c0.65,0,1.17-0.08,1.55-0.26c0.39-0.17,0.68-0.38,0.89-0.63c0.2-0.24,0.34-0.49,0.4-0.74
			c0.06-0.25,0.1-0.46,0.1-0.62c0-0.35-0.07-0.63-0.2-0.86c-0.13-0.23-0.33-0.42-0.58-0.57c-0.25-0.15-0.56-0.28-0.91-0.38
			c-0.35-0.1-0.75-0.21-1.19-0.31c-0.47-0.11-0.89-0.22-1.24-0.31c-0.35-0.09-0.66-0.18-0.93-0.26c-0.26-0.08-0.5-0.16-0.69-0.25
			c-0.2-0.09-0.38-0.18-0.54-0.29c-0.51-0.35-0.85-0.74-1.03-1.18c-0.18-0.44-0.27-0.87-0.27-1.29c0-0.64,0.14-1.19,0.42-1.66
			c0.28-0.46,0.64-0.84,1.09-1.14c0.44-0.3,0.96-0.52,1.53-0.66c0.57-0.14,1.16-0.22,1.75-0.22c0.21,0,0.46,0.01,0.76,0.03
			c0.3,0.03,0.62,0.08,0.94,0.17c0.32,0.08,0.64,0.21,0.97,0.37c0.32,0.16,0.6,0.38,0.86,0.66c0.18,0.2,0.31,0.39,0.41,0.59
			c0.1,0.2,0.17,0.39,0.23,0.57c0.05,0.18,0.08,0.36,0.1,0.53c0.01,0.17,0.02,0.31,0.03,0.44h-1.81c-0.02-0.39-0.11-0.72-0.28-0.97
			c-0.16-0.25-0.37-0.44-0.62-0.58c-0.25-0.14-0.52-0.23-0.83-0.29c-0.3-0.05-0.61-0.08-0.92-0.08c-0.87,0-1.55,0.18-2.04,0.55
			s-0.74,0.86-0.74,1.49c0,0.28,0.05,0.52,0.14,0.71c0.09,0.19,0.23,0.37,0.42,0.5c0.18,0.14,0.42,0.26,0.7,0.36
			c0.29,0.1,0.62,0.19,1,0.29c0.74,0.2,1.34,0.35,1.79,0.47c0.45,0.11,0.81,0.22,1.09,0.3c0.27,0.09,0.49,0.17,0.65,0.25
			c0.16,0.08,0.34,0.18,0.52,0.3c0.29,0.2,0.52,0.41,0.69,0.64c0.17,0.23,0.29,0.47,0.37,0.7c0.08,0.23,0.13,0.45,0.16,0.66
			c0.03,0.21,0.04,0.38,0.04,0.5c0,0.56-0.11,1.07-0.32,1.55c-0.21,0.47-0.53,0.89-0.94,1.24c-0.42,0.36-0.94,0.63-1.56,0.83
			c-0.62,0.2-1.33,0.29-2.13,0.29c-0.24,0-0.54-0.01-0.88-0.04c-0.34-0.03-0.7-0.09-1.06-0.19c-0.37-0.1-0.72-0.24-1.07-0.43
			c-0.34-0.19-0.64-0.44-0.89-0.75c-0.18-0.23-0.31-0.47-0.41-0.7c-0.1-0.23-0.17-0.47-0.22-0.69c-0.05-0.22-0.08-0.43-0.09-0.63
			c-0.01-0.19-0.02-0.37-0.02-0.52H176.54z"/>
	</g>
	<polygon class="st0" points="190.91,39.61 189.66,42.86 187.97,42.86 189.29,39.52 185.66,30.83 187.5,30.83 190.23,37.72 
		193.01,30.83 194.78,30.83 	"/>
	<g>
		<path class="st0" d="M197.77,36.97c0,0.16,0.03,0.34,0.07,0.52c0.05,0.18,0.14,0.36,0.29,0.52c0.15,0.16,0.34,0.29,0.59,0.39
			c0.25,0.1,0.57,0.16,0.97,0.16c0.34,0,0.63-0.04,0.89-0.11c0.26-0.08,0.47-0.22,0.64-0.44c0.18-0.24,0.28-0.51,0.28-0.81
			c0-0.21-0.03-0.39-0.11-0.52c-0.08-0.14-0.19-0.25-0.35-0.34c-0.16-0.09-0.36-0.17-0.6-0.23c-0.24-0.07-0.53-0.14-0.85-0.21
			c-0.45-0.1-0.89-0.21-1.3-0.33c-0.41-0.11-0.77-0.26-1.07-0.45c-0.3-0.19-0.55-0.42-0.72-0.71c-0.18-0.29-0.27-0.66-0.27-1.11
			c0-0.39,0.08-0.76,0.25-1.09c0.17-0.33,0.4-0.61,0.7-0.84c0.29-0.23,0.65-0.4,1.07-0.53c0.42-0.13,0.88-0.19,1.39-0.19
			c0.28,0,0.57,0.03,0.89,0.07c0.31,0.05,0.61,0.13,0.9,0.23c0.29,0.1,0.55,0.24,0.8,0.42c0.25,0.17,0.43,0.39,0.56,0.64
			c0.12,0.24,0.18,0.47,0.2,0.68c0.02,0.21,0.03,0.4,0.03,0.59h-1.67c0.01-0.32-0.04-0.58-0.16-0.77c-0.12-0.19-0.26-0.34-0.44-0.43
			c-0.18-0.1-0.37-0.16-0.56-0.18c-0.2-0.02-0.37-0.03-0.52-0.03c-0.06,0-0.18,0-0.38,0.02c-0.19,0.01-0.39,0.06-0.6,0.14
			c-0.21,0.08-0.39,0.21-0.55,0.37c-0.16,0.17-0.24,0.41-0.24,0.72c0,0.2,0.04,0.36,0.13,0.5c0.09,0.13,0.19,0.24,0.32,0.32
			c0.13,0.08,0.26,0.14,0.4,0.18c0.14,0.04,0.26,0.08,0.38,0.11c0.6,0.14,1.1,0.26,1.49,0.36c0.39,0.1,0.7,0.19,0.96,0.28
			c0.25,0.09,0.45,0.18,0.6,0.26c0.15,0.08,0.29,0.18,0.42,0.3c0.24,0.23,0.42,0.49,0.52,0.77c0.1,0.29,0.15,0.57,0.15,0.84
			c0,0.49-0.12,0.93-0.35,1.32c-0.23,0.39-0.51,0.69-0.84,0.89c-0.38,0.23-0.8,0.39-1.25,0.47c-0.45,0.08-0.89,0.12-1.35,0.12
			c-0.44,0-0.87-0.05-1.28-0.15c-0.41-0.1-0.78-0.26-1.1-0.48c-0.32-0.22-0.57-0.51-0.76-0.88s-0.28-0.81-0.28-1.33H197.77z"/>
		<path class="st0" d="M204.68,30.8h1.55v-1.83l1.6-0.52v2.35h1.95V32h-1.95v5.23c0,0.1,0,0.23,0.02,0.37
			c0.01,0.14,0.05,0.26,0.13,0.38c0.08,0.11,0.19,0.21,0.35,0.29c0.16,0.08,0.38,0.12,0.67,0.12c0.16,0,0.31-0.01,0.46-0.03
			c0.14-0.02,0.25-0.04,0.32-0.06v1.27c-0.15,0.02-0.34,0.05-0.57,0.07c-0.23,0.03-0.49,0.04-0.79,0.04c-0.75,0-1.3-0.13-1.65-0.39
			c-0.36-0.26-0.53-0.75-0.53-1.47V32h-1.55V30.8z"/>
		<path class="st0" d="M217.59,34.34c0-0.21-0.02-0.46-0.05-0.76c-0.03-0.3-0.12-0.58-0.27-0.85c-0.14-0.26-0.36-0.49-0.65-0.68
			c-0.29-0.19-0.68-0.29-1.18-0.29c-0.26,0-0.54,0.04-0.81,0.13c-0.28,0.08-0.53,0.23-0.76,0.43c-0.23,0.21-0.42,0.47-0.56,0.79
			c-0.15,0.32-0.23,0.73-0.24,1.22H217.59z M212.98,35.49c-0.01,0.45,0.03,0.86,0.12,1.25c0.09,0.38,0.24,0.71,0.44,0.99
			c0.2,0.28,0.46,0.5,0.78,0.65c0.32,0.16,0.7,0.23,1.16,0.23c0.53,0,0.99-0.14,1.37-0.43c0.38-0.29,0.61-0.74,0.68-1.36h1.64
			c-0.03,0.22-0.08,0.5-0.16,0.83c-0.08,0.33-0.28,0.66-0.59,1c-0.09,0.1-0.22,0.23-0.38,0.37c-0.16,0.14-0.37,0.26-0.61,0.38
			c-0.25,0.12-0.53,0.21-0.86,0.3c-0.33,0.08-0.71,0.12-1.15,0.12c-1.38,0-2.4-0.4-3.06-1.2c-0.66-0.8-0.99-1.89-0.99-3.27
			c0-0.86,0.11-1.64,0.35-2.34c0.23-0.7,0.69-1.29,1.37-1.77c0.21-0.15,0.43-0.26,0.65-0.35c0.23-0.08,0.45-0.14,0.66-0.19
			c0.21-0.05,0.41-0.08,0.6-0.09c0.18-0.01,0.34-0.02,0.47-0.02c0.65,0,1.2,0.09,1.64,0.26c0.44,0.18,0.81,0.4,1.09,0.69
			c0.28,0.28,0.49,0.6,0.64,0.96c0.15,0.35,0.26,0.71,0.32,1.08c0.06,0.36,0.1,0.71,0.1,1.05v0.85H212.98z"/>
		<path class="st0" d="M221.85,32l-0.04-1.17h1.65v1.27c0.21-0.35,0.43-0.62,0.68-0.82c0.24-0.2,0.49-0.34,0.74-0.44
			c0.25-0.1,0.49-0.16,0.72-0.19c0.24-0.03,0.44-0.04,0.63-0.04c0.49,0,0.89,0.05,1.22,0.16c0.32,0.11,0.6,0.25,0.81,0.41
			c0.22,0.16,0.39,0.34,0.51,0.53c0.12,0.19,0.22,0.37,0.31,0.53c0.07-0.12,0.18-0.27,0.31-0.45c0.14-0.18,0.32-0.37,0.55-0.54
			c0.23-0.18,0.51-0.32,0.84-0.45c0.34-0.13,0.75-0.19,1.23-0.19c0.31,0,0.65,0.04,1.02,0.12c0.37,0.08,0.72,0.23,1.04,0.46
			c0.33,0.23,0.59,0.54,0.81,0.95c0.21,0.41,0.32,0.93,0.32,1.57v5.86h-1.65v-5.6c0-0.38-0.03-0.67-0.09-0.86
			c-0.06-0.19-0.13-0.34-0.21-0.46c-0.14-0.2-0.35-0.37-0.63-0.53c-0.28-0.16-0.63-0.23-1.04-0.23c-0.26,0-0.5,0.03-0.7,0.1
			c-0.21,0.07-0.39,0.15-0.54,0.24c-0.16,0.09-0.28,0.19-0.38,0.29c-0.1,0.1-0.18,0.2-0.23,0.28c-0.09,0.14-0.16,0.29-0.22,0.47
			c-0.05,0.18-0.09,0.35-0.11,0.53c-0.03,0.18-0.04,0.34-0.05,0.5c0,0.16-0.01,0.28-0.01,0.37v4.88h-1.65v-5.77
			c0-0.55-0.16-1-0.47-1.37c-0.31-0.37-0.8-0.55-1.44-0.55c-0.28,0-0.52,0.04-0.74,0.11c-0.21,0.08-0.4,0.16-0.55,0.27
			c-0.16,0.1-0.29,0.21-0.39,0.31c-0.1,0.1-0.18,0.19-0.22,0.26c-0.19,0.26-0.3,0.55-0.34,0.87c-0.03,0.32-0.05,0.63-0.05,0.9v4.96
			h-1.65V32z"/>
	</g>
	<rect x="175.29" y="51.71" class="st0" width="1.74" height="12.55"/>
	<g>
		<path class="st0" d="M181.63,60.61c0.01,0.22,0.04,0.47,0.08,0.76c0.05,0.29,0.17,0.55,0.36,0.81c0.19,0.26,0.49,0.47,0.89,0.65
			c0.41,0.18,0.97,0.27,1.69,0.27c0.65,0,1.17-0.08,1.55-0.26c0.39-0.17,0.68-0.38,0.89-0.63c0.2-0.24,0.34-0.49,0.4-0.74
			c0.06-0.25,0.1-0.46,0.1-0.62c0-0.35-0.07-0.63-0.2-0.86c-0.13-0.23-0.33-0.42-0.58-0.57c-0.25-0.15-0.56-0.28-0.91-0.38
			c-0.35-0.1-0.75-0.21-1.19-0.31c-0.47-0.11-0.89-0.22-1.24-0.31c-0.35-0.09-0.66-0.18-0.93-0.26c-0.26-0.08-0.5-0.16-0.7-0.25
			c-0.19-0.09-0.37-0.18-0.54-0.29c-0.51-0.35-0.86-0.74-1.03-1.18c-0.18-0.44-0.27-0.87-0.27-1.29c0-0.64,0.14-1.19,0.42-1.66
			c0.28-0.46,0.64-0.84,1.09-1.14c0.44-0.3,0.96-0.52,1.53-0.66c0.57-0.14,1.16-0.22,1.75-0.22c0.21,0,0.47,0.01,0.77,0.03
			c0.3,0.03,0.61,0.08,0.94,0.17c0.32,0.08,0.64,0.21,0.97,0.37c0.31,0.16,0.6,0.38,0.86,0.66c0.17,0.2,0.31,0.39,0.41,0.59
			c0.1,0.2,0.17,0.39,0.23,0.57c0.05,0.18,0.08,0.36,0.1,0.53c0.01,0.17,0.02,0.31,0.03,0.44h-1.81c-0.03-0.39-0.12-0.72-0.28-0.97
			c-0.16-0.25-0.37-0.44-0.62-0.58c-0.25-0.14-0.52-0.23-0.82-0.29c-0.3-0.05-0.61-0.08-0.92-0.08c-0.87,0-1.55,0.18-2.04,0.55
			c-0.5,0.37-0.74,0.86-0.74,1.49c0,0.28,0.05,0.52,0.14,0.71c0.09,0.19,0.23,0.37,0.42,0.5c0.18,0.14,0.42,0.26,0.7,0.36
			c0.28,0.1,0.62,0.19,1,0.29c0.74,0.2,1.34,0.35,1.79,0.47c0.45,0.11,0.81,0.22,1.09,0.3c0.27,0.09,0.49,0.17,0.65,0.25
			c0.16,0.08,0.34,0.18,0.52,0.3c0.29,0.2,0.52,0.41,0.69,0.64c0.17,0.23,0.29,0.47,0.37,0.7c0.08,0.23,0.13,0.45,0.16,0.66
			c0.03,0.21,0.04,0.38,0.04,0.5c0,0.56-0.11,1.07-0.32,1.55c-0.21,0.47-0.53,0.89-0.95,1.24c-0.42,0.36-0.94,0.63-1.56,0.83
			c-0.62,0.2-1.33,0.29-2.13,0.29c-0.24,0-0.54-0.01-0.88-0.04c-0.34-0.03-0.7-0.09-1.06-0.19c-0.37-0.1-0.72-0.24-1.07-0.43
			c-0.35-0.19-0.64-0.44-0.89-0.75c-0.18-0.23-0.31-0.47-0.41-0.7c-0.1-0.23-0.17-0.47-0.22-0.69c-0.05-0.22-0.08-0.43-0.09-0.63
			c-0.01-0.19-0.02-0.37-0.02-0.52H181.63z"/>
		<path class="st0" d="M193.41,57.97c0,0.7,0.08,1.4,0.23,2.1c0.15,0.7,0.44,1.33,0.89,1.87c0.36,0.44,0.79,0.74,1.29,0.91
			c0.5,0.16,0.99,0.24,1.49,0.24c0.52,0,1.02-0.08,1.5-0.24c0.48-0.16,0.91-0.47,1.28-0.91c0.26-0.31,0.46-0.66,0.61-1.04
			c0.15-0.38,0.26-0.76,0.34-1.15c0.08-0.38,0.12-0.74,0.15-1.08c0.02-0.34,0.03-0.61,0.03-0.82c0-0.71-0.06-1.37-0.19-1.98
			c-0.13-0.62-0.34-1.15-0.63-1.59c-0.3-0.44-0.69-0.8-1.18-1.05c-0.49-0.25-1.09-0.38-1.81-0.38c-0.8,0-1.46,0.15-1.97,0.44
			c-0.52,0.29-0.92,0.68-1.23,1.16c-0.3,0.47-0.51,1.02-0.63,1.64C193.47,56.71,193.41,57.34,193.41,57.97 M191.58,58.07
			c0-0.36,0.02-0.75,0.06-1.18c0.04-0.43,0.12-0.86,0.24-1.31c0.11-0.44,0.28-0.88,0.49-1.31c0.21-0.44,0.48-0.84,0.83-1.21
			c0.32-0.35,0.68-0.63,1.04-0.85c0.37-0.22,0.74-0.39,1.1-0.51c0.37-0.12,0.73-0.21,1.08-0.25c0.35-0.05,0.68-0.07,0.97-0.07
			c0.87,0,1.65,0.14,2.35,0.42c0.7,0.28,1.3,0.69,1.78,1.23c0.49,0.55,0.86,1.22,1.13,2.03c0.26,0.81,0.4,1.74,0.4,2.81
			c0,0.84-0.09,1.65-0.28,2.45c-0.18,0.8-0.5,1.52-0.95,2.15c-0.44,0.63-1.04,1.14-1.79,1.52c-0.75,0.39-1.67,0.57-2.79,0.57
			c-1.07,0-1.96-0.18-2.69-0.53c-0.73-0.35-1.31-0.83-1.75-1.43c-0.44-0.6-0.76-1.29-0.94-2.07
			C191.68,59.75,191.58,58.93,191.58,58.07"/>
		<path class="st0" d="M215.85,55.91c0-0.43-0.06-0.81-0.19-1.14c-0.13-0.33-0.3-0.6-0.52-0.82c-0.22-0.21-0.47-0.38-0.75-0.49
			c-0.28-0.11-0.57-0.16-0.85-0.16c-0.35,0-0.66,0.07-0.93,0.21c-0.27,0.14-0.5,0.33-0.68,0.56c-0.18,0.23-0.32,0.5-0.41,0.82
			c-0.09,0.31-0.14,0.65-0.14,1.01c0,0.79,0.21,1.4,0.64,1.83c0.43,0.43,0.97,0.64,1.63,0.64c0.69,0,1.22-0.23,1.61-0.68
			C215.65,57.24,215.85,56.64,215.85,55.91 M211.54,61.39c0,0.52,0.15,0.95,0.45,1.28c0.3,0.33,0.79,0.5,1.47,0.5
			c0.66,0,1.17-0.17,1.52-0.51c0.36-0.34,0.62-0.77,0.78-1.28c0.16-0.51,0.25-1.05,0.27-1.63c0.02-0.57,0.01-1.1-0.01-1.57
			c-0.16,0.3-0.35,0.55-0.55,0.74c-0.21,0.19-0.43,0.34-0.67,0.46c-0.24,0.12-0.48,0.2-0.74,0.24c-0.25,0.05-0.5,0.07-0.73,0.07
			c-0.47,0-0.93-0.08-1.38-0.24c-0.44-0.16-0.84-0.4-1.17-0.72c-0.33-0.32-0.6-0.71-0.8-1.19c-0.21-0.47-0.31-1.02-0.31-1.65
			c0-0.7,0.11-1.29,0.34-1.78c0.23-0.49,0.52-0.89,0.89-1.2c0.36-0.31,0.78-0.54,1.23-0.68c0.46-0.15,0.92-0.22,1.4-0.22
			c0.32,0,0.67,0.04,1.05,0.12c0.38,0.08,0.74,0.23,1.1,0.44c0.36,0.21,0.69,0.52,1,0.9c0.3,0.39,0.55,0.89,0.72,1.49
			c0.1,0.37,0.19,0.8,0.26,1.28c0.06,0.48,0.09,1.13,0.09,1.96c0,0.3,0,0.66-0.02,1.09c-0.01,0.42-0.06,0.87-0.15,1.35
			c-0.09,0.47-0.22,0.94-0.4,1.41c-0.18,0.47-0.43,0.88-0.76,1.25c-0.32,0.37-0.74,0.68-1.25,0.91c-0.51,0.23-1.13,0.35-1.86,0.35
			c-0.41,0-0.82-0.05-1.24-0.14c-0.42-0.09-0.81-0.26-1.16-0.5c-0.34-0.23-0.63-0.56-0.86-0.96c-0.23-0.41-0.34-0.92-0.36-1.55
			H211.54z"/>
		<path class="st0" d="M221.63,58.29c0,0.67,0.04,1.3,0.11,1.88c0.08,0.58,0.2,1.08,0.38,1.51c0.18,0.43,0.42,0.76,0.72,1
			c0.3,0.24,0.68,0.37,1.13,0.37c0.5,0,0.9-0.15,1.22-0.44c0.31-0.29,0.55-0.68,0.72-1.15c0.17-0.47,0.28-0.98,0.34-1.54
			c0.05-0.56,0.08-1.11,0.08-1.66c0-0.72-0.03-1.38-0.1-1.98c-0.07-0.6-0.19-1.12-0.37-1.55c-0.18-0.43-0.42-0.76-0.72-0.99
			c-0.3-0.24-0.68-0.36-1.13-0.36c-0.52,0-0.94,0.16-1.26,0.47c-0.32,0.31-0.56,0.7-0.72,1.18c-0.16,0.47-0.27,1-0.32,1.59
			C221.66,57.2,221.63,57.75,221.63,58.29 M219.96,58.38c0-0.3,0.01-0.67,0.03-1.1c0.03-0.43,0.08-0.88,0.17-1.36
			c0.08-0.47,0.21-0.95,0.38-1.42c0.17-0.47,0.4-0.89,0.7-1.27c0.3-0.38,0.68-0.68,1.12-0.91c0.44-0.23,0.99-0.34,1.62-0.34
			c0.6,0,1.12,0.1,1.54,0.29c0.43,0.2,0.8,0.46,1.1,0.79c0.3,0.33,0.54,0.71,0.72,1.13c0.18,0.42,0.32,0.86,0.42,1.31
			c0.1,0.45,0.16,0.9,0.2,1.36c0.04,0.45,0.05,0.86,0.05,1.23c0,1.42-0.14,2.57-0.42,3.42c-0.29,0.86-0.7,1.54-1.25,2.05
			c-0.21,0.2-0.42,0.36-0.65,0.47c-0.23,0.12-0.44,0.22-0.66,0.28s-0.42,0.1-0.6,0.13c-0.18,0.02-0.35,0.03-0.49,0.03
			c-0.41,0-0.78-0.05-1.11-0.16c-0.34-0.11-0.64-0.26-0.91-0.44c-0.26-0.18-0.5-0.39-0.7-0.63c-0.2-0.24-0.37-0.5-0.5-0.76
			c-0.19-0.39-0.37-0.91-0.54-1.55C220.05,60.32,219.96,59.46,219.96,58.38"/>
		<path class="st0" d="M231.85,58.29c0,0.67,0.03,1.3,0.11,1.88c0.08,0.58,0.21,1.08,0.38,1.51c0.18,0.43,0.42,0.76,0.72,1
			c0.3,0.24,0.68,0.37,1.13,0.37c0.5,0,0.91-0.15,1.22-0.44c0.31-0.29,0.55-0.68,0.72-1.15c0.17-0.47,0.28-0.98,0.34-1.54
			c0.06-0.56,0.09-1.11,0.09-1.66c0-0.72-0.03-1.38-0.1-1.98c-0.08-0.6-0.2-1.12-0.38-1.55c-0.18-0.43-0.42-0.76-0.72-0.99
			c-0.3-0.24-0.68-0.36-1.13-0.36c-0.52,0-0.94,0.16-1.26,0.47c-0.32,0.31-0.56,0.7-0.72,1.18c-0.16,0.47-0.27,1-0.32,1.59
			S231.85,57.75,231.85,58.29 M230.18,58.38c0-0.3,0.01-0.67,0.03-1.1c0.03-0.43,0.08-0.88,0.17-1.36c0.08-0.47,0.21-0.95,0.38-1.42
			c0.17-0.47,0.4-0.89,0.7-1.27c0.3-0.38,0.67-0.68,1.12-0.91c0.44-0.23,0.99-0.34,1.62-0.34c0.6,0,1.12,0.1,1.54,0.29
			c0.43,0.2,0.79,0.46,1.1,0.79c0.3,0.33,0.54,0.71,0.72,1.13c0.18,0.42,0.31,0.86,0.42,1.31c0.1,0.45,0.16,0.9,0.2,1.36
			c0.04,0.45,0.05,0.86,0.05,1.23c0,1.42-0.14,2.57-0.43,3.42c-0.28,0.86-0.7,1.54-1.24,2.05c-0.21,0.2-0.42,0.36-0.65,0.47
			c-0.23,0.12-0.44,0.22-0.66,0.28c-0.21,0.06-0.41,0.1-0.6,0.13c-0.18,0.02-0.35,0.03-0.49,0.03c-0.41,0-0.78-0.05-1.12-0.16
			c-0.34-0.11-0.63-0.26-0.9-0.44c-0.26-0.18-0.5-0.39-0.7-0.63c-0.2-0.24-0.37-0.5-0.49-0.76c-0.2-0.39-0.38-0.91-0.54-1.55
			C230.26,60.32,230.18,59.46,230.18,58.38"/>
		<path class="st0" d="M243.59,54.12c-0.18,0.16-0.4,0.32-0.63,0.49c-0.24,0.16-0.48,0.32-0.73,0.47c-0.25,0.15-0.5,0.29-0.75,0.42
			c-0.25,0.13-0.48,0.25-0.69,0.36v-1.74c0.57-0.3,1.11-0.62,1.63-0.96c0.52-0.34,0.95-0.65,1.29-0.94h1.55v12.03h-1.67V54.12z"/>
	</g>
	<path class="st0" d="M249.3,64.26h1.93v-2.05h-1.93V64.26z M249.3,57.5h1.93v-2.05h-1.93V57.5z"/>
	<g>
		<path class="st0" d="M253.66,62.68l3.14-3.1c0.34-0.32,0.67-0.65,0.99-1c0.31-0.34,0.61-0.7,0.88-1.07
			c0.35-0.48,0.58-0.87,0.7-1.18c0.12-0.31,0.18-0.63,0.18-0.96c0-0.15-0.02-0.34-0.06-0.56c-0.04-0.22-0.13-0.43-0.26-0.64
			c-0.13-0.21-0.33-0.39-0.58-0.54c-0.26-0.15-0.6-0.23-1.03-0.23c-0.49,0-0.86,0.09-1.12,0.27c-0.26,0.18-0.45,0.39-0.58,0.62
			c-0.13,0.23-0.2,0.47-0.22,0.7c-0.03,0.23-0.04,0.41-0.04,0.52h-1.83c0-0.15,0.01-0.33,0.03-0.54c0.03-0.21,0.07-0.43,0.14-0.67
			c0.07-0.23,0.18-0.48,0.32-0.72c0.15-0.24,0.35-0.48,0.62-0.71c0.42-0.36,0.86-0.59,1.33-0.7c0.47-0.11,0.9-0.16,1.28-0.16
			c0.46,0,0.92,0.06,1.36,0.19c0.44,0.13,0.84,0.33,1.2,0.61c0.35,0.28,0.63,0.64,0.85,1.09c0.22,0.44,0.32,0.99,0.32,1.62
			c0,0.2-0.01,0.39-0.03,0.57c-0.02,0.18-0.07,0.38-0.16,0.61c-0.09,0.23-0.22,0.48-0.41,0.77c-0.18,0.29-0.44,0.64-0.76,1.06
			c-0.09,0.1-0.24,0.27-0.45,0.5c-0.21,0.23-0.43,0.47-0.66,0.71c-0.23,0.24-0.45,0.47-0.67,0.7c-0.22,0.22-0.37,0.37-0.44,0.45
			l-2.1,2h5.72v1.37h-7.67V62.68z"/>
		<path class="st0" d="M265.06,58.29c0,0.67,0.04,1.3,0.11,1.88c0.07,0.58,0.2,1.08,0.38,1.51c0.18,0.43,0.42,0.76,0.72,1
			c0.3,0.24,0.68,0.37,1.13,0.37c0.5,0,0.9-0.15,1.22-0.44c0.31-0.29,0.55-0.68,0.72-1.15c0.17-0.47,0.28-0.98,0.34-1.54
			c0.05-0.56,0.08-1.11,0.08-1.66c0-0.72-0.03-1.38-0.1-1.98c-0.07-0.6-0.2-1.12-0.37-1.55c-0.18-0.43-0.42-0.76-0.73-0.99
			c-0.3-0.24-0.68-0.36-1.13-0.36c-0.52,0-0.94,0.16-1.26,0.47c-0.32,0.31-0.56,0.7-0.72,1.18c-0.16,0.47-0.27,1-0.32,1.59
			C265.09,57.2,265.06,57.75,265.06,58.29 M263.39,58.38c0-0.3,0.01-0.67,0.03-1.1c0.03-0.43,0.08-0.88,0.17-1.36
			c0.09-0.47,0.21-0.95,0.38-1.42c0.17-0.47,0.4-0.89,0.7-1.27c0.3-0.38,0.68-0.68,1.12-0.91c0.44-0.23,0.99-0.34,1.62-0.34
			c0.6,0,1.12,0.1,1.55,0.29c0.43,0.2,0.79,0.46,1.1,0.79c0.3,0.33,0.54,0.71,0.72,1.13c0.18,0.42,0.32,0.86,0.42,1.31
			c0.1,0.45,0.16,0.9,0.2,1.36c0.03,0.45,0.05,0.86,0.05,1.23c0,1.42-0.14,2.57-0.43,3.42c-0.28,0.86-0.7,1.54-1.24,2.05
			c-0.21,0.2-0.42,0.36-0.65,0.47c-0.23,0.12-0.44,0.22-0.66,0.28c-0.21,0.06-0.41,0.1-0.6,0.13c-0.18,0.02-0.35,0.03-0.49,0.03
			c-0.41,0-0.78-0.05-1.11-0.16c-0.34-0.11-0.64-0.26-0.91-0.44c-0.26-0.18-0.5-0.39-0.7-0.63c-0.2-0.24-0.37-0.5-0.49-0.76
			c-0.2-0.39-0.38-0.91-0.54-1.55C263.47,60.32,263.39,59.46,263.39,58.38"/>
		<path class="st0" d="M276.81,54.12c-0.18,0.16-0.4,0.32-0.63,0.49c-0.24,0.16-0.48,0.32-0.73,0.47c-0.25,0.15-0.5,0.29-0.75,0.42
			c-0.25,0.13-0.48,0.25-0.69,0.36v-1.74c0.57-0.3,1.11-0.62,1.64-0.96c0.52-0.34,0.95-0.65,1.28-0.94h1.55v12.03h-1.67V54.12z"/>
		<path class="st0" d="M284.05,61.41c0.01,0.3,0.08,0.56,0.2,0.77c0.12,0.22,0.28,0.39,0.47,0.53c0.19,0.14,0.4,0.24,0.63,0.3
			c0.23,0.06,0.46,0.1,0.69,0.1c0.52,0,0.94-0.11,1.26-0.32c0.32-0.21,0.56-0.47,0.72-0.76c0.16-0.29,0.27-0.6,0.32-0.91
			c0.05-0.31,0.08-0.57,0.08-0.77c0-0.82-0.21-1.46-0.62-1.91c-0.41-0.45-0.97-0.68-1.66-0.68c-0.35,0-0.66,0.06-0.93,0.18
			c-0.27,0.11-0.5,0.26-0.69,0.45c-0.18,0.19-0.31,0.37-0.38,0.54c-0.07,0.17-0.13,0.33-0.17,0.47h-1.58l0.31-7.16h6.76v1.41h-5.27
			l-0.22,3.89c0.09-0.09,0.21-0.2,0.36-0.33c0.14-0.13,0.31-0.25,0.52-0.37c0.2-0.12,0.44-0.22,0.72-0.3
			c0.28-0.08,0.59-0.12,0.94-0.12c0.6,0,1.13,0.11,1.58,0.33c0.45,0.22,0.83,0.51,1.12,0.88c0.29,0.37,0.52,0.78,0.67,1.26
			c0.15,0.48,0.23,0.97,0.23,1.5c0,0.59-0.1,1.14-0.31,1.64c-0.2,0.5-0.49,0.94-0.86,1.32c-0.37,0.38-0.82,0.67-1.35,0.88
			c-0.52,0.21-1.12,0.31-1.78,0.31c-0.49,0-0.94-0.07-1.36-0.2c-0.42-0.13-0.8-0.33-1.12-0.59c-0.33-0.26-0.58-0.59-0.78-0.98
			c-0.19-0.39-0.3-0.84-0.32-1.36H284.05z"/>
		<path class="st0" d="M63.5,126.37c-0.2-0.14-0.42-0.23-0.68-0.25c-0.26-0.02-0.59-0.03-0.99-0.03H60.1v3.33h2.06
			c0.16,0,0.36-0.02,0.61-0.04c0.26-0.03,0.48-0.13,0.69-0.29c0.05-0.03,0.11-0.08,0.18-0.16c0.08-0.07,0.15-0.16,0.22-0.27
			c0.07-0.1,0.13-0.24,0.18-0.4c0.05-0.16,0.07-0.34,0.07-0.55c0-0.41-0.07-0.71-0.22-0.91C63.76,126.59,63.62,126.44,63.5,126.37"
			/>
		<path class="st0" d="M117.25,127.71c-0.17-0.33-0.4-0.61-0.68-0.85c-0.28-0.24-0.62-0.42-1.01-0.52
			c-0.13-0.03-0.28-0.06-0.44-0.09c-0.16-0.03-0.34-0.05-0.55-0.06c-0.21-0.02-0.45-0.03-0.73-0.03c-0.27,0-0.59,0-0.95,0.02v8
			c0.14,0.01,0.31,0.02,0.49,0.03c0.19,0,0.36,0,0.51,0c0.55,0,1.05-0.04,1.51-0.13c0.46-0.09,0.88-0.32,1.25-0.69
			c0.26-0.25,0.45-0.54,0.6-0.86c0.14-0.33,0.25-0.65,0.32-0.97c0.07-0.33,0.12-0.63,0.13-0.9c0.02-0.27,0.02-0.48,0.02-0.63
			c0-0.42-0.04-0.82-0.11-1.22C117.54,128.4,117.42,128.04,117.25,127.71"/>
		<path class="st0" d="M154.84,115.79H0.77V21.87c0-11.63,9.47-21.1,21.1-21.1h111.86c11.64,0,21.1,9.47,21.1,21.1V115.79z
			 M120.03,132.42c-0.22,0.7-0.53,1.29-0.92,1.78c-0.39,0.5-0.84,0.89-1.35,1.19c-0.51,0.3-1.04,0.5-1.61,0.6
			c-0.11,0.02-0.23,0.04-0.35,0.05c-0.13,0.02-0.27,0.03-0.44,0.04c-0.17,0.01-0.36,0.02-0.57,0.03c-0.22,0-0.48,0.01-0.78,0.01
			h-3.71v-11.89h3.94c0.16,0,0.4,0,0.72,0.03c0.31,0.01,0.66,0.06,1.04,0.13c0.38,0.07,0.78,0.18,1.18,0.33
			c0.41,0.15,0.79,0.36,1.15,0.62c0.37,0.27,0.69,0.59,0.95,0.95c0.26,0.36,0.47,0.75,0.63,1.16c0.16,0.41,0.27,0.83,0.34,1.26
			c0.07,0.44,0.11,0.87,0.11,1.3C120.37,130.92,120.26,131.72,120.03,132.42 M108.02,136.12h-8.15v-11.89h7.97v1.94h-5.42v2.81h5.07
			v1.94h-5.07v3.21h5.6V136.12z M97.13,136.12h-2.56v-11.89h2.56V136.12z M92.72,126.14H87.6v2.94h4.78v1.97H87.6v5.07h-2.55v-11.89
			h7.68V126.14z M82.28,136.12h-2.55v-11.89h2.55V136.12z M77.94,126.17H74.4v9.95h-2.56v-9.95h-3.54v-1.94h9.63V126.17z
			 M64.35,136.12c-0.03-0.16-0.08-0.45-0.13-0.86c-0.05-0.41-0.11-0.84-0.17-1.28c-0.06-0.45-0.12-0.86-0.18-1.24
			c-0.06-0.38-0.11-0.63-0.16-0.75c-0.05-0.16-0.13-0.29-0.24-0.39c-0.1-0.09-0.21-0.16-0.33-0.21c-0.12-0.04-0.24-0.07-0.36-0.07
			c-0.13,0-0.25-0.01-0.36-0.01h-2.24v4.81h-2.6v-11.89h4.56c0.33,0,0.66,0,0.99,0.01c0.33,0.01,0.65,0.04,0.96,0.09
			c0.31,0.05,0.6,0.13,0.89,0.23c0.29,0.1,0.55,0.26,0.78,0.45c0.37,0.32,0.64,0.68,0.8,1.09c0.16,0.42,0.24,0.81,0.24,1.2
			c0,0.56-0.1,1.02-0.3,1.38c-0.21,0.36-0.44,0.64-0.72,0.86c-0.28,0.21-0.55,0.37-0.83,0.47c-0.28,0.1-0.5,0.17-0.64,0.21
			c0.45,0.04,0.81,0.14,1.07,0.28c0.26,0.14,0.46,0.33,0.6,0.57c0.14,0.23,0.24,0.51,0.31,0.83c0.06,0.32,0.12,0.67,0.17,1.05
			c0.09,0.7,0.16,1.23,0.21,1.56c0.05,0.34,0.1,0.59,0.15,0.75c0.07,0.26,0.13,0.44,0.18,0.55c0.05,0.1,0.12,0.2,0.18,0.3H64.35z
			 M55.29,136.12h-8.15v-11.89h7.97v1.94h-5.42v2.81h5.07v1.94h-5.07v3.21h5.6V136.12z M44.98,132.86c-0.03,0.22-0.07,0.45-0.14,0.7
			c-0.07,0.25-0.18,0.5-0.31,0.76c-0.14,0.26-0.33,0.51-0.57,0.75c-0.26,0.27-0.55,0.5-0.86,0.66c-0.31,0.17-0.63,0.31-0.95,0.4
			c-0.31,0.1-0.63,0.17-0.94,0.21c-0.31,0.04-0.61,0.05-0.88,0.05c-1.02,0-1.87-0.18-2.55-0.54c-0.68-0.36-1.23-0.84-1.62-1.43
			c-0.4-0.58-0.68-1.24-0.85-1.98c-0.16-0.73-0.25-1.46-0.25-2.2c0-0.94,0.13-1.8,0.38-2.57c0.26-0.77,0.62-1.43,1.09-1.98
			c0.47-0.55,1.04-0.97,1.72-1.28c0.67-0.3,1.43-0.45,2.26-0.45c0.65,0,1.25,0.1,1.79,0.29c0.54,0.19,1.01,0.46,1.4,0.81
			c0.39,0.35,0.7,0.76,0.91,1.25c0.22,0.48,0.33,1.02,0.33,1.62h-2.6c-0.01-0.1-0.04-0.26-0.08-0.5c-0.04-0.23-0.12-0.46-0.26-0.7
			c-0.13-0.23-0.32-0.44-0.57-0.63c-0.25-0.18-0.59-0.27-1.02-0.27c-0.47,0-0.88,0.12-1.22,0.34c-0.34,0.24-0.62,0.55-0.83,0.95
			c-0.21,0.4-0.37,0.87-0.48,1.41s-0.16,1.11-0.16,1.73c0,0.55,0.04,1.08,0.11,1.59c0.08,0.51,0.21,0.96,0.41,1.36
			c0.19,0.39,0.44,0.71,0.76,0.95c0.32,0.24,0.72,0.35,1.2,0.35c0.26,0,0.52-0.04,0.77-0.13s0.48-0.22,0.68-0.4
			c0.2-0.18,0.36-0.42,0.49-0.7c0.12-0.29,0.19-0.63,0.21-1.02h2.68C45.01,132.44,45,132.64,44.98,132.86 M133.74,0H21.87
			C9.79,0,0,9.79,0,21.87v93.92v17.95c0,12.08,9.79,21.87,21.87,21.87h111.86c12.08,0,21.87-9.79,21.87-21.87v-17.95V21.87
			C155.61,9.79,145.81,0,133.74,0"/>
	</g>
</g>
</svg>
