<?xml version="1.0" encoding="utf-8"?>
<!-- Generator: Adobe Illustrator 24.2.3, SVG Export Plug-In . SVG Version: 6.00 Build 0)  -->
<svg version="1.1" id="Layer_1" xmlns="http://www.w3.org/2000/svg" xmlns:xlink="http://www.w3.org/1999/xlink" x="0px" y="0px"
	 viewBox="0 0 366.53 144.69" style="enable-background:new 0 0 366.53 144.69;" xml:space="preserve">
<style type="text/css">
	.st0{fill:#FFFFFF;}
	.st1{fill:#172D5F;}
	.st2{clip-path:url(#SVGID_2_);}
	.st3{clip-path:url(#SVGID_4_);}
	.st4{clip-path:url(#SVGID_6_);}
</style>
<g>
	<polygon class="st0" points="14.34,29.91 0.09,29.91 0,29.82 0,29.91 0,113.58 0,113.97 37.13,113.97 37.13,101.41 14.44,101.41 
		14.44,29.91 14.44,29.82 	"/>
	<polygon class="st0" points="62.5,76.72 81.13,76.72 81.13,64.25 81.13,64.15 62.5,64.15 62.5,42.49 86.7,42.49 86.7,30.02 
		86.7,29.91 48.08,29.91 48.08,113.97 88.34,113.97 88.34,101.5 88.34,101.41 62.5,101.41 	"/>
	<polygon class="st0" points="138.78,42.49 138.78,30.02 138.78,29.91 100.17,29.91 100.17,113.97 140.42,113.97 140.42,101.5 
		140.42,101.41 114.6,101.41 114.6,76.72 133.2,76.72 133.2,64.25 133.2,64.15 114.6,64.15 114.6,42.49 	"/>
	<g>
		<path class="st0" d="M182.52,90.34c0,4.24-0.63,7.08-2.12,8.93c-1.61,2.01-4.23,2.82-8.23,2.82h-5V41.8h5
			c7.67,0,10.35,2.91,10.35,11.75V90.34z M189.65,34.71c-3.76-3.22-8.95-4.8-15.48-4.8h-21.42v84.06h21.42
			c6.61,0,11.83-1.62,15.61-4.92c4.73-4.12,7.18-10.89,7.18-20.46V55.29C196.95,45.63,194.47,38.82,189.65,34.71"/>
		<path class="st0" d="M4.41,4.95h2.17c1.91,0,3.03,0.99,3.03,2.78v0.02c0,1.67-1.12,2.8-3.03,2.8H4.41V4.95z M4.41,12.79h2.17
			c3.12-0.04,5.57-1.78,5.57-5.09V7.66c0-3.1-2.13-4.98-5.42-4.98H1.92v14.96h2.49V12.79z"/>
		<path class="st0" d="M16.71,4.95h2.73c1.87,0,2.97,0.88,2.97,2.56v0.04c0,1.56-1.07,2.58-3.01,2.58h-2.69V4.95z M16.71,12.37h2.41
			c0.04,0,0.11,0,0.15-0.02l3.2,5.3h2.88l-3.55-5.79c1.83-0.64,3.12-2.07,3.12-4.38V7.39c0-1.37-0.45-2.5-1.25-3.29
			c-0.9-0.9-2.3-1.41-4.02-1.41h-5.44v14.96h2.49V12.37z"/>
		<path class="st0" d="M29.43,10.08c0-3.22,1.7-5.34,4.07-5.34c2.39,0,4.11,2.16,4.11,5.36v0.15c0,3.23-1.7,5.34-4.07,5.34
			c-2.36,0-4.11-2.16-4.11-5.36V10.08z M33.5,17.88c3.94,0,6.69-3.18,6.69-7.63v-0.21c0-4.42-2.73-7.58-6.65-7.58
			c-3.94,0-6.68,3.18-6.68,7.62v0.21C26.86,14.71,29.59,17.88,33.5,17.88"/>
		<path class="st0" d="M53.67,11.85V2.69H51.2V12c0,2.37-1.2,3.59-3.1,3.59c-1.93,0-3.12-1.26-3.12-3.68V2.69h-2.5v9.25
			c0,3.91,2.22,5.94,5.57,5.94C51.45,17.88,53.67,15.87,53.67,11.85"/>
		<path class="st0" d="M59.04,15.4V4.93h2.09c2.75,0,4.58,1.97,4.58,5.19v0.13c0,3.21-1.83,5.15-4.58,5.15H59.04z M68.29,10.23
			v-0.17c0-4.38-2.84-7.37-7.14-7.37h-4.6v14.96h4.6C65.45,17.64,68.29,14.61,68.29,10.23"/>
	</g>
	<polygon class="st0" points="79.72,15.36 73.27,15.36 73.27,2.69 70.78,2.69 70.78,17.64 79.72,17.64 	"/>
	<polygon class="st0" points="85.5,17.64 88,17.64 88,11.66 93.05,2.69 90.28,2.69 86.77,9.16 83.29,2.69 80.43,2.69 85.5,11.68 	
		"/>
	<g>
		<path class="st0" d="M102.57,4.95h2.17c1.91,0,3.03,0.99,3.03,2.78v0.02c0,1.67-1.12,2.8-3.03,2.8h-2.17V4.95z M102.57,12.79h2.17
			c3.12-0.04,5.57-1.78,5.57-5.09V7.66c0-3.1-2.13-4.98-5.42-4.98h-4.81v14.96h2.49V12.79z"/>
		<path class="st0" d="M117.75,17.88c3.4,0,5.61-2.01,5.61-6.03V2.69h-2.47V12c0,2.37-1.2,3.59-3.1,3.59
			c-1.93,0-3.12-1.26-3.12-3.68V2.69h-2.49v9.25C112.18,15.85,114.4,17.88,117.75,17.88"/>
		<path class="st0" d="M128.74,4.95h2.73c1.87,0,2.97,0.88,2.97,2.56v0.04c0,1.56-1.07,2.58-3.01,2.58h-2.69V4.95z M128.74,12.37
			h2.41c0.04,0,0.11,0,0.15-0.02l3.2,5.3h2.88l-3.55-5.79c1.83-0.64,3.12-2.07,3.12-4.38V7.39c0-1.37-0.45-2.5-1.25-3.29
			c-0.9-0.9-2.3-1.41-4.02-1.41h-5.44v14.96h2.49V12.37z"/>
		<path class="st0" d="M144.6,9.08c-2.56-0.98-3.12-1.54-3.12-2.58V6.47c0-0.98,0.84-1.73,2.19-1.73c1.2,0,2.34,0.58,3.37,1.41
			l1.42-1.9c-1.38-1.2-2.99-1.75-4.73-1.75c-2.79,0-4.78,1.73-4.78,4.19v0.04c0,2.39,1.49,3.44,4.35,4.51
			c2.38,0.88,2.88,1.5,2.88,2.44v0.02c0,1.11-0.92,1.9-2.37,1.9c-1.59,0-2.84-0.77-3.95-1.78l-1.51,1.86
			c1.63,1.49,3.5,2.16,5.44,2.16c2.82,0,4.88-1.69,4.88-4.32v-0.04C148.69,11.3,147.4,10.15,144.6,9.08"/>
		<path class="st0" d="M156.41,17.88c3.4,0,5.61-2.01,5.61-6.03V2.69h-2.47V12c0,2.37-1.2,3.59-3.1,3.59
			c-1.93,0-3.12-1.26-3.12-3.68V2.69h-2.49v9.25C150.84,15.85,153.05,17.88,156.41,17.88"/>
	</g>
	<rect x="165.03" y="2.69" class="st0" width="2.5" height="14.96"/>
	<polygon class="st0" points="173.13,7.37 179.95,17.64 182.06,17.64 182.06,2.69 179.63,2.69 179.63,12.67 173,2.69 170.68,2.69 
		170.68,17.64 173.13,17.64 	"/>
	<g>
		<path class="st0" d="M191.43,17.86c2.13,0,3.87-0.81,5.14-1.82V9.33h-5.53v2.18h3.16v3.29c-0.67,0.47-1.61,0.79-2.66,0.79
			c-2.56,0-4.41-2.01-4.41-5.38v-0.13c0-3.1,1.83-5.3,4.28-5.3c1.53,0,2.47,0.57,3.33,1.34l1.49-1.96
			c-1.33-1.11-2.73-1.69-4.78-1.69c-4.04,0-6.9,3.23-6.9,7.63v0.17C184.55,14.87,187.34,17.86,191.43,17.86"/>
		<path class="st0" d="M8.29,137.58c-2.88,0-4.97-2.37-4.97-5.3v-0.04c0-2.93,2.11-5.28,4.97-5.28c1.72,0,3.01,0.75,4.21,1.86
			l1.7-1.94c-1.44-1.37-3.12-2.33-5.89-2.33c-4.56,0-7.76,3.48-7.76,7.73v0.04c0,4.3,3.27,7.69,7.66,7.69
			c2.82,0,4.54-1.02,6.11-2.65l-1.7-1.71C11.32,136.86,10.14,137.58,8.29,137.58"/>
	</g>
	<polygon class="st0" points="21.23,133.39 28.78,133.39 28.78,131.04 21.23,131.04 21.23,127.15 29.75,127.15 29.75,124.8 
		18.59,124.8 18.59,139.76 29.86,139.76 29.86,137.41 21.23,137.41 	"/>
	<g>
		<path class="st0" d="M37.14,132.22v-5.02h3.85c1.96,0,3.12,0.87,3.12,2.48v0.05c0,1.51-1.2,2.5-3.09,2.5H37.14z M46.8,129.57
			v-0.04c0-1.31-0.45-2.42-1.25-3.23c-0.97-0.94-2.45-1.49-4.34-1.49H34.5v14.96h2.64v-5.22h3.31l3.7,5.22h3.14l-4.07-5.66
			C45.31,133.5,46.8,132.03,46.8,129.57"/>
	</g>
	<polygon class="st0" points="50.47,127.24 55.25,127.24 55.25,139.76 57.91,139.76 57.91,127.24 62.69,127.24 62.69,124.81 
		50.47,124.81 	"/>
	<rect x="67.13" y="124.81" class="st0" width="2.64" height="14.96"/>
	<polygon class="st0" points="75.3,139.76 77.94,139.76 77.94,133.67 85.53,133.67 85.53,131.28 77.94,131.28 77.94,127.2 
		86.5,127.2 86.5,124.81 75.3,124.81 	"/>
	<rect x="91.06" y="124.81" class="st0" width="2.65" height="14.96"/>
	<g>
		<path class="st0" d="M106.3,137.58c-2.88,0-4.97-2.37-4.97-5.3v-0.04c0-2.93,2.11-5.28,4.97-5.28c1.72,0,3.01,0.75,4.21,1.86
			l1.7-1.94c-1.44-1.37-3.12-2.33-5.89-2.33c-4.56,0-7.76,3.48-7.76,7.73v0.04c0,4.3,3.27,7.69,7.66,7.69
			c2.82,0,4.54-1.02,6.11-2.65l-1.7-1.71C109.34,136.86,108.15,137.58,106.3,137.58"/>
	</g>
	<path class="st0" d="M120.53,133.82l2.58-5.98l2.6,5.98H120.53z M121.93,124.7l-6.62,15.06h2.71l1.55-3.61h7.12l1.53,3.61H131
		l-6.62-15.06H121.93z"/>
	<polygon class="st0" points="134.01,127.24 138.79,127.24 138.79,139.76 141.45,139.76 141.45,127.24 146.23,127.24 146.23,124.81 
		134.01,124.81 	"/>
	<rect x="150.67" y="124.81" class="st0" width="2.65" height="14.96"/>
	<g>
		<path class="st0" d="M171.14,132.33c0,2.9-2.09,5.25-5.07,5.25c-2.99,0-5.12-2.39-5.12-5.3v-0.04c0-2.9,2.09-5.28,5.08-5.28
			c2.99,0,5.12,2.42,5.12,5.32V132.33z M166.07,124.55c-4.62,0-7.89,3.52-7.89,7.73v0.05c0,4.21,3.23,7.69,7.85,7.69
			c4.62,0,7.89-3.52,7.89-7.73v-0.04C173.91,128.03,170.69,124.55,166.07,124.55"/>
	</g>
	<polygon class="st0" points="189.14,135.15 181.07,124.81 178.62,124.81 178.62,139.76 181.22,139.76 181.22,129.12 189.52,139.76 
		191.74,139.76 191.74,124.81 189.14,124.81 	"/>
	<path class="st0" d="M295.98,140.57v-17.34c0.03-0.1,0.06-0.21,0.08-0.32c0.76-3.27,12.83-11.64,15.66-12.92
		c2.85-1.3,9.62-4.19,17.18-5.75c7.56-1.57,18.95-10.06,14.58-14.93c-1.65-1.84-3.76-0.83-5.14-0.51c-3.43,0.8-2.05-1.93,0.46-3.13
		c0.96-0.46,12.68-4.07,9.99-11.06c-1.9-4.92-5.53,0.91-8.07-0.99c-0.81-0.6-1.32-1.09,2.24-4.54c3.57-3.47,4.65-5.93,5.01-8.06
		c0.35-2.13,0.35-3.76-1.12-4.58c-1.46-0.82-3.39,1.35-3.98-0.9c-0.36-1.21,0.1-1.89,0.11-4.05c0.01-2.36-2.41-8.26-8.04-6.27
		c-3.64,1.29-1.71,7.56-2.65,8.75c-0.96,1.21-1.78-2.5-3.82-3.09c-2.36-0.67-4,1.51-3.99,3.54c0.02,2.03,1.34,5.8,1.78,7.26
		c0.24,1.16,0.87,4.31,0.48,5.23c-0.6,1.39-1.11,0.94-2.46-0.84c-1.19-1.56-0.56-0.91-2.66-3.43c-2.61-3.21-4.19,1.24-4.39,4.22
		c-0.18,2.98,2.07,13.34,2.04,14.72c-0.16,6.21-3.61-0.91-3.73-1.08c-2.27-3.46-6.63-1.84-5.27,1.87c2.49,6.76,4.72,12.6,2.36,18.4
		c-0.31,0.77-0.74,2.12-1.31,3.47c19.16-17.84,24.43-42.55,24.43-42.58c0.07-0.26,0.52-0.5,0.76-0.42c0.24,0.07,0.36,0.55,0.29,0.81
		c-0.02,0.04-6.27,36.73-39.66,55.47c-0.74,0.4-0.82-0.03-0.97-0.7c0.16-5.81,0.4-9.76,2.56-11.04
		c17.99-10.68,12.14-15.59,8.41-16.32c-3.73-0.73-5.86-6.83-0.72-9.48c9.06-5.09,13.69-23.27,2.44-19.3
		c-1.03,0.09-8.43,3.94-1.9-7.21c6.17-11.16,4.27-21.09-2.13-16.77c-1.68,1.13-6.43,6.16-5.48-1.11c1.7-11.04-1.04-14.98-4.28-15.7
		c0,0-0.34-0.06-0.61-0.09l-0.29,0.02v-0.03c-0.19-0.02-0.91,0.1-0.91,0.1c-3.24,0.73-5.98,4.66-4.28,15.7
		c0.95,7.28-3.8,2.25-5.47,1.11c-6.4-4.32-8.3,5.61-2.13,16.77c6.52,11.15-0.87,7.3-1.91,7.21c-11.25-3.97-6.61,14.21,2.45,19.3
		c5.14,2.66,3.01,8.75-0.72,9.48c-3.73,0.73-9.58,5.64,8.41,16.32c2.16,1.28,2.43,5.26,2.58,11.09c-0.15,0.65-0.25,1.04-0.99,0.65
		c-33.39-18.74-39.64-55.42-39.65-55.47c-0.07-0.26,0.11-0.74,0.35-0.81c0.23-0.08,0.6,0.34,0.67,0.59
		c0.01,0.03,5.3,24.56,24.45,42.4c-0.58-1.35-1-2.7-1.32-3.47c-2.35-5.8-0.12-11.64,2.36-18.4c1.36-3.71-3-5.33-5.27-1.87
		c-0.11,0.17-3.57,7.29-3.73,1.08c-0.04-1.37,2.22-11.74,2.04-14.72s-1.77-7.43-4.38-4.22c-2.1,2.52-1.47,1.87-2.66,3.43
		c-1.34,1.78-1.85,2.23-2.45,0.84c-0.39-0.93,0.23-4.07,0.48-5.23c0.44-1.46,1.76-5.23,1.78-7.26c0.02-2.02-1.63-4.2-3.99-3.54
		c-2.04,0.59-2.87,4.31-3.83,3.09c-0.94-1.19,0.99-7.46-2.64-8.75c-5.63-1.99-8.05,3.91-8.04,6.27c0,2.16,0.46,2.84,0.1,4.05
		c-0.58,2.25-2.51,0.08-3.98,0.9c-1.47,0.82-1.47,2.45-1.12,4.58c0.36,2.13,1.44,4.59,5.01,8.06c3.56,3.46,3.06,3.94,2.24,4.54
		c-2.53,1.9-6.17-3.93-8.07,0.99c-2.69,7,9.03,10.6,9.99,11.06c2.51,1.2,3.89,3.94,0.46,3.13c-1.38-0.32-3.49-1.33-5.14,0.51
		c-4.37,4.87,7.02,13.37,14.58,14.93c7.56,1.56,14.32,4.45,17.18,5.75c2.82,1.28,14.84,9.52,15.67,12.86v17.72
		c-36.78-1-66.4-31.21-66.4-68.23c0-37.64,30.63-68.27,68.27-68.27c37.64,0,68.27,30.63,68.27,68.27
		C362.46,109.38,332.8,139.61,295.98,140.57 M293.36,80.81c0-16.09,0.39-33.62,0.39-33.62s0.14-0.67,0.59-0.67
		c0.45,0,0.52,0.67,0.52,0.67l0.39,33.62c0,16.09-0.39,39.59-0.39,39.59s-0.08,0.68-0.61,0.66c-0.54-0.02-0.5-0.66-0.5-0.66
		S293.36,96.9,293.36,80.81 M294.18,0c-39.89,0-72.34,32.45-72.34,72.34s32.45,72.34,72.34,72.34s72.34-32.45,72.34-72.34
		S334.07,0,294.18,0"/>
</g>
</svg>
