<?xml version="1.0" encoding="utf-8"?>
<!-- Generator: Adobe Illustrator 22.1.0, SVG Export Plug-In . SVG Version: 6.00 Build 0)  -->
<svg version="1.1" id="Capa_1" xmlns="http://www.w3.org/2000/svg" xmlns:xlink="http://www.w3.org/1999/xlink" x="0px" y="0px"
	 viewBox="0 0 212 240" style="enable-background:new 0 0 212 240;" xml:space="preserve">
<style type="text/css">
	.st0{fill:#FFFFFF;}
</style>
<g>
	<rect width="212" height="240"/>
	<path class="st0" d="M48.6,74.1l13.7,39.2h-5.1l-3.2-9.3c-0.1-0.2-0.2-0.3-0.3-0.3H37.8c-0.2,0-0.3,0.1-0.3,0.2l-3.1,9.3h-5
		l13.3-39.2H48.6z M52.2,98.9l-6.4-19c-0.1-0.1-0.3-0.1-0.3,0l-6.2,19c-0.1,0.1,0.1,0.2,0.2,0.2H52C52.1,99.1,52.2,99,52.2,98.9"/>
	<path class="st0" d="M85,74.1c6.3,0,11.3,5,11.3,11.5c0,5.2-3.8,9.8-9.5,11l9.6,16.7H91l-0.1-0.2l-9.2-15.9
		c-0.1-0.1-0.1-0.2-0.2-0.2h-8.4c-0.1,0-0.2,0.1-0.2,0.2v16h-4.8V74.1H85z M91.5,85.7c0-3.8-2.8-6.8-6.5-6.8H73.2
		c-0.1,0-0.2,0.1-0.2,0.2v13.1c0,0.1,0.1,0.2,0.2,0.2h11.3C88.1,92.4,91.5,89.5,91.5,85.7"/>
	<path class="st0" d="M127.3,112.2L127.3,112.2c-2.3,1.3-5.1,2-8.6,2c-10.3,0-17.4-8.1-17.4-20.6c0-12.3,7.3-20.6,17.4-20.6
		c10.6,0,17.4,8.3,17.4,20.6c0,6.4-1.6,11.6-4.8,15.3c-0.1,0.1-0.1,0.2,0,0.3l3.5,3.6l-3.3,3.4l-3.9-3.9
		C127.5,112.1,127.4,112.1,127.3,112.2 M123.7,108.5c0.1-0.1,0.1-0.2,0.1-0.2l-4-4l3.3-3.4l4.5,4.5c0.1,0.1,0.2,0.1,0.3,0.1
		c2.3-2.9,3.5-6.9,3.5-12c0-9.6-4.7-15.8-12.7-15.8c-7.4,0-12.7,6.2-12.7,15.8c0,9.8,5.2,15.9,12.7,15.9
		C120.9,109.4,122.4,109.1,123.7,108.5"/>
	<path class="st0" d="M143.8,99V74.1h4.9V99c0,6.9,3.4,10.6,9,10.6s9-3.7,9-10.6V74.1h4.9V99c0,9.2-5.3,15.4-13.9,15.4
		C149.2,114.4,143.8,108.3,143.8,99"/>
	<rect x="181.8" y="74.1" class="st0" width="4.7" height="39.2"/>
	<path class="st0" d="M41,127.4H29.1v-4.8h29v4.8H46.2c-0.1,0-0.2,0.1-0.2,0.2v34.3h-4.8v-34.3C41.2,127.5,41.1,127.4,41,127.4"/>
	<path class="st0" d="M91.2,122.6v4.7H68.8c-0.2,0-0.3,0.1-0.3,0.2v12.1c0,0.2,0.1,0.3,0.3,0.3h19.6v4.7H68.8
		c-0.2,0-0.3,0.1-0.3,0.2v12c0,0.1,0.1,0.3,0.3,0.3h22.4v4.7H63.8v-39.2H91.2z"/>
	<path class="st0" d="M95.8,142.2c0-12.3,7.3-20.6,17.4-20.6c8.5,0,14.5,4.9,15.9,13.4h-4.9c-1.1-5.8-5.4-8.6-11-8.6
		c-7.4,0-12.7,6.2-12.7,15.8c0,9.8,5.2,15.9,12.7,15.9c5.6,0,9.7-2.7,10.9-8.1h4.9c-1.6,8.5-7.6,12.9-15.8,12.9
		C103,162.9,95.8,154.8,95.8,142.2"/>
	<path class="st0" d="M41,175.9H29.1v-4.8h29v4.8H46.2c-0.1,0-0.2,0.1-0.2,0.2v34.3h-4.8v-34.3C41.2,176,41.1,175.9,41,175.9"/>
	<path class="st0" d="M61.3,190.5c0-12.3,7.3-20.6,17.4-20.6c10.1,0,17.4,8.2,17.4,20.6c0,12.6-7.1,20.7-17.4,20.7
		C68.4,211.2,61.3,203.1,61.3,190.5 M91.4,190.5c0-9.6-5.3-15.8-12.7-15.8c-7.4,0-12.7,6.3-12.7,15.8c0,9.8,5.2,15.9,12.7,15.9
		C86.2,206.4,91.4,200.4,91.4,190.5"/>
	<path class="st0" d="M101.5,199.6h4.9c0.9,5.1,4.7,7,9.7,7c8.8,0,9.8-4.7,9.9-6.7c0-5.2-4.1-6.7-10.1-6.7c-8.7,0-14-3.8-14-11.6
		c0-7.6,5.9-11.4,13.5-11.4c8.1,0,13.4,4.4,14.4,11.9h-4.8c-1-5-4.3-7.2-9.6-7.2c-2.6,0-8.6,0.6-8.7,6.8c-0.2,5.1,3.6,6.7,9.3,6.7
		c9,0,14.8,3.7,14.8,11.6c0,5.5-4,11.4-14.6,11.4C108.2,211.4,102.7,207.4,101.5,199.6"/>
	<path class="st0" d="M58.5,64.8h5.1v-5L50.1,25.3h-7.3L29.4,59.8v5h5.1l3.4-8.6c0.1-0.2,0.2-0.3,0.4-0.3h16.4
		c0.2,0,0.4,0.1,0.4,0.3L58.5,64.8z M51.8,49.5H41.1c-0.2,0-0.3-0.1-0.4-0.2c-0.1-0.1-0.1-0.3,0-0.4L46,34.8
		c0.1-0.2,0.2-0.3,0.4-0.3c0.2,0,0.4,0.1,0.4,0.3l5.3,14.1c0.1,0.1,0,0.3,0,0.4C52.1,49.5,52,49.5,51.8,49.5"/>
	<path class="st0" d="M110.8,64.8h7.3l13.4-33.7v-5.7h-5.1l-11.5,30c-0.1,0.2-0.2,0.3-0.4,0.3c-0.2,0-0.4-0.1-0.4-0.3l-11.5-30h-5.1
		v5.7L110.8,64.8z"/>
	<path class="st0" d="M73.8,64.8h6.6V32.4c0-0.3,0.2-0.5,0.5-0.5h10.8v-6.6H62.9v6.6h10.5c0.3,0,0.5,0.2,0.5,0.5V64.8z"/>
</g>
</svg>
