<?xml version="1.0" encoding="utf-8"?>
<!-- Generator: Adobe Illustrator 23.0.3, SVG Export Plug-In . SVG Version: 6.00 Build 0)  -->
<svg version="1.1" xmlns="http://www.w3.org/2000/svg" xmlns:xlink="http://www.w3.org/1999/xlink" x="0px" y="0px"
	 viewBox="0 0 184.3 147" style="enable-background:new 0 0 184.3 147;" xml:space="preserve">
<style type="text/css">
	.st0{fill:#FFFFFF;}
	.st1{display:none;}
	.st2{display:inline;fill:#916E3B;}
	.st3{font-family:'Gotham-Book';}
	.st4{font-size:36.2129px;}
	.st5{letter-spacing:12;}
</style>
<g id="Layer_1">
	<path class="st0" d="M69.7,30.3c-2,0-3.7-1.7-3.7-3.7s1.7-3.7,3.7-3.7s3.7,1.7,3.7,3.7S71.7,30.3,69.7,30.3z M57.7,95.7
		c-2.8-0.8-4.6-2-5.8-2.7c-7.7-4.7-11-13.4-11-28.9c0,0,0-50,0-56s-6.5-5.8-6.5-5.8v61.2c0,11.7,1.4,26.8,13.6,34.3
		C52.8,100.8,57.7,96.8,57.7,95.7z M75,82.6c1.1,1.1,2.4,2,3.8,2.9c4.8,2.9,9.7-1.1,9.7-2.2c-2.8-0.8-4.6-2-5.8-2.7
		c-1.4-0.9-2.8-1.9-3.9-3.1l0,0c-4-4.2-6-10.6-6-20.6c0,0,0-4.5,0-10s-6.5-5.3-6.5-5.3v14.9C66.3,65.1,67.4,76,75,82.6L75,82.6z
		 M112.9,79.2c0.1,0,0.2,0,0.3,0c0.1,0,0.3,0,0.4,0c0,0,0.1,0,0.1,0l0,0c2.9-0.4,5.1-3,5.7-3.8c4.9-6.5,11.6-17.6,16.9-33.8
		c-2.4-0.8-6.3-0.2-8,4.5c-3.5,10.6-7.4,16.5-10.7,21.7c-1.4,2.2-2.6,3.5-3.7,4.3c-0.3,0.2-0.7,0.4-1.1,0.4c-0.4,0-0.7-0.1-1.1-0.4
		c-1.1-0.8-2.3-2.1-3.7-4.3c-3.2-5.2-7.2-11.1-10.7-21.7c-1.6-4.7-5.5-5.3-8-4.5c5.3,16.3,12.1,27.3,16.9,33.8
		c0.6,0.8,2.8,3.4,5.7,3.8l0,0c0,0,0.1,0,0.1,0c0.1,0,0.3,0,0.4,0c0.1,0,0.2,0,0.3,0 M152.1,25.1c0-0.1-0.1-0.1-0.2-0.1h-6.3
		c-0.1,0-0.1,0-0.2,0.1l-1.3,3.3h-2v-1.9l5.2-13.3h2.8l5.2,13.3v1.9h-2L152.1,25.1z M150.8,22.6c0.1,0,0.1,0,0.2-0.1
		c0,0,0-0.1,0-0.2l-2.1-5.4c0-0.1-0.1-0.1-0.2-0.1c-0.1,0-0.1,0-0.2,0.1l-2.1,5.4c0,0.1,0,0.1,0,0.2c0,0,0.1,0.1,0.2,0.1H150.8
		 M173.6,28.5h2.8l5.2-13v-2.2h-2l-4.5,11.6c0,0.1-0.1,0.1-0.2,0.1c-0.1,0-0.1,0-0.2-0.1l-4.5-11.6h-2v2.2L173.6,28.5z M159.3,28.5
		h2.5V15.9c0-0.1,0.1-0.2,0.2-0.2h4.2v-2.5h-11.1v2.5h4.1c0.1,0,0.2,0.1,0.2,0.2V28.5z"/>
	<g>
		<path class="st0" d="M4.1,119.5h9.5c5.7,0,9.5,3,9.5,8v0.1c0,5.5-4.6,8.3-10,8.3H6.9v8.9H4.1V119.5z M13.2,133.3
			c4.2,0,7-2.2,7-5.6v-0.1c0-3.6-2.7-5.5-6.8-5.5H6.9v11.2H13.2z"/>
		<path class="st0" d="M40.6,119.5h2.9v22.7h14.3v2.6H40.6V119.5z"/>
		<path class="st0" d="M84.7,119.3h2.7l11.6,25.5h-3.1l-3-6.7H79l-3,6.7h-2.9L84.7,119.3z M91.7,135.6L86,122.7l-5.8,12.9H91.7z"/>
		<path class="st0" d="M115,142.9l16.4-20.9h-15.9v-2.6h19.8v1.9l-16.4,20.9h16.4v2.6H115V142.9z"/>
		<path class="st0" d="M163,119.3h2.7l11.6,25.5h-3.1l-3-6.7h-13.8l-3,6.7h-2.9L163,119.3z M170,135.6l-5.8-12.9l-5.8,12.9H170z"/>
	</g>
</g>
<g id="Layer_2" class="st1">
	<text transform="matrix(1 0 0 1 0.4661 144.8649)" class="st2 st3 st4 st5">PLAZA</text>
</g>
</svg>
