<?xml version="1.0" encoding="utf-8"?>
<!-- Generator: Adobe Illustrator 23.0.3, SVG Export Plug-In . SVG Version: 6.00 Build 0)  -->
<svg version="1.1" id="Layer_1" xmlns="http://www.w3.org/2000/svg" xmlns:xlink="http://www.w3.org/1999/xlink" x="0px" y="0px"
	 viewBox="0 0 393.1 120.8" style="enable-background:new 0 0 393.1 120.8;" xml:space="preserve">
<style type="text/css">
	.st0{fill:#FFFFFF;}
</style>
<path class="st0" d="M41.8,35.8c-2,0-3.7-1.7-3.7-3.7c0-2,1.7-3.7,3.7-3.7c2,0,3.7,1.7,3.7,3.7C45.5,34.2,43.9,35.8,41.8,35.8z
	 M29.9,101.3c-2.8-0.8-4.6-2-5.8-2.7c-7.7-4.7-11-13.4-11-28.9c0,0,0-50,0-56S6.5,7.9,6.5,7.9v61.2c0,11.7,1.4,26.8,13.6,34.3
	C24.9,106.4,29.8,102.4,29.9,101.3z M47.1,88.2c1.1,1.1,2.4,2,3.8,2.9c4.8,2.9,9.7-1.1,9.7-2.2c-2.8-0.8-4.6-2-5.8-2.7
	c-1.4-0.9-2.8-1.9-3.9-3.1l0,0c-4-4.2-6-10.6-6-20.6c0,0,0-4.5,0-10s-6.5-5.3-6.5-5.3V62C38.5,70.6,39.5,81.6,47.1,88.2L47.1,88.2z
	 M85,84.8c0.1,0,0.2,0,0.3,0c0.1,0,0.3,0,0.4,0c0,0,0.1,0,0.1,0l0,0c2.9-0.4,5.1-3,5.7-3.8c4.9-6.5,11.6-17.6,16.9-33.8
	c-2.4-0.8-6.3-0.2-8,4.5C97,62.2,93.1,68.1,89.9,73.3c-1.4,2.2-2.6,3.5-3.7,4.3c-0.3,0.2-0.7,0.4-1.1,0.4c-0.4,0-0.7-0.1-1.1-0.4
	c-1.1-0.8-2.3-2.1-3.7-4.3c-3.2-5.2-7.2-11.1-10.7-21.7c-1.6-4.7-5.5-5.3-8-4.5C67,63.4,73.8,74.4,78.7,80.9
	c0.6,0.8,2.8,3.4,5.7,3.8l0,0c0,0,0.1,0,0.1,0c0.1,0,0.3,0,0.4,0c0.1,0,0.2,0,0.3,0 M124.2,30.7c0-0.1-0.1-0.1-0.2-0.1h-6.3
	c-0.1,0-0.1,0-0.2,0.1l-1.3,3.3h-2v-1.9l5.2-13.3h2.8l5.2,13.3V34h-2L124.2,30.7z M123,28.1c0.1,0,0.1,0,0.2-0.1c0,0,0-0.1,0-0.2
	l-2.1-5.4c0-0.1-0.1-0.1-0.2-0.1c-0.1,0-0.1,0-0.2,0.1l-2.1,5.4c0,0.1,0,0.1,0,0.2c0,0,0.1,0.1,0.2,0.1H123 M145.8,34h2.8l5.2-13
	v-2.2h-2l-4.5,11.6c0,0.1-0.1,0.1-0.2,0.1c-0.1,0-0.1,0-0.2-0.1l-4.5-11.6h-2V21L145.8,34z M131.5,34h2.5V21.5
	c0-0.1,0.1-0.2,0.2-0.2h4.2v-2.5h-11.1v2.5h4.1c0.1,0,0.2,0.1,0.2,0.2V34z"/>
<g>
	<path class="st0" d="M162.3,59.4h9.5c5.7,0,9.5,3,9.5,8v0.1c0,5.5-4.6,8.3-10,8.3h-6.2v8.9h-2.9V59.4z M171.5,73.2
		c4.2,0,7-2.2,7-5.6v-0.1c0-3.6-2.7-5.5-6.8-5.5h-6.4v11.2H171.5z"/>
	<path class="st0" d="M198.8,59.4h2.9v22.7H216v2.6h-17.1V59.4z"/>
	<path class="st0" d="M243,59.3h2.7l11.6,25.5h-3.1l-3-6.7h-13.8l-3,6.7h-2.9L243,59.3z M250,75.5l-5.8-12.9l-5.8,12.9H250z"/>
	<path class="st0" d="M273.3,82.9L289.7,62h-15.9v-2.6h19.8v1.9l-16.4,20.9h16.4v2.6h-20.3V82.9z"/>
	<path class="st0" d="M321.3,59.3h2.7l11.6,25.5h-3.1l-3-6.7h-13.8l-3,6.7h-2.9L321.3,59.3z M328.3,75.5l-5.8-12.9l-5.8,12.9H328.3z
		"/>
</g>
<g>
	<path class="st0" d="M162.2,114.8l0.6-0.8c0.9,0.9,1.9,1.3,3.1,1.3c1.2,0,2-0.7,2-1.5v0c0-0.8-0.5-1.3-2.4-1.7
		c-2.1-0.5-3.1-1.1-3.1-2.6v0c0-1.4,1.3-2.5,3-2.5c1.3,0,2.3,0.4,3.2,1.1l-0.6,0.8c-0.8-0.7-1.7-1-2.6-1c-1.2,0-1.9,0.7-1.9,1.5v0
		c0,0.9,0.5,1.3,2.5,1.8c2,0.4,3,1.2,3,2.6v0c0,1.6-1.3,2.6-3.1,2.6C164.5,116.2,163.3,115.8,162.2,114.8z"/>
	<path class="st0" d="M171.2,111.6L171.2,111.6c0-2.5,1.9-4.7,4.7-4.7c2.8,0,4.6,2.2,4.6,4.7v0c0,2.5-1.9,4.7-4.7,4.7
		C173.1,116.3,171.2,114.1,171.2,111.6z M179.5,111.6L179.5,111.6c0-2.1-1.5-3.8-3.6-3.8s-3.6,1.7-3.6,3.7v0c0,2.1,1.5,3.8,3.6,3.8
		S179.5,113.7,179.5,111.6z"/>
	<path class="st0" d="M183.2,107h1v8.2h5.1v0.9h-6.1V107z"/>
	<path class="st0" d="M191.8,107h6.6v0.9h-5.6v3.1h5v0.9h-5v3.2h5.6v0.9h-6.6V107z"/>
	<path class="st0" d="M201,107h3.9c1.1,0,2,0.3,2.6,0.9c0.4,0.4,0.7,1.1,0.7,1.8v0c0,1.5-1,2.4-2.5,2.7l2.8,3.7h-1.3l-2.6-3.5H202
		v3.5h-1V107z M204.8,111.7c1.4,0,2.3-0.7,2.3-1.9v0c0-1.1-0.9-1.8-2.3-1.8H202v3.7H204.8z"/>
	<path class="st0" d="M214.7,114.8l0.7-0.7c0.8,0.8,1.7,1.2,2.6,1.2c1.3,0,2.2-0.9,2.2-2v0c0-1.1-0.9-1.9-2.3-1.9
		c-0.8,0-1.4,0.2-1.9,0.5l-0.7-0.5l0.3-4.4h5.2v0.9h-4.3l-0.2,2.9c0.5-0.2,1-0.4,1.8-0.4c1.8,0,3.1,1.1,3.1,2.8v0c0,1.8-1.4,3-3.3,3
		C216.7,116.3,215.6,115.6,214.7,114.8z"/>
	<path class="st0" d="M228,107.9h-5V107h6.2v0.8l-4.1,8.3h-1.1L228,107.9z"/>
	<path class="st0" d="M230.8,114.8l0.7-0.7c0.8,0.8,1.7,1.2,2.6,1.2c1.3,0,2.2-0.9,2.2-2v0c0-1.1-0.9-1.9-2.3-1.9
		c-0.8,0-1.4,0.2-1.9,0.5l-0.7-0.5l0.3-4.4h5.2v0.9h-4.3l-0.2,2.9c0.5-0.2,1-0.4,1.8-0.4c1.8,0,3.1,1.1,3.1,2.8v0c0,1.8-1.4,3-3.3,3
		C232.7,116.3,231.6,115.6,230.8,114.8z"/>
	<path class="st0" d="M239.3,114.8l0.7-0.7c0.8,0.8,1.7,1.2,2.6,1.2c1.3,0,2.2-0.9,2.2-2v0c0-1.1-0.9-1.9-2.3-1.9
		c-0.8,0-1.4,0.2-1.9,0.5l-0.7-0.5l0.3-4.4h5.2v0.9H241l-0.2,2.9c0.5-0.2,1-0.4,1.8-0.4c1.8,0,3.1,1.1,3.1,2.8v0c0,1.8-1.4,3-3.3,3
		C241.2,116.3,240.1,115.6,239.3,114.8z"/>
	<path class="st0" d="M257.2,105.7h0.9l-6,12h-0.9L257.2,105.7z"/>
	<path class="st0" d="M263.9,111.6L263.9,111.6c0-2.5,1.8-4.7,4.6-4.7c1.5,0,2.5,0.4,3.4,1.2l-0.7,0.8c-0.7-0.6-1.5-1-2.8-1
		c-2,0-3.5,1.7-3.5,3.7v0c0,2.2,1.4,3.8,3.6,3.8c1,0,2-0.4,2.6-0.9v-2.3h-2.8v-0.9h3.8v3.6c-0.8,0.8-2.1,1.4-3.7,1.4
		C265.7,116.3,263.9,114.2,263.9,111.6z"/>
	<path class="st0" d="M274.9,112.3V107h1v5.2c0,2,1,3.1,2.8,3.1c1.7,0,2.7-1,2.7-3V107h1v5.2c0,2.7-1.5,4-3.8,4
		C276.4,116.3,274.9,114.9,274.9,112.3z"/>
	<path class="st0" d="M288.4,106.9h1l4.1,9.2h-1.1l-1.1-2.4h-5l-1.1,2.4h-1.1L288.4,106.9z M291,112.8l-2.1-4.6l-2.1,4.6H291z"/>
	<path class="st0" d="M297.1,108H294V107h7.2v0.9h-3.1v8.2h-1V108z"/>
	<path class="st0" d="M303.6,107h6.6v0.9h-5.6v3.1h5v0.9h-5v3.2h5.6v0.9h-6.6V107z"/>
	<path class="st0" d="M312.9,107h1l3.3,5l3.3-5h1v9.1h-1v-7.4l-3.3,4.9h-0.1l-3.3-4.9v7.4h-1V107z"/>
	<path class="st0" d="M328,106.9h1l4.1,9.2H332l-1.1-2.4h-5l-1.1,2.4h-1.1L328,106.9z M330.6,112.8l-2.1-4.6l-2.1,4.6H330.6z"/>
	<path class="st0" d="M335.5,107h1v8.2h5.1v0.9h-6.1V107z"/>
	<path class="st0" d="M347.4,106.9h1l4.1,9.2h-1.1l-1.1-2.4h-5l-1.1,2.4h-1.1L347.4,106.9z M349.9,112.8l-2.1-4.6l-2.1,4.6H349.9z"
		/>
	<path class="st0" d="M358.6,114.8l0.7-0.7c0.8,0.8,1.7,1.2,2.6,1.2c1.3,0,2.2-0.9,2.2-2v0c0-1.1-0.9-1.9-2.3-1.9
		c-0.8,0-1.4,0.2-1.9,0.5l-0.7-0.5l0.3-4.4h5.2v0.9h-4.3l-0.2,2.9c0.5-0.2,1-0.4,1.8-0.4c1.8,0,3.1,1.1,3.1,2.8v0c0,1.8-1.4,3-3.3,3
		C360.6,116.3,359.4,115.6,358.6,114.8z"/>
	<path class="st0" d="M371.9,107.9h-5V107h6.2v0.8l-4.1,8.3h-1.1L371.9,107.9z"/>
	<path class="st0" d="M374.7,114.8l0.7-0.7c0.8,0.8,1.7,1.2,2.6,1.2c1.3,0,2.2-0.9,2.2-2v0c0-1.1-0.9-1.9-2.3-1.9
		c-0.8,0-1.4,0.2-1.9,0.5l-0.7-0.5l0.3-4.4h5.2v0.9h-4.3l-0.2,2.9c0.5-0.2,1-0.4,1.8-0.4c1.8,0,3.1,1.1,3.1,2.8v0c0,1.8-1.4,3-3.3,3
		C376.6,116.3,375.5,115.6,374.7,114.8z"/>
	<path class="st0" d="M383.3,111.6L383.3,111.6c0-2.6,1.5-4.7,3.9-4.7s3.8,2.1,3.8,4.7v0c0,2.5-1.5,4.7-3.8,4.7
		C384.7,116.3,383.3,114.1,383.3,111.6z M389.9,111.6L389.9,111.6c0-2-1.1-3.8-2.8-3.8c-1.7,0-2.8,1.7-2.8,3.7v0
		c0,2,1.1,3.8,2.8,3.8S389.9,113.6,389.9,111.6z"/>
</g>
</svg>
