<?xml version="1.0" encoding="utf-8"?>
<!-- Generator: Adobe Illustrator 23.0.3, SVG Export Plug-In . SVG Version: 6.00 Build 0)  -->
<svg version="1.1" id="Layer_1" xmlns="http://www.w3.org/2000/svg" xmlns:xlink="http://www.w3.org/1999/xlink" x="0px" y="0px"
	 viewBox="0 0 381 284.4" style="enable-background:new 0 0 381 284.4;" xml:space="preserve">
<style type="text/css">
	.st0{fill:#7A5961;}
</style>
<path class="st0" d="M71.4,54.1c-2.9,0-5.4-2.5-5.4-5.4s2.5-5.4,5.4-5.4s5.4,2.5,5.4,5.4C76.8,51.8,74.5,54.1,71.4,54.1z M54,150.2
	c-4.1-1.2-6.7-2.9-8.5-4c-11.3-6.9-16.1-19.7-16.1-42.4c0,0,0-73.3,0-82.1s-9.7-8.5-9.7-8.5V103c0,17.2,2.1,39.3,19.9,50.3
	C46.6,157.7,53.8,151.8,54,150.2z M79.2,131c1.6,1.6,3.5,2.9,5.6,4.3c7,4.3,14.2-1.6,14.2-3.2c-4.1-1.2-6.7-2.9-8.5-4
	c-2.1-1.3-4.1-2.8-5.7-4.5l0,0c-5.9-6.2-8.8-15.5-8.8-30.2c0,0,0-6.6,0-14.7s-9.5-7.8-9.5-7.8v21.7C66.6,105.2,68,121.3,79.2,131
	L79.2,131z M134.8,126c0.1,0,0.3,0,0.4,0s0.4,0,0.6,0h0.1l0,0c4.3-0.6,7.5-4.4,8.4-5.6c7.2-9.5,17-25.8,24.8-49.6
	c-3.5-1.2-9.2-0.3-11.7,6.6c-5,15.4-10.7,24.1-15.4,31.7c-2.1,3.2-3.8,5.1-5.4,6.3c-0.4,0.3-1,0.6-1.6,0.6s-1-0.1-1.6-0.6
	c-1.6-1.2-3.4-3.1-5.4-6.3c-4.7-7.6-10.6-16.3-15.7-31.8c-2.3-6.9-8.1-7.8-11.7-6.6c7.9,23.9,17.9,40,25.1,49.6
	c0.9,1.2,4.1,5,8.4,5.6l0,0h0.1c0.1,0,0.4,0,0.6,0s0.3,0,0.4,0 M192.3,46.6c0-0.1-0.1-0.1-0.3-0.1h-9.2c-0.1,0-0.1,0-0.3,0.1
	l-1.9,4.8h-2.9v-2.8l7.6-19.5h4.1l7.6,19.5v2.8H194L192.3,46.6z M190.5,42.8c0.1,0,0.1,0,0.3-0.1c0,0,0-0.1,0-0.3l-3.1-7.9
	c0-0.1-0.1-0.1-0.3-0.1s-0.1,0-0.3,0.1l-3.1,7.9c0,0.1,0,0.1,0,0.3c0,0,0.1,0.1,0.3,0.1H190.5 M224,51.5h4.1l7.6-19.1v-3.2h-2.9
	l-6.6,17c0,0.1-0.1,0.1-0.3,0.1s-0.1,0-0.3-0.1l-6.6-17H216v3.2L224,51.5z M203,51.5h3.7V33.1c0-0.1,0.1-0.3,0.3-0.3h6.2v-3.7h-16.3
	v3.7h6c0.1,0,0.3,0.1,0.3,0.3L203,51.5L203,51.5z"/>
<g>
	<path class="st0" d="M22.3,199.8h13.9c8.4,0,13.9,4.4,13.9,11.7v0.1c0,8.1-6.7,12.2-14.7,12.2h-9.1v13.1h-4.3L22.3,199.8
		L22.3,199.8z M35.8,220c6.2,0,10.3-3.2,10.3-8.2v-0.1c0-5.3-4-8.1-10-8.1h-9.4V220H35.8z"/>
	<path class="st0" d="M75.9,199.8h4.3v33.3h21v3.8H76L75.9,199.8L75.9,199.8z"/>
	<path class="st0" d="M140.7,199.6h4l17,37.4h-4.5l-4.4-9.8h-20.2l-4.4,9.8h-4.3L140.7,199.6z M151,223.4l-8.5-18.9l-8.5,18.9H151z"
		/>
	<path class="st0" d="M185.2,234.2l24.1-30.7h-23.3v-3.8h29v2.8l-24.1,30.7h24.1v3.8h-29.8L185.2,234.2L185.2,234.2z"/>
	<path class="st0" d="M255.6,199.6h4l17,37.4H272l-4.4-9.8h-20.2L243,237h-4.3L255.6,199.6z M265.8,223.4l-8.5-18.9l-8.5,18.9H265.8
		z"/>
</g>
<g>
	<path class="st0" d="M22.2,281l0.9-1.2c1.3,1.3,2.8,1.9,4.5,1.9c1.8,0,2.9-1,2.9-2.2l0,0c0-1.2-0.7-1.9-3.5-2.5
		c-3.1-0.7-4.5-1.6-4.5-3.8l0,0c0-2.1,1.9-3.7,4.4-3.7c1.9,0,3.4,0.6,4.7,1.6l-0.9,1.2c-1.2-1-2.5-1.5-3.8-1.5c-1.8,0-2.8,1-2.8,2.2
		l0,0c0,1.3,0.7,1.9,3.7,2.6c2.9,0.6,4.4,1.8,4.4,3.8l0,0c0,2.3-1.9,3.8-4.5,3.8C25.6,283.1,23.8,282.5,22.2,281z"/>
	<path class="st0" d="M35.4,276.3L35.4,276.3c0-3.7,2.8-6.9,6.9-6.9s6.7,3.2,6.7,6.9l0,0c0,3.7-2.8,6.9-6.9,6.9
		C38.2,283.2,35.4,280,35.4,276.3z M47.6,276.3L47.6,276.3c0-3.1-2.2-5.6-5.3-5.6c-3.1,0-5.3,2.5-5.3,5.4l0,0c0,3.1,2.2,5.6,5.3,5.6
		C45.4,281.8,47.6,279.4,47.6,276.3z"/>
	<path class="st0" d="M53,269.6h1.5v12H62v1.3H53V269.6z"/>
	<path class="st0" d="M65.6,269.6h9.7v1.3h-8.2v4.5h7.3v1.3h-7.3v4.7h8.2v1.3h-9.7V269.6z"/>
	<path class="st0" d="M79.1,269.6h5.7c1.6,0,2.9,0.4,3.8,1.3c0.6,0.6,1,1.6,1,2.6l0,0c0,2.2-1.5,3.5-3.7,4l4.1,5.4h-1.9l-3.8-5.1
		h-3.8v5.1h-1.5V269.6z M84.7,276.5c2.1,0,3.4-1,3.4-2.8l0,0c0-1.6-1.3-2.6-3.4-2.6h-4.1v5.4C80.6,276.5,84.7,276.5,84.7,276.5z"/>
	<path class="st0" d="M99.2,281l1-1c1.2,1.2,2.5,1.8,3.8,1.8c1.9,0,3.2-1.3,3.2-2.9l0,0c0-1.6-1.3-2.8-3.4-2.8
		c-1.2,0-2.1,0.3-2.8,0.7l-1-0.7l0.4-6.5h7.6v1.3h-6.3l-0.3,4.3c0.7-0.3,1.5-0.6,2.6-0.6c2.6,0,4.5,1.6,4.5,4.1l0,0
		c0,2.6-2.1,4.4-4.8,4.4C102.1,283.2,100.5,282.2,99.2,281z"/>
	<path class="st0" d="M118.7,270.9h-7.3v-1.3h9.1v1.2l-6,12.2h-1.6L118.7,270.9z"/>
	<path class="st0" d="M122.8,281l1-1c1.2,1.2,2.5,1.8,3.8,1.8c1.9,0,3.2-1.3,3.2-2.9l0,0c0-1.6-1.3-2.8-3.4-2.8
		c-1.2,0-2.1,0.3-2.8,0.7l-1-0.7l0.4-6.5h7.6v1.3h-6.3l-0.3,4.3c0.7-0.3,1.5-0.6,2.6-0.6c2.6,0,4.5,1.6,4.5,4.1l0,0
		c0,2.6-2.1,4.4-4.8,4.4C125.6,283.2,124,282.2,122.8,281z"/>
	<path class="st0" d="M135.3,281l1-1c1.2,1.2,2.5,1.8,3.8,1.8c1.9,0,3.2-1.3,3.2-2.9l0,0c0-1.6-1.3-2.8-3.4-2.8
		c-1.2,0-2.1,0.3-2.8,0.7l-1-0.7l0.4-6.5h7.6v1.3h-6.5l-0.3,4.3c0.7-0.3,1.5-0.6,2.6-0.6c2.6,0,4.5,1.6,4.5,4.1l0,0
		c0,2.6-2.1,4.4-4.8,4.4C138.1,283.2,136.5,282.2,135.3,281z"/>
	<path class="st0" d="M161.6,267.7h1.3l-8.8,17.6h-1.3L161.6,267.7z"/>
	<path class="st0" d="M171.4,276.3L171.4,276.3c0-3.7,2.6-6.9,6.7-6.9c2.2,0,3.7,0.6,5,1.8l-1,1.2c-1-0.9-2.2-1.5-4.1-1.5
		c-2.9,0-5.1,2.5-5.1,5.4l0,0c0,3.2,2.1,5.6,5.3,5.6c1.5,0,2.9-0.6,3.8-1.3v-3.4h-4.1v-1.3h5.6v5.3c-1.2,1.2-3.1,2.1-5.4,2.1
		C174,283.2,171.4,280.1,171.4,276.3z"/>
	<path class="st0" d="M187.5,277.4v-7.8h1.5v7.6c0,2.9,1.5,4.5,4.1,4.5c2.5,0,4-1.5,4-4.4v-7.8h1.5v7.6c0,4-2.2,5.9-5.6,5.9
		C189.7,283.2,187.5,281.2,187.5,277.4z"/>
	<path class="st0" d="M207.3,269.4h1.5l6,13.5h-1.6l-1.6-3.5h-7.3l-1.6,3.5H201L207.3,269.4z M211.1,278.1l-3.1-6.7l-3.1,6.7H211.1z
		"/>
	<path class="st0" d="M220.1,271.1h-4.5v-1.5h10.6v1.3h-4.5v12h-1.5V271.1z"/>
	<path class="st0" d="M229.6,269.6h9.7v1.3h-8.2v4.5h7.3v1.3h-7.3v4.7h8.2v1.3h-9.7V269.6z"/>
	<path class="st0" d="M243.3,269.6h1.5l4.8,7.3l4.8-7.3h1.5v13.3h-1.5v-10.9l-4.8,7.2h-0.1l-4.8-7.2v10.9h-1.5v-13.3H243.3z"/>
	<path class="st0" d="M265.4,269.4h1.5l6,13.5h-1.6l-1.6-3.5h-7.3l-1.6,3.5h-1.6L265.4,269.4z M269.2,278.1l-3.1-6.7l-3.1,6.7H269.2
		z"/>
	<path class="st0" d="M276.4,269.6h1.5v12h7.5v1.3h-8.9V269.6z"/>
	<path class="st0" d="M293.9,269.4h1.5l6,13.5h-1.6l-1.6-3.5h-7.3l-1.6,3.5h-1.6L293.9,269.4z M297.5,278.1l-3.1-6.7l-3.1,6.7H297.5
		z"/>
	<path class="st0" d="M310.3,281l1-1c1.2,1.2,2.5,1.8,3.8,1.8c1.9,0,3.2-1.3,3.2-2.9l0,0c0-1.6-1.3-2.8-3.4-2.8
		c-1.2,0-2.1,0.3-2.8,0.7l-1-0.7l0.4-6.5h7.6v1.3h-6.3l-0.3,4.3c0.7-0.3,1.5-0.6,2.6-0.6c2.6,0,4.5,1.6,4.5,4.1l0,0
		c0,2.6-2.1,4.4-4.8,4.4C313.2,283.2,311.5,282.2,310.3,281z"/>
	<path class="st0" d="M329.8,270.9h-7.3v-1.3h9.1v1.2l-6,12.2h-1.6L329.8,270.9z"/>
	<path class="st0" d="M333.9,281l1-1c1.2,1.2,2.5,1.8,3.8,1.8c1.9,0,3.2-1.3,3.2-2.9l0,0c0-1.6-1.3-2.8-3.4-2.8
		c-1.2,0-2.1,0.3-2.8,0.7l-1-0.7l0.4-6.5h7.6v1.3h-6.3l-0.3,4.3c0.7-0.3,1.5-0.6,2.6-0.6c2.6,0,4.5,1.6,4.5,4.1l0,0
		c0,2.6-2.1,4.4-4.8,4.4C336.7,283.2,335.1,282.2,333.9,281z"/>
	<path class="st0" d="M346.5,276.3L346.5,276.3c0-3.8,2.2-6.9,5.7-6.9c3.5,0,5.6,3.1,5.6,6.9l0,0c0,3.7-2.2,6.9-5.6,6.9
		C348.6,283.2,346.5,280,346.5,276.3z M356.2,276.3L356.2,276.3c0-2.9-1.6-5.6-4.1-5.6c-2.5,0-4.1,2.5-4.1,5.4l0,0
		c0,2.9,1.6,5.6,4.1,5.6S356.2,279.3,356.2,276.3z"/>
</g>
</svg>
