<svg xmlns="http://www.w3.org/2000/svg" viewBox="0 0 1023.73 416.39"><defs><style>.cls-1{fill:none;stroke:#ccc;stroke-width:3px;}.cls-1,.cls-2{stroke-miterlimit:10;}.cls-2{fill:#ccc;stroke:#fff;stroke-width:5px;}.cls-3{font-size:24px;fill:#000;font-family:'HOKSansProMedium', HOK Sans Pro;font-weight:500;letter-spacing:-0.01em;}.unidades.active .cls-3{fill:#1ecad3;}</style></defs><g id="Capa_2" data-name="Capa 2"><g id="Layer_1" data-name="Layer 1"><polygon class="cls-1" points="1022.23 414.89 1.5 414.89 1.5 407.67 1.5 9.44 1.5 1.5 1022.23 1.5 1022.23 414.89"/><g class="unidades" id="u301"><polygon class="cls-2" points="277.14 404.88 9.71 404.88 9.71 397.66 9.71 397.66 9.71 276.15 125.26 276.15 125.26 315.94 277.14 315.94 277.14 404.88"/><text class="cls-3" transform="translate(102.44 369.66)">U301</text></g><g class="unidades" id="u302"><rect class="cls-2" x="9.8" y="98.28" width="147.98" height="177.88"/><text class="cls-3" transform="translate(49.68 197.29)">U301</text></g><g class="unidades" id="u303"><rect class="cls-2" x="158.13" y="98.28" width="156.28" height="177.88"/><text class="cls-3" transform="translate(202.17 197.29)">U303</text></g><g class="unidades" id="u304"><rect class="cls-2" x="314.76" y="98.28" width="157.28" height="177.88"/><text class="cls-3" transform="translate(359.42 197.29)">U304</text></g><g class="unidades" id="u305"><rect class="cls-2" x="472.4" y="98.28" width="157.28" height="177.88"/><text class="cls-3" transform="translate(517.05 197.29)">U305</text></g><g class="unidades" id="u306"><rect class="cls-2" x="629.68" y="98.28" width="157.28" height="177.88"/><text class="cls-3" transform="translate(674.33 197.29)">U306</text></g><g class="unidades" id="u307"><rect class="cls-2" x="786.66" y="98.28" width="157.28" height="177.88"/><text class="cls-3" transform="translate(831.2 197.29)">U307</text></g><g class="unidades" id="u308"><polygon class="cls-2" points="865.3 404.88 1012.22 404.88 1012.22 98.28 943.94 98.28 943.94 276.15 915.07 276.15 915.07 315.94 865.3 315.94 865.3 404.88"/><text class="cls-3" transform="translate(909.84 369.66)">U308</text></g></g></g></svg>