<svg xmlns="http://www.w3.org/2000/svg" viewBox="0 0 1023.73 416.39"><defs><style>.cls-1{fill:none;stroke:#ccc;stroke-width:3px;}.cls-1,.cls-2{stroke-miterlimit:10;}.cls-2{fill:#ccc;stroke:#fff;stroke-width:5px;}.cls-3{font-size:24px;fill:#000;font-family:'HOKSansProMedium', HOK Sans Pro;font-weight:500;letter-spacing:-0.01em;}.unidades.active .cls-3{fill:#1ecad3;}</style></defs><g id="Capa_2" data-name="Capa 2"><g id="Layer_1" data-name="Layer 1"><polygon class="cls-1" points="1022.23 414.89 1.5 414.89 1.5 407.67 1.5 9.44 1.5 1.5 1022.23 1.5 1022.23 414.89"/><g class="unidades" id="u601"><polygon class="cls-2" points="292.09 404.88 9.71 404.88 9.71 397.66 9.71 97.75 236.18 97.75 236.18 315.94 292.09 315.94 292.09 404.88"/><text class="cls-3" transform="translate(88.72 260.67)">U601</text></g><g class="unidades" id="u605"><polygon class="cls-2" points="863.77 404.88 1012.22 404.88 1012.22 98.28 943.94 98.28 825.72 97.75 825.72 276.15 825.72 315.94 863.77 315.94 863.77 404.88"/><text class="cls-3" transform="translate(884.99 260.67)">U605</text></g><g class="unidades" id="u602"><rect class="cls-2" x="236.18" y="97.75" width="197.18" height="178.38"/><text class="cls-3" transform="translate(300.67 197.29)">U602</text></g><g class="unidades" id="u603"><rect class="cls-2" x="433.36" y="97.75" width="196.18" height="178.38"/><text class="cls-3" transform="translate(497.35 197.29)">U603</text></g><g class="unidades" id="u604"><rect class="cls-2" x="629.54" y="97.75" width="196.18" height="178.38"/><text class="cls-3" transform="translate(694.02 197.29)">U604</text></g></g></g></svg>