<svg xmlns="http://www.w3.org/2000/svg" viewBox="0 0 1035.44 416.39"><defs><style>.cls-1{fill:none;stroke:#ccc;stroke-width:3px;}.cls-1,.cls-2{stroke-miterlimit:10;}.cls-2{fill:#ccc;stroke:#fff;stroke-width:5px;}.cls-3{font-size:24px;fill:#000;font-family:'HOKSansProMedium', HOK Sans Pro;font-weight:500;letter-spacing:-0.01em;}.unidades.active .cls-3{fill:#1ecad3;}</style></defs><g id="Capa_2" data-name="Capa 2"><g id="Layer_1" data-name="Layer 1"><polygon class="cls-1" points="1033.94 414.89 13.22 414.89 13.22 407.67 1.5 407.67 1.5 9.42 13.22 9.44 13.22 1.5 1033.94 1.5 1033.94 414.89"/><rect class="cls-2" x="326.48" y="11.51" width="157.28" height="264.65"/><g class="unidades" id="u102"><polygon class="cls-2" points="169.5 276.15 11.51 276.15 11.51 19.43 23.22 19.44 23.22 11.51 169.5 11.51 169.5 276.15"/><text class="cls-3" transform="translate(56.4 156.19)">U102</text></g><g class="unidades" id="u103"><rect class="cls-2" x="169.85" y="11.51" width="156.28" height="264.65"/><text class="cls-3" transform="translate(213.88 156.19)">U103</text></g><text class="cls-3" transform="translate(371.37 156.19)">U104</text><g class="unidades" id="u105"><rect class="cls-2" x="484.11" y="11.51" width="157.28" height="264.65"/><text class="cls-3" transform="translate(528.86 156.19)">U105</text></g><g class="unidades" id="u106"><rect class="cls-2" x="641.75" y="98.28" width="156.28" height="177.88"/><text class="cls-3" transform="translate(686.35 197.58)">U106</text></g><g class="unidades" id="u101"><polygon class="cls-2" points="327.36 404.88 23.22 404.88 23.22 397.66 11.42 397.66 11.42 276.15 136.98 276.15 136.98 315.94 327.36 315.94 327.36 404.88"/><text class="cls-3" transform="translate(129.64 369.66)">U101</text></g><g class="unidades" id="u108"><polygon class="cls-2" points="798.38 404.88 1023.94 404.88 1023.94 98.28 955.66 98.28 955.66 276.15 926.78 276.15 926.78 315.94 798.38 315.94 798.38 404.88"/><text class="cls-3" transform="translate(877.05 369.66)">U108</text></g><g class="unidades" id="u107"><rect class="cls-2" x="798.38" y="98.28" width="157.28" height="177.88"/><text class="cls-3" transform="translate(842.91 197.58)">U107</text></g></g></g></svg>