<?xml version="1.0" encoding="utf-8"?>
<!-- Generator: Adobe Illustrator 22.1.0, SVG Export Plug-In . SVG Version: 6.00 Build 0)  -->
<svg version="1.1" id="Capa_1" xmlns="http://www.w3.org/2000/svg" xmlns:xlink="http://www.w3.org/1999/xlink" x="0px" y="0px"
	 viewBox="0 0 438 386" style="enable-background:new 0 0 438 386;" xml:space="preserve">
<style type="text/css">
	.st0{fill:#3A6A5E;}
	.st1{fill:#3A6A5E;stroke:#3A6A5E;stroke-width:2;stroke-linecap:round;stroke-linejoin:round;stroke-miterlimit:10;}
</style>
<g>
	<g>
		<circle class="st0" cx="173.5" cy="78.3" r="12"/>
	</g>
	<path class="st0" d="M103.5,308.6c-39.4-24.3-44.1-72.8-44.1-110.8V0c0,0,21-0.7,21,18.6s0,180.8,0,180.8c0,50.2,10.6,78,35.6,93.4
		c3.8,2.4,9.7,5.9,18.6,8.7C134.8,305.3,119,318,103.5,308.6z"/>
	<path class="st0" d="M190.7,259.3c-24.5-21.5-28.1-56.8-28.1-84.6v-47.9c0,0,21-0.5,21,17.2c0,17.9,0,32.3,0,32.3
		c0,32.3,6.4,53,19.3,66.5l0,0c3.8,3.8,8,7.1,12.5,9.9c3.8,2.4,9.7,5.9,18.6,8.7c0,3.5-16,16.5-31.4,7.1
		C198.5,265.7,194.5,262.6,190.7,259.3L190.7,259.3z"/>
	<path class="st0" d="M313.3,248.2c0.2,0,0.7,0,0.9,0c0.5,0,0.9,0,1.2,0c0.2,0,0.2,0,0.5,0l0,0c9.4-1.4,16.5-9.7,18.4-12.3
		c15.8-21,37.5-56.8,54.7-109.1c-7.8-2.6-20.5-0.7-25.7,14.4c-11.3,34.2-24,53.3-34.4,70c-4.5,7.1-8.5,11.6-11.8,13.9
		c-1.2,0.7-2.4,1.2-3.5,1.2c-1.2,0-2.4-0.5-3.5-1.2c-3.5-2.6-7.3-6.8-11.8-13.9c-10.4-16.7-23.1-35.8-34.4-70
		c-5.4-15.1-17.9-17-25.7-14.4c17.2,52.6,38.9,88.4,54.7,109.1c1.9,2.6,9,10.8,18.4,12.3l0,0c0.2,0,0.2,0,0.5,0c0.5,0,0.9,0,1.2,0
		c0.2,0,0.7,0,0.9,0"/>
</g>
<g>
	<path class="st1" d="M31,367.6c0.3,0,0.4,0.2,0.4,0.4c0,9.9-6.4,15.6-14.6,15.6c-8.8,0-14.9-7.2-14.9-17.3
		c0-10.2,6.4-17.3,15.3-17.3c5.9,0,10.6,3.2,12.7,8c0.1,0.2,0,0.4-0.3,0.4h-1c-0.2,0-0.4-0.1-0.5-0.3c-2.1-3.9-5.9-6.5-11-6.5
		c-7.8,0-13.4,6.2-13.4,15.6S9.1,382,16.9,382c6.5,0,12.1-4.2,12.6-12.6h-9.6c-0.2,0-0.4-0.1-0.4-0.4v-1c0-0.2,0.1-0.4,0.4-0.4H31z"
		/>
	<path class="st1" d="M85.3,368.6c0,9.7-5.6,15-13.2,15c-7.7,0-13-5.2-13-15v-18.9c0-0.2,0.1-0.4,0.4-0.4h1c0.2,0,0.4,0.1,0.4,0.4
		v18.8c0,8.9,4.6,13.4,11.3,13.4s11.3-4.5,11.4-13.4v-18.8c0-0.2,0.1-0.4,0.4-0.4h1c0.2,0,0.4,0.1,0.4,0.4L85.3,368.6z"/>
	<path class="st1" d="M116.7,371.8l-4.2,11.2c0,0.2-0.2,0.3-0.4,0.3h-1c-0.3,0-0.4-0.2-0.3-0.4l12.5-33.2c0-0.2,0.2-0.3,0.4-0.3h1.4
		c0.2,0,0.4,0.1,0.4,0.3l12.5,33.2c0.1,0.2,0,0.4-0.3,0.4h-1.1c-0.2,0-0.4-0.1-0.4-0.3l-4.2-11.2H116.7z M124.5,351.6h-0.2
		l-6.9,18.4h14L124.5,351.6z"/>
	<path class="st1" d="M181.1,350.6c0,0.2-0.1,0.4-0.4,0.4h-11.1l0.1,31.9c0,0.2-0.1,0.4-0.4,0.4h-1.2c-0.2,0-0.4-0.1-0.4-0.4
		l0.1-31.9h-11.1c-0.2,0-0.4-0.1-0.4-0.4v-0.9c0-0.2,0.1-0.4,0.4-0.4h23.9c0.2,0,0.4,0.1,0.4,0.4L181.1,350.6L181.1,350.6z"/>
	<path class="st1" d="M226.4,381.6c0.2,0,0.4,0.1,0.4,0.4v0.9c0,0.2-0.1,0.4-0.4,0.4h-20c-0.2,0-0.4-0.1-0.4-0.4v-33.2
		c0-0.2,0.1-0.4,0.4-0.4h19.7c0.2,0,0.4,0.1,0.4,0.4v0.9c0,0.2-0.1,0.4-0.4,0.4h-18.3v13.5h15.4c0.2,0,0.4,0.1,0.4,0.4v0.9
		c0,0.2-0.1,0.4-0.4,0.4h-15.4v15.5L226.4,381.6L226.4,381.6z"/>
	<path class="st1" d="M284.2,383.3c-0.2,0-0.4-0.1-0.4-0.4l-0.4-32L270.7,383c0,0.2-0.2,0.3-0.4,0.3H269c-0.2,0-0.4-0.1-0.4-0.3
		l-12.7-32.1l-0.5,32c0,0.2-0.1,0.4-0.4,0.4h-1c-0.2,0-0.4-0.1-0.4-0.4l0.7-33.2c0-0.2,0.1-0.4,0.4-0.4h2c0.2,0,0.4,0.1,0.4,0.3
		l12.6,31.8l12.7-31.8c0-0.2,0.2-0.3,0.4-0.3h1.9c0.2,0,0.4,0.1,0.4,0.4l0.7,33.2c0,0.2-0.1,0.4-0.4,0.4H284.2L284.2,383.3z"/>
	<path class="st1" d="M317.2,371.8L313,383c0,0.2-0.2,0.3-0.4,0.3h-1c-0.3,0-0.4-0.2-0.3-0.4l12.5-33.2c0-0.2,0.2-0.3,0.4-0.3h1.4
		c0.2,0,0.4,0.1,0.4,0.3l12.5,33.2c0.1,0.2,0,0.4-0.3,0.4h-1.1c-0.2,0-0.4-0.1-0.4-0.3l-4.2-11.2H317.2z M324.9,351.6h-0.2
		l-6.9,18.4h14L324.9,351.6z"/>
	<path class="st1" d="M384.2,381.6c0.2,0,0.4,0.1,0.4,0.4v0.9c0,0.2-0.1,0.4-0.4,0.4h-19.9c-0.2,0-0.4-0.1-0.4-0.4v-33.2
		c0-0.2,0.1-0.4,0.4-0.4h1.1c0.2,0,0.4,0.1,0.4,0.4v31.9L384.2,381.6L384.2,381.6z"/>
	<path class="st1" d="M413.7,371.8l-4.2,11.2c0,0.2-0.2,0.3-0.4,0.3h-1c-0.3,0-0.4-0.2-0.3-0.4l12.5-33.2c0-0.2,0.2-0.3,0.4-0.3h1.4
		c0.2,0,0.4,0.1,0.4,0.3l12.5,33.2c0.1,0.2,0,0.4-0.3,0.4h-1.1c-0.2,0-0.4-0.1-0.4-0.3l-4.2-11.2H413.7z M421.5,351.6h-0.2
		l-6.9,18.4h14L421.5,351.6z"/>
</g>
</svg>
