<svg xmlns="http://www.w3.org/2000/svg" viewBox="0 0 783.21 653.45"><defs><style>.uncls-1{fill:none;stroke:#ccc;stroke-width:3px;}.uncls-1,.uncls-2{stroke-miterlimit:10;}.uncls-2{fill:#ccc;stroke:#fff;stroke-width:5px;}.uncls-3{font-size:24px;fill:#004c73;font-family:'HOKSansProMedium';font-weight:500;letter-spacing:-0.01em;}</style></defs><g id="Capa_2" data-name="Capa 2"><g id="Layer_1" data-name="Layer 1"><polygon class="uncls-1" points="781.71 651.96 1.5 651.96 1.5 266.24 210.42 266.24 210.42 1.5 781.71 1.5 781.71 651.96"/><g class="unidades" id="u201"><rect class="uncls-2" x="11.51" y="345.19" width="187.8" height="295.64"/><text class="uncls-3" transform="translate(71.42 500.65)">U201</text></g><g class="unidades" id="u202"><rect class="uncls-2" x="199.3" y="345.19" width="188.03" height="295.64"/><text class="uncls-3" transform="translate(259.22 500.65)">U202</text></g><g class="unidades" id="u203"><rect class="uncls-2" x="387.34" y="345.19" width="187.62" height="295.64"/><text class="uncls-3" transform="translate(447.01 500.65)">U203</text></g><g class="unidades" id="u204"><rect class="uncls-2" x="574.95" y="345.19" width="196.75" height="295.64"/><text class="uncls-3" transform="translate(634.81 500.65)">U204</text></g><g class="unidades" id="u205"><polygon class="uncls-2" points="481.47 297.38 481.47 104.85 771.71 104.85 771.71 345.19 614.57 345.19 614.57 297.57 481.47 297.38"/><text class="uncls-3" transform="translate(592.6 213.94)">U205</text></g><g class="unidades" id="u206"><polygon class="uncls-2" points="481.47 297.38 481.47 104.85 393.69 104.85 393.69 11.51 220.43 11.51 220.43 240.06 321.72 240.06 321.72 296.4 481.47 297.38"/><text class="uncls-3" transform="translate(316.97 162.09)">U206</text></g></g></g></svg>