<?xml version="1.0" encoding="utf-8"?>
<!-- Generator: Adobe Illustrator 23.0.2, SVG Export Plug-In . SVG Version: 6.00 Build 0)  -->
<svg version="1.1" id="Capa_1" xmlns="http://www.w3.org/2000/svg" xmlns:xlink="http://www.w3.org/1999/xlink" x="0px" y="0px"
	 viewBox="0 0 178.5 161.4" style="enable-background:new 0 0 178.5 161.4;" xml:space="preserve">
<style type="text/css">
	.st0{fill:#97B23C;}
</style>
<g>
	<path class="st0" d="M33.1,43.3h5.6v-5.5L24,0h-8L1.2,37.8v5.5h5.6l3.7-9.5c0.1-0.2,0.3-0.3,0.5-0.3h18c0.2,0,0.4,0.1,0.5,0.3
		L33.1,43.3z M25.8,26.6H14.1c-0.2,0-0.3-0.1-0.4-0.2c-0.1-0.1-0.1-0.3-0.1-0.5l5.9-15.4c0.1-0.2,0.3-0.3,0.5-0.3s0.4,0.1,0.5,0.3
		l5.9,15.4c0.1,0.2,0,0.3-0.1,0.5C26.1,26.5,26,26.6,25.8,26.6"/>
	<path class="st0" d="M90.6,43.3h8l14.7-37V0h-5.6L95.1,32.9c-0.1,0.2-0.3,0.3-0.5,0.3s-0.4-0.1-0.5-0.3L81.4,0h-5.6v6.3L90.6,43.3z
		"/>
	<path class="st0" d="M50,43.3h7.2V7.7c0-0.3,0.2-0.5,0.5-0.5h11.8V0H37.9v7.2h11.5c0.3,0,0.5,0.2,0.5,0.5L50,43.3L50,43.3z"/>
	<path class="st0" d="M11.7,53.5L19.9,77h-3L15,71.4c0-0.1-0.1-0.2-0.2-0.2H5.2c-0.1,0-0.2,0-0.2,0.1L3.2,77h-3l7.9-23.5H11.7z
		 M13.8,68.3L10,56.9c0-0.1-0.2-0.1-0.2,0L6.1,68.3c0,0.1,0,0.1,0.1,0.1L13.8,68.3C13.8,68.4,13.8,68.3,13.8,68.3"/>
	<path class="st0" d="M35.5,56.5C35.5,56.4,35.5,56.4,35.5,56.5l-14-0.1v-2.9h17.6v3.1L24.9,74c0,0.1,0,0.2,0.1,0.2h13.9V77H21.2
		v-3.1L35.5,56.5z"/>
	<path class="st0" d="M43,68.3V53.5h2.9v14.9c0,4.2,2.1,6.3,5.4,6.3c3.3,0,5.4-2.2,5.4-6.3V53.5h2.9v14.9c0,5.5-3.2,9.2-8.3,9.2
		C46.3,77.6,43,73.9,43,68.3"/>
	<path class="st0" d="M75.8,53.5c3.6,0,6.3,2.6,6.3,6c0,2.3-1.2,4.2-3.3,5.1c2.4,1,3.8,3.2,3.8,5.8c0,3.7-3,6.6-6.9,6.6h-10V53.5
		H75.8z M79.2,59.7c0-1.9-1.5-3.4-3.4-3.4h-7.1c-0.1,0-0.1,0.1-0.1,0.1v6.7c0,0.1,0.1,0.1,0.1,0.1h7.1
		C77.7,63.3,79.2,61.6,79.2,59.7 M79.8,70.1c0-2.2-1.8-4.2-4.1-4.2h-7c-0.1,0-0.1,0.1-0.1,0.2v8c0,0.1,0.1,0.1,0.1,0.1h7
		C78,74.1,79.8,72.3,79.8,70.1"/>
	<path class="st0" d="M103.9,53.5v2.8H90.5c-0.1,0-0.2,0-0.2,0.1v7.2c0,0.1,0.1,0.2,0.2,0.2h11.7v2.8H90.5c-0.1,0-0.2,0-0.2,0.1V74
		c0,0.1,0.1,0.2,0.2,0.2h13.4V77H87.5V53.5H103.9z"/>
	<path class="st0" d="M111,53.4V74c0,0.1,0.1,0.1,0.1,0.1H123V77h-14.9V53.4H111z"/>
	<path class="st0" d="M7.1,85.5H0v-2.9h17.4v2.9h-7.1c-0.1,0-0.1,0.1-0.1,0.1v20.5h-3L7.1,85.5C7.2,85.5,7.2,85.5,7.1,85.5"/>
	<path class="st0" d="M30.9,82.6c3.8,0,6.7,3,6.7,6.9c0,3.1-2.2,5.9-5.7,6.6l5.7,10h-3.2V106l-5.5-9.5c0-0.1-0.1-0.1-0.1-0.1h-5
		c-0.1,0-0.1,0.1-0.1,0.1v9.6h-2.9V82.6H30.9z M34.7,89.5c0-2.3-1.7-4.1-3.9-4.1h-7.1c-0.1,0-0.1,0-0.1,0.1v7.8
		c0,0.1,0.1,0.1,0.1,0.1h6.8C32.7,93.5,34.7,91.8,34.7,89.5"/>
	<path class="st0" d="M50.9,82.6l8.2,23.5h-3l-1.9-5.6c0-0.1-0.1-0.2-0.2-0.2h-9.5c-0.1,0-0.2,0-0.2,0.1l-1.9,5.6h-3l7.9-23.5
		L50.9,82.6L50.9,82.6z M53.1,97.4L49.3,86c0-0.1-0.2-0.1-0.2,0l-3.7,11.4c0,0.1,0,0.1,0.1,0.1L53.1,97.4
		C53.1,97.5,53.1,97.5,53.1,97.4"/>
	<path class="st0" d="M72.7,82.6c3.6,0,6.3,2.6,6.3,6c0,2.3-1.2,4.2-3.3,5.1c2.4,1,3.8,3.2,3.8,5.8c0,3.7-3,6.6-6.9,6.6h-10V82.6
		H72.7z M76.1,88.9c0-1.9-1.5-3.4-3.4-3.4h-7.1c-0.1,0-0.1,0.1-0.1,0.1v6.7c0,0.1,0.1,0.1,0.1,0.1h7.1
		C74.6,92.4,76.1,90.8,76.1,88.9 M76.7,99.2c0-2.2-1.8-4.2-4.1-4.2h-7c-0.1,0-0.1,0.1-0.1,0.2v8c0,0.1,0.1,0.1,0.1,0.1h7
		C74.9,103.2,76.7,101.4,76.7,99.2"/>
	<path class="st0" d="M84.3,97.5V82.6h2.9v14.9c0,4.2,2.1,6.3,5.4,6.3s5.4-2.2,5.4-6.3V82.6h2.9v14.9c0,5.5-3.2,9.2-8.3,9.2
		S84.3,103,84.3,97.5"/>
	<path class="st0" d="M105.5,94.3c0-7.4,4.4-12.3,10.4-12.3c5.1,0,8.7,2.9,9.5,8h-2.9c-0.7-3.5-3.3-5.2-6.6-5.2
		c-4.4,0-7.6,3.7-7.6,9.5c0,5.9,3.1,9.5,7.6,9.5c3.4,0,5.8-1.6,6.5-4.9h2.9c-0.9,5.1-4.6,7.7-9.4,7.7
		C109.8,106.7,105.5,101.8,105.5,94.3"/>
	<path class="st0" d="M128.2,94.3c0-7.4,4.4-12.3,10.4-12.3c5.1,0,8.7,2.9,9.5,8h-2.9c-0.7-3.5-3.2-5.2-6.6-5.2
		c-4.4,0-7.6,3.7-7.6,9.5c0,5.9,3.1,9.5,7.6,9.5c3.4,0,5.8-1.6,6.5-4.9h2.9c-0.9,5.1-4.6,7.7-9.4,7.7
		C132.5,106.7,128.2,101.8,128.2,94.3"/>
	<path class="st0" d="M155.2,82.6v10.2c0,0.1,0.1,0.1,0.2,0.1h11.1c0.1,0,0.1-0.1,0.1-0.1V82.6h2.8v23.5h-2.8V95.9
		c0-0.1-0.1-0.1-0.1-0.1h-11.1c-0.1,0-0.2,0.1-0.2,0.1v10.2h-2.8V82.6H155.2z"/>
	<rect x="175.7" y="82.6" class="st0" width="2.8" height="23.5"/>
	<path class="st0" d="M3.2,111.7l6.9,19.4c0,0.1,0.1,0.1,0.2,0l6.9-19.4h3l-0.1,0.2l-8.3,23.3H8.5l-8.4-23.5L3.2,111.7L3.2,111.7z"
		/>
	<rect x="23.7" y="111.7" class="st0" width="2.8" height="23.5"/>
	<path class="st0" d="M31.3,123.5c0-7.4,4.4-12.3,10.4-12.3c5.2,0,8.7,2.7,9.5,8h-2.9c-0.8-3.5-2.9-5.1-6.6-5.1
		c-4.4,0-7.6,3.7-7.6,9.5c0,5.9,3.1,9.5,7.6,9.5c4.4,0,6.8-2.7,6.9-7.2c0-0.1-0.1-0.1-0.1-0.1h-8.1V123h11v12.5h-2.5l-0.5-2.4
		c0-0.1-0.1-0.1-0.1,0c-1.3,1.9-3.4,3-6.6,3C35.6,135.8,31.3,131,31.3,123.5"/>
	<path class="st0" d="M55.4,123.5c0-7.4,4.4-12.3,10.4-12.3c5.2,0,8.7,2.7,9.5,8h-2.9c-0.8-3.5-2.9-5.1-6.6-5.1
		c-4.4,0-7.6,3.7-7.6,9.5c0,5.9,3.1,9.5,7.6,9.5c4.4,0,6.8-2.7,6.9-7.2c0-0.1-0.1-0.1-0.1-0.1h-8.1V123h11v12.5H73l-0.5-2.4
		c0-0.1-0.1-0.1-0.1,0c-1.3,1.9-3.4,3-6.6,3C59.7,135.8,55.4,131,55.4,123.5"/>
	<rect x="81" y="111.7" class="st0" width="2.8" height="23.5"/>
	<path class="st0" d="M98.9,111.7l8.2,23.5h-3l-1.9-5.6c0-0.1-0.1-0.2-0.2-0.2h-9.5c-0.1,0-0.2,0-0.2,0.1l-1.9,5.6h-3l7.9-23.5
		L98.9,111.7L98.9,111.7z M101,126.5l-3.8-11.4c0-0.1-0.2-0.1-0.2,0l-3.7,11.4c0,0.1,0,0.1,0.1,0.1L101,126.5
		C101,126.7,101,126.6,101,126.5"/>
	<path class="st0" d="M114.6,111.7l9.8,19c0,0.1,0.1,0,0.1,0v-19h2.8v23.5h-3.9l-0.1-0.1l-9.9-19.2c0-0.1-0.1,0-0.1,0v19.3h-2.8
		v-23.5H114.6z"/>
	<path class="st0" d="M132.2,123.4c0-7.4,4.3-12.3,10.4-12.3c6.1,0,10.4,4.9,10.4,12.3c0,7.5-4.3,12.4-10.4,12.4
		C136.4,135.7,132.2,130.9,132.2,123.4 M150.2,123.4c0-5.7-3.2-9.5-7.6-9.5c-4.4,0-7.6,3.7-7.6,9.5c0,5.9,3.1,9.5,7.6,9.5
		C147.1,132.9,150.2,129.2,150.2,123.4"/>
	<path class="st0" d="M8,144l5.7,16.3h-2.1l-1.3-3.9c0-0.1-0.1-0.1-0.1-0.1H3.5c-0.1,0-0.1,0-0.1,0.1l-1.3,3.9H0L5.5,144H8z
		 M9.5,154.3l-2.7-7.9H6.7l-2.6,7.9c0,0,0,0.1,0.1,0.1L9.5,154.3L9.5,154.3"/>
	<path class="st0" d="M23.2,144c2.6,0,4.7,2.1,4.7,4.8c0,2.2-1.6,4.1-4,4.6l4,6.9h-2.2v-0.1l-3.8-6.6c0,0,0-0.1-0.1-0.1h-3.5
		c0,0-0.1,0-0.1,0.1v6.6h-2V144H23.2z M25.9,148.8c0-1.6-1.2-2.8-2.7-2.8h-4.9c0,0-0.1,0-0.1,0.1v5.5c0,0,0,0.1,0.1,0.1H23
		C24.5,151.6,25.9,150.3,25.9,148.8"/>
	<path class="st0" d="M40.8,159.8L40.8,159.8c-1,0.5-2.1,0.8-3.6,0.8c-4.3,0-7.2-3.4-7.2-8.6c0-5.1,3-8.6,7.2-8.6
		c4.4,0,7.2,3.5,7.2,8.6c0,2.6-0.7,4.8-2,6.4v0.1l1.5,1.5l-1.4,1.4l-1.6-1.6C40.9,159.7,40.8,159.7,40.8,159.8 M39.3,158.3
		C39.3,158.2,39.3,158.2,39.3,158.3l-1.6-1.7l1.4-1.4l1.9,1.9h0.1c1-1.2,1.5-2.9,1.5-5c0-4-2-6.6-5.3-6.6c-3.1,0-5.3,2.6-5.3,6.6
		c0,4.1,2.1,6.6,5.3,6.6C38.1,158.6,38.7,158.5,39.3,158.3"/>
	<path class="st0" d="M47.7,154.3V144h2v10.3c0,2.9,1.4,4.4,3.8,4.4c2.3,0,3.8-1.5,3.8-4.4V144h2v10.3c0,3.8-2.2,6.4-5.8,6.4
		S47.7,158.2,47.7,154.3"/>
	<rect x="63.4" y="144" class="st0" width="2" height="16.3"/>
	<path class="st0" d="M72.7,146h-5v-2h12.1v2h-5c0,0-0.1,0-0.1,0.1v14.3h-2V146C72.8,146,72.8,146,72.7,146"/>
	<path class="st0" d="M93.6,144v2h-9.3c-0.1,0-0.1,0-0.1,0.1v5c0,0.1,0,0.1,0.1,0.1h8.1v2h-8.1c-0.1,0-0.1,0-0.1,0.1v5
		c0,0,0,0.1,0.1,0.1h9.3v2H82.2V144H93.6z"/>
	<path class="st0" d="M95.6,152.1c0-5.1,3-8.6,7.3-8.6c3.5,0,6,2,6.6,5.6h-2c-0.5-2.4-2.3-3.6-4.6-3.6c-3.1,0-5.3,2.6-5.3,6.6
		c0,4.1,2.1,6.6,5.3,6.6c2.3,0,4-1.1,4.5-3.4h2c-0.7,3.5-3.2,5.4-6.6,5.4C98.5,160.7,95.6,157.3,95.6,152.1"/>
	<path class="st0" d="M115.3,146h-5v-2h12.1v2h-5c0,0-0.1,0-0.1,0.1v14.3h-2V146C115.4,146,115.4,146,115.3,146"/>
	<path class="st0" d="M123.8,152c0-5.1,3-8.6,7.2-8.6s7.3,3.4,7.3,8.6c0,5.2-3,8.6-7.3,8.6C126.8,160.6,123.8,157.3,123.8,152
		 M136.3,152c0-4-2.2-6.6-5.3-6.6c-3.1,0-5.3,2.6-5.3,6.6c0,4.1,2.2,6.6,5.3,6.6C134.2,158.6,136.3,156.1,136.3,152"/>
	<path class="st0" d="M140.6,155.8h2c0.4,2.1,2,2.9,4,2.9c3.7,0,4.1-2,4.1-2.8c0-2.1-1.7-2.8-4.2-2.8c-3.6,0-5.8-1.6-5.8-4.8
		c0-3.1,2.5-4.8,5.6-4.8c3.4,0,5.6,1.8,6,5h-2c-0.4-2.1-1.8-3-4-3c-1.1,0-3.6,0.3-3.6,2.8c-0.1,2.1,1.5,2.8,3.9,2.8
		c3.7,0,6.1,1.5,6.1,4.8c0,2.3-1.7,4.8-6.1,4.8C143.3,160.7,141,159,140.6,155.8"/>
</g>
</svg>
