<svg id="Layer_1" data-name="Layer 1" xmlns="http://www.w3.org/2000/svg" viewBox="0 0 278.3 278.3"><defs><style>.cls-1{fill:#97b23c;}.cls-2,.cls-3{fill:#fff;}.cls-2{fill-rule:evenodd;}</style></defs><title>icono-360</title><circle class="cls-1" cx="139.15" cy="139.15" r="138"/><path class="cls-2" d="M254.65,186.65l-10-32-32,14,4,10,14.74-6.7a97,97,0,1,1-10.86-86.24c4.1-2.95,4.9-3.36,8.06-5.56a107,107,0,1,0,12.21,94.42l5.85,16.08Z"/><path class="cls-3" d="M106.84,135.61c5.55-2.37,7.78-6.76,7.78-11.37,0-7.27-5.62-14.55-16.49-14.55s-16.71,7.06-18.43,13.83c-.22,1,.28,1.58,1.29,1.58H86.1a1.53,1.53,0,0,0,1.59-1.22,10,10,0,0,1,9.94-6.77c5.47,0,9,3.24,9,7.92,0,4.32-3.1,7.42-12.32,7.42H92.37a1.29,1.29,0,0,0-1.44,1.44v4.17a1.29,1.29,0,0,0,1.44,1.44h1.94c10.23,0,13.76,2.88,13.76,8.5s-4,9.07-10.52,9.07c-5,0-9.07-2.16-10.29-6.62-.29-.87-.72-1.3-1.59-1.3H80a1.23,1.23,0,0,0-1.36,1.51c1.15,6.92,7.7,13.9,19.44,13.9,12.31,0,18.14-7.7,18.14-16.06C116.2,142.74,113.47,138,106.84,135.61Z"/><path class="cls-3" d="M143.56,130.65a22.74,22.74,0,0,0-12,3.52h-.87c.87-10.58,5.11-16.92,12.39-16.92,4.1,0,7.77,2,9.29,6.2a1.62,1.62,0,0,0,1.65,1.22l5-.07c1,0,1.51-.58,1.3-1.51-1.59-7.49-7.64-13.4-16.92-13.4-12.82,0-21,11.38-21,28.37,0,18.65,8.43,26.79,20.81,26.79,10.08,0,18.36-5.76,18.36-17.21C161.56,138.14,154.65,130.65,143.56,130.65Zm-.65,26.64c-7.27,0-11.59-4.25-12.31-15.34a20.2,20.2,0,0,1,11.74-3.74c8.49,0,11.3,5.25,11.3,9.93C153.64,154,149.25,157.29,142.91,157.29Z"/><path class="cls-3" d="M187.34,110.2c-11.81,0-19.37,9.86-19.37,27.22,0,17.13,7.27,27,18.79,27,11.81,0,19.3-10.3,19.3-27.8C206.06,119.63,198.86,110.2,187.34,110.2Zm.21,46.8c-6.91,0-11-6.7-11-20.67,0-12.6,3.24-18.72,10.08-18.72s11,6.41,11,20.38C197.63,150.59,194.32,157,187.55,157Z"/><path class="cls-3" d="M226.22,108.4a11.16,11.16,0,1,0,11.23,11.16A11.11,11.11,0,0,0,226.22,108.4Zm0,16a4.9,4.9,0,1,1,4.89-4.89A4.9,4.9,0,0,1,226.22,124.45Z"/></svg>