<svg xmlns="http://www.w3.org/2000/svg" viewBox="0 0 980.68 220.6"><defs><style>.cls-1,.cls-2{fill:#96b13c;}.cls-1{fill-rule:evenodd;}.cls-3{fill:#c2beb3;}</style></defs><title>Artboard 2</title><g id="_Layer_3" data-name="#Layer 3"><path class="cls-1" d="M239.91,41.63l-.42-.22-.05-.48,5.78-15.2a.51.51,0,0,1,.94,0l5.78,15.2-.06.48-.41.22ZM337.65,21.7l-14.5,36.42h-7.91l-14.5-36.43V15.48h5.51l12.47,32.38.49.32.46-.32,12.47-32.38h5.51V21.7Zm-43.17-6.23H263.41v7.11h11.33a.51.51,0,0,1,.51.51v35h7.11v-35a.5.5,0,0,1,.5-.51h11.62V15.47Zm-44.84,0h-7.9L227.23,52.68v5.44h5.51l3.63-9.32.48-.32h17.68l.47.32,3.64,9.32h5.5V52.68l-14.5-37.21ZM228.18,93.32l.51.1.13,0a1.45,1.45,0,0,1,.87,1.81C219.07,127.81,205.57,150,195.75,163h0a25.52,25.52,0,0,1-4.16,4.3,17.11,17.11,0,0,1-7.85,3.77,1.7,1.7,0,0,1-.31.06l-.22,0c-.29,0-.57.06-.86.08h-1.12c-.28,0-.57,0-.85-.08l-.22,0a1.55,1.55,0,0,1-.31-.06A17.15,17.15,0,0,1,172,167.3a25.94,25.94,0,0,1-4.16-4.3h0c-9.83-13-23.33-35.19-34-67.72a2.17,2.17,0,0,1-.07-.42h0v0a1.46,1.46,0,0,1,.93-1.33l.13,0,.52-.1h12.53a1.46,1.46,0,0,1,1.34,1c.79,2.27,1.89,5.34,3.23,9h0a211,211,0,0,0,21.11,42.83c2.68,4.26,5,6.81,6.91,8.17a2.29,2.29,0,0,0,1.27.47,2.35,2.35,0,0,0,1.28-.47c1.89-1.36,4.23-3.91,6.91-8.18h0a210.94,210.94,0,0,0,21.1-42.84c1.34-3.61,2.44-6.68,3.24-8.94a1.45,1.45,0,0,1,1.34-1h12.52ZM95.72,56.22A8.82,8.82,0,0,1,104.5,65v.09a8.82,8.82,0,0,1-8.68,8.78h-.3a8.83,8.83,0,0,1,.11-17.65Zm9.5,121.37a49.71,49.71,0,0,0,7.8,5.9,1.33,1.33,0,0,0,.71.21h.1a1.43,1.43,0,0,0,1.08-.53l7.85-9.66a1.47,1.47,0,0,0,.33-.85v-.13c0-.06,0-.12,0-.18a1.45,1.45,0,0,0-.68-1,38.15,38.15,0,0,1-7.47-5.91h0a36.73,36.73,0,0,1-8.63-15.57c-1.94-6.55-2.93-14.59-2.93-24.41V94.88a1.45,1.45,0,0,0-.42-1,1.48,1.48,0,0,0-1-.43h-13a1.45,1.45,0,0,0-1.45,1.44v29.59c0,8.63.54,18.47,3,27.89s6.92,18.45,14.74,25.28ZM61.13,196c-7.43-4.56-12.67-10.9-16.16-20s-5.13-21-5.13-36.31V16.91a1.45,1.45,0,0,0-.42-1,1.48,1.48,0,0,0-1-.43h-13a1.46,1.46,0,0,0-1,.43,1.41,1.41,0,0,0-.43,1V138.69c0,11.7.71,25.16,4.52,37.67s10.77,24.1,23.26,31.79a1.46,1.46,0,0,0,1.89-.32l7.85-9.66A1.42,1.42,0,0,0,61.8,197,1.47,1.47,0,0,0,61.13,196Z"/><path class="cls-2" d="M389.25,117.44a.79.79,0,0,1,.83.88c-.18,12.1-8,20-19.09,20-11.27,0-19.14-9.1-19.14-21.91s8.34-21.84,19.67-21.84c7.81,0,14,4.23,16.68,10.75.17.52-.06.82-.59.82l-2.47.06a1,1,0,0,1-.88-.53,14.44,14.44,0,0,0-13-7.52c-8.87,0-15.39,6.87-15.39,18s6.4,18.5,15.68,18.5c7.22,0,13.45-4.7,14.5-13.51l-11.27-.06a.62.62,0,0,1-.7-.7v-2.17a.62.62,0,0,1,.7-.71Z"/><path class="cls-2" d="M457.67,119.32c0,12.39-7.23,19-17.09,19s-16.91-6.64-16.91-19l.11-23.43a.62.62,0,0,1,.71-.7H427a.62.62,0,0,1,.71.7l.06,23c.06,10.63,5.16,15.74,12.92,15.74s12.8-5.17,12.86-15.74l.05-23a.62.62,0,0,1,.71-.7h2.58a.62.62,0,0,1,.71.7Z"/><path class="cls-2" d="M498,124l-4.76,13.09a.8.8,0,0,1-.82.59h-2.7c-.53,0-.76-.29-.59-.82l15.27-41a.81.81,0,0,1,.82-.58h3.29a.8.8,0,0,1,.82.58l15.27,41.05c.18.53-.06.82-.59.82h-2.7a.8.8,0,0,1-.82-.59L515.74,124Zm9-23.84h-.23l-7.4,20.2h15Z"/><path class="cls-2" d="M580,98.12a.62.62,0,0,1-.7.71H566.13l.12,38.11a.62.62,0,0,1-.71.7h-2.88a.62.62,0,0,1-.7-.7l.17-38.11H548.86a.62.62,0,0,1-.7-.71V95.89a.62.62,0,0,1,.7-.7h30.48a.62.62,0,0,1,.7.7Z"/><path class="cls-2" d="M637.24,134a.63.63,0,0,1,.71.71v2.23a.62.62,0,0,1-.71.7H611.7a.62.62,0,0,1-.71-.7l.18-41a.62.62,0,0,1,.7-.7h25.25a.62.62,0,0,1,.71.7v2.23a.63.63,0,0,1-.71.71h-22l.06,14.68h18.61a.62.62,0,0,1,.71.7v2.23a.63.63,0,0,1-.71.71H615.22l.06,16.85Z"/><path class="cls-2" d="M709.12,137.64a.62.62,0,0,1-.71-.7l-.59-37.58L694,137.05a.82.82,0,0,1-.83.59h-2.82a.8.8,0,0,1-.82-.59l-14-38.16-.53,38.05a.62.62,0,0,1-.71.7h-2.76a.62.62,0,0,1-.7-.7l1.11-41a.62.62,0,0,1,.71-.7h4.52a.8.8,0,0,1,.82.58l13.74,37.17,13.74-37.17a.82.82,0,0,1,.83-.58h4.34a.62.62,0,0,1,.71.7l1.11,41.05a.62.62,0,0,1-.7.7Z"/><path class="cls-2" d="M752.87,124l-4.76,13.09a.8.8,0,0,1-.82.59h-2.7c-.53,0-.77-.29-.59-.82l15.27-41a.8.8,0,0,1,.82-.58h3.29a.81.81,0,0,1,.82.58l15.27,41.05c.17.53-.06.82-.59.82h-2.7a.8.8,0,0,1-.82-.59L770.6,124Zm9-23.84h-.23l-7.4,20.2h15Z"/><path class="cls-2" d="M837.31,134a.62.62,0,0,1,.7.71v2.23a.62.62,0,0,1-.7.7H811.59a.62.62,0,0,1-.71-.7l.18-41a.62.62,0,0,1,.7-.7h2.59a.62.62,0,0,1,.7.7l.12,38.11Z"/><path class="cls-2" d="M875.6,124l-4.76,13.09a.8.8,0,0,1-.82.59h-2.7c-.53,0-.77-.29-.59-.82l15.27-41a.8.8,0,0,1,.82-.58h3.29a.81.81,0,0,1,.82.58l15.27,41.05c.17.53-.06.82-.59.82h-2.7a.8.8,0,0,1-.82-.59L893.33,124Zm9-23.84h-.23l-7.4,20.2h15Z"/><path class="cls-3" d="M365.85,165.07a.34.34,0,0,1-.38.38h-9.85l-.73,7.74h.19a8.22,8.22,0,0,1,4.51-1.3c4.46,0,7.24,3.22,7.24,7.42s-2.72,7.3-7.52,7.3c-4.33,0-7.14-2.53-7.67-5.4-.07-.26.09-.41.34-.41h1.43a.41.41,0,0,1,.41.34c.53,2.15,2.49,3.57,5.43,3.57,3.44,0,5.49-2,5.49-5.4s-2-5.49-5.4-5.49a7.47,7.47,0,0,0-4.42,1.42.69.69,0,0,1-.47.16l-1.33-.07c-.25,0-.38-.15-.35-.41l1.08-11.08a.36.36,0,0,1,.38-.35h11.24a.34.34,0,0,1,.38.38Z"/><path class="cls-3" d="M398.56,169.05a5.19,5.19,0,0,1-3.28,5v.09a6.14,6.14,0,0,1,4.33,6c0,4-3.1,6.6-7.74,6.6s-7.74-2.59-7.74-6.6a6.19,6.19,0,0,1,4.17-6V174a5.06,5.06,0,0,1-3.16-4.93c0-3.54,2.66-6.16,6.73-6.16S398.56,165.58,398.56,169.05Zm-12.31,11c0,2.87,2.15,4.83,5.62,4.83s5.62-2,5.62-4.83-2.24-5-5.62-5S386.25,177.16,386.25,180.07Zm.95-11c0,2.47,1.76,4.33,4.67,4.33s4.67-1.86,4.67-4.33a4.68,4.68,0,0,0-9.34,0Z"/><path class="cls-3" d="M431.19,163.49a.34.34,0,0,1,.38.38v.88a1.55,1.55,0,0,1-.23.79,157.36,157.36,0,0,0-9,20.5.38.38,0,0,1-.41.31h-1.71c-.28,0-.41-.15-.32-.44a163.55,163.55,0,0,1,9.23-20.3v-.16l-11.91,0a.34.34,0,0,1-.38-.38v-1.17a.34.34,0,0,1,.38-.38Z"/><path class="cls-3" d="M465,180.23a.34.34,0,0,1-.38.38h-3.31l0,5.36a.33.33,0,0,1-.38.38h-1.42a.33.33,0,0,1-.38-.38l0-5.36H448.81a.34.34,0,0,1-.38-.38v-1a1.27,1.27,0,0,1,.25-.92l10.23-14.43a.71.71,0,0,1,.64-.35h1.38a.33.33,0,0,1,.38.38l0,14.84h3.31a.34.34,0,0,1,.38.38Zm-5.75-13.58h-.16l-8.46,12v.09h8.56Z"/><path class="cls-3" d="M494.57,178a.33.33,0,0,1-.38.38h-9.6a.33.33,0,0,1-.38-.38v-1.13a.33.33,0,0,1,.38-.38h9.6a.33.33,0,0,1,.38.38Z"/><path class="cls-3" d="M528.61,169.05a5.19,5.19,0,0,1-3.28,5v.09a6.13,6.13,0,0,1,4.32,6c0,4-3.09,6.6-7.73,6.6s-7.74-2.59-7.74-6.6a6.19,6.19,0,0,1,4.17-6V174a5.06,5.06,0,0,1-3.16-4.93c0-3.54,2.65-6.16,6.73-6.16S528.61,165.58,528.61,169.05Zm-12.31,11c0,2.87,2.14,4.83,5.62,4.83s5.62-2,5.62-4.83-2.24-5-5.62-5S516.3,177.16,516.3,180.07Zm.94-11c0,2.47,1.77,4.33,4.68,4.33s4.67-1.86,4.67-4.33a4.68,4.68,0,0,0-9.35,0Z"/><path class="cls-3" d="M563.19,174.64c0,7.23-3.35,12-8.27,12s-8-4.58-8-11.66,3.35-11.71,8.24-11.71S563.19,167.56,563.19,174.64Zm-14.11.06c0,6.25,2.36,10,6,10s6-3.73,6-9.76c0-6.25-2.4-9.79-6.06-9.79S549.08,168.67,549.08,174.7Z"/></g></svg>