<?xml version="1.0" encoding="utf-8"?>
<!-- Generator: Adobe Illustrator 23.0.3, SVG Export Plug-In . SVG Version: 6.00 Build 0)  -->
<svg version="1.1" id="Layer_1" xmlns="http://www.w3.org/2000/svg" xmlns:xlink="http://www.w3.org/1999/xlink" x="0px" y="0px"
	 viewBox="0 0 980.7 220.6" style="enable-background:new 0 0 980.7 220.6;" xml:space="preserve">
<style type="text/css">
	.st0{fill:#96B13C;}
	.st1{fill:#C2BEB3;}
</style>
<title>Artboard 2</title>
<g id="_Layer_3">
	<path class="st0" d="M389.3,117.4c0.4,0,0.8,0.3,0.8,0.7c0,0,0,0.1,0,0.1c-0.2,12.1-8,20-19.1,20c-11.3,0-19.1-9.1-19.1-21.9
		s8.3-21.8,19.7-21.8c7.8,0,14,4.2,16.7,10.8c0.2,0.5-0.1,0.8-0.6,0.8l-2.5,0.1c-0.4,0-0.7-0.2-0.9-0.5c-2.6-4.7-7.6-7.6-13-7.5
		c-8.9,0-15.4,6.9-15.4,18s6.4,18.5,15.7,18.5c7.2,0,13.5-4.7,14.5-13.5l-11.3-0.1c-0.3,0-0.7-0.2-0.7-0.5c0-0.1,0-0.1,0-0.2v-2.2
		c-0.1-0.3,0.2-0.7,0.5-0.7c0.1,0,0.1,0,0.2,0L389.3,117.4z"/>
	<path class="st0" d="M457.7,119.3c0,12.4-7.2,19-17.1,19s-16.9-6.6-16.9-19l0.1-23.4c0-0.3,0.2-0.7,0.5-0.7c0.1,0,0.1,0,0.2,0h2.5
		c0.3-0.1,0.7,0.2,0.7,0.5c0,0.1,0,0.1,0,0.2l0.1,23c0.1,10.6,5.2,15.7,12.9,15.7s12.8-5.2,12.9-15.7l0-23c0-0.3,0.2-0.7,0.5-0.7
		c0.1,0,0.1,0,0.2,0h2.6c0.3-0.1,0.7,0.2,0.7,0.5c0,0.1,0,0.1,0,0.2L457.7,119.3z"/>
	<path class="st0" d="M498,124l-4.8,13.1c-0.1,0.4-0.4,0.6-0.8,0.6h-2.7c-0.5,0-0.8-0.3-0.6-0.8l15.3-41c0.1-0.4,0.4-0.6,0.8-0.6
		h3.3c0.4,0,0.7,0.2,0.8,0.6l15.3,41.1c0.2,0.5-0.1,0.8-0.6,0.8h-2.7c-0.4,0-0.7-0.2-0.8-0.6l-4.7-13.1H498z M507,100.2h-0.2
		l-7.4,20.2h15L507,100.2z"/>
	<path class="st0" d="M580,98.1c0.1,0.3-0.2,0.7-0.5,0.7c-0.1,0-0.1,0-0.2,0h-13.2l0.1,38.1c0,0.3-0.2,0.7-0.5,0.7
		c-0.1,0-0.1,0-0.2,0h-2.9c-0.3,0-0.7-0.2-0.7-0.5c0-0.1,0-0.1,0-0.2l0.2-38.1h-13.3c-0.3,0-0.7-0.2-0.7-0.5c0-0.1,0-0.1,0-0.2v-2.2
		c0-0.3,0.2-0.7,0.5-0.7c0.1,0,0.1,0,0.2,0h30.5c0.3,0,0.7,0.2,0.7,0.5c0,0.1,0,0.1,0,0.2L580,98.1z"/>
	<path class="st0" d="M637.2,134c0.3,0,0.7,0.2,0.7,0.5c0,0.1,0,0.1,0,0.2v2.2c0,0.3-0.2,0.7-0.5,0.7c-0.1,0-0.1,0-0.2,0h-25.5
		c-0.3,0.1-0.7-0.2-0.7-0.5c0-0.1,0-0.1,0-0.2l0.2-41c0-0.3,0.2-0.7,0.5-0.7c0.1,0,0.1,0,0.2,0h25.3c0.3-0.1,0.7,0.2,0.7,0.5
		c0,0.1,0,0.1,0,0.2v2.2c0,0.3-0.2,0.7-0.5,0.7c-0.1,0-0.1,0-0.2,0h-22l0.1,14.7h18.6c0.3-0.1,0.7,0.2,0.7,0.5c0,0.1,0,0.1,0,0.2
		v2.2c0,0.3-0.2,0.7-0.5,0.7c-0.1,0-0.1,0-0.2,0h-18.6l0.1,16.8L637.2,134z"/>
	<path class="st0" d="M709.1,137.6c-0.3,0.1-0.7-0.2-0.7-0.5c0-0.1,0-0.1,0-0.2l-0.6-37.6L694,137.1c-0.1,0.4-0.4,0.6-0.8,0.6h-2.8
		c-0.4,0-0.7-0.2-0.8-0.6l-14-38.2l-0.5,38.1c0,0.3-0.2,0.7-0.5,0.7c-0.1,0-0.1,0-0.2,0h-2.8c-0.3,0-0.7-0.2-0.7-0.5
		c0-0.1,0-0.1,0-0.2l1.1-41c0-0.3,0.2-0.7,0.5-0.7c0.1,0,0.1,0,0.2,0h4.5c0.4,0,0.7,0.2,0.8,0.6l13.7,37.2l13.7-37.2
		c0.1-0.4,0.5-0.6,0.8-0.6h4.3c0.3-0.1,0.7,0.2,0.7,0.5c0,0.1,0,0.1,0,0.2l1.1,41.1c0,0.3-0.2,0.7-0.5,0.7c-0.1,0-0.1,0-0.2,0
		L709.1,137.6z"/>
	<path class="st0" d="M752.9,124l-4.8,13.1c-0.1,0.4-0.4,0.6-0.8,0.6h-2.7c-0.5,0-0.8-0.3-0.6-0.8l15.3-41c0.1-0.4,0.4-0.6,0.8-0.6
		h3.3c0.4,0,0.7,0.2,0.8,0.6l15.3,41.1c0.2,0.5-0.1,0.8-0.6,0.8h-2.7c-0.4,0-0.7-0.2-0.8-0.6l-4.8-13.1H752.9z M761.9,100.2h-0.2
		l-7.4,20.2h15L761.9,100.2z"/>
	<path class="st0" d="M837.3,134c0.3,0,0.7,0.2,0.7,0.5c0,0.1,0,0.1,0,0.2v2.2c0,0.3-0.2,0.7-0.5,0.7c-0.1,0-0.1,0-0.2,0h-25.7
		c-0.3,0.1-0.7-0.2-0.7-0.5c0-0.1,0-0.1,0-0.2l0.2-41c0-0.3,0.2-0.7,0.5-0.7c0.1,0,0.1,0,0.2,0h2.6c0.3,0,0.7,0.2,0.7,0.5
		c0,0.1,0,0.1,0,0.2l0.1,38.1L837.3,134z"/>
	<path class="st0" d="M875.6,124l-4.8,13.1c-0.1,0.4-0.4,0.6-0.8,0.6h-2.7c-0.5,0-0.8-0.3-0.6-0.8l15.3-41c0.1-0.4,0.4-0.6,0.8-0.6
		h3.3c0.4,0,0.7,0.2,0.8,0.6l15.3,41.1c0.2,0.5-0.1,0.8-0.6,0.8h-2.7c-0.4,0-0.7-0.2-0.8-0.6l-4.8-13.1H875.6z M884.6,100.2h-0.2
		l-7.4,20.2h15L884.6,100.2z"/>
	<path class="st1" d="M365.9,165.1c0,0.2-0.1,0.4-0.3,0.4c0,0-0.1,0-0.1,0h-9.9l-0.7,7.7h0.2c1.3-0.9,2.9-1.3,4.5-1.3
		c4.5,0,7.2,3.2,7.2,7.4s-2.7,7.3-7.5,7.3c-4.3,0-7.1-2.5-7.7-5.4c-0.1-0.3,0.1-0.4,0.3-0.4h1.4c0.2,0,0.4,0.1,0.4,0.3
		c0.5,2.1,2.5,3.6,5.4,3.6c3.4,0,5.5-2,5.5-5.4s-2-5.5-5.4-5.5c-1.6,0-3.1,0.5-4.4,1.4c-0.1,0.1-0.3,0.2-0.5,0.2l-1.3-0.1
		c-0.3,0-0.4-0.1-0.4-0.4l1.1-11.1c0-0.2,0.2-0.4,0.4-0.4c0,0,0,0,0,0h11.2c0.2,0,0.4,0.1,0.4,0.3c0,0,0,0.1,0,0.1L365.9,165.1z"/>
	<path class="st1" d="M398.6,169.1c0.1,2.2-1.2,4.2-3.3,5v0.1c2.6,0.8,4.4,3.3,4.3,6c0,4-3.1,6.6-7.7,6.6s-7.7-2.6-7.7-6.6
		c-0.1-2.7,1.6-5.1,4.2-6V174c-2-0.8-3.3-2.8-3.2-4.9c0-3.5,2.7-6.2,6.7-6.2S398.6,165.6,398.6,169.1z M386.3,180.1
		c0,2.9,2.1,4.8,5.6,4.8s5.6-2,5.6-4.8s-2.2-5-5.6-5S386.3,177.2,386.3,180.1L386.3,180.1z M387.2,169.1c0,2.5,1.8,4.3,4.7,4.3
		s4.7-1.9,4.7-4.3c-0.2-2.6-2.4-4.5-5-4.4C389.2,164.8,387.4,166.7,387.2,169.1L387.2,169.1z"/>
	<path class="st1" d="M431.2,163.5c0.2,0,0.4,0.1,0.4,0.3c0,0,0,0.1,0,0.1v0.9c0,0.3-0.1,0.6-0.2,0.8c-3.5,6.6-6.5,13.5-9,20.5
		c0,0.2-0.2,0.3-0.4,0.3h-1.7c-0.3,0-0.4-0.1-0.3-0.4c2.6-7,5.7-13.8,9.2-20.3v-0.2h-11.9c-0.2,0-0.4-0.1-0.4-0.3c0,0,0-0.1,0-0.1
		v-1.2c0-0.2,0.1-0.4,0.3-0.4c0,0,0.1,0,0.1,0L431.2,163.5z"/>
	<path class="st1" d="M465,180.2c0,0.2-0.1,0.4-0.3,0.4c0,0-0.1,0-0.1,0h-3.3v5.4c0,0.2-0.1,0.3-0.3,0.4c0,0-0.1,0-0.1,0h-1.4
		c-0.2,0-0.3-0.1-0.4-0.3c0,0,0-0.1,0-0.1v-5.4h-10.3c-0.2,0-0.4-0.1-0.4-0.3c0,0,0-0.1,0-0.1v-1c0-0.3,0.1-0.7,0.3-0.9l10.2-14.4
		c0.1-0.2,0.4-0.4,0.6-0.4h1.4c0.2,0,0.3,0.1,0.4,0.3c0,0,0,0.1,0,0.1v14.8h3.3c0.2,0,0.4,0.1,0.4,0.3c0,0,0,0.1,0,0.1L465,180.2z
		 M459.3,166.7h-0.2l-8.5,12v0.1h8.6L459.3,166.7z"/>
	<path class="st1" d="M494.6,178c0,0.2-0.1,0.3-0.3,0.4c0,0-0.1,0-0.1,0h-9.6c-0.2,0-0.3-0.1-0.4-0.3c0,0,0-0.1,0-0.1v-1.1
		c0-0.2,0.1-0.3,0.3-0.4c0,0,0.1,0,0.1,0h9.6c0.2,0,0.3,0.1,0.4,0.3c0,0,0,0.1,0,0.1V178z"/>
	<path class="st1" d="M528.6,169.1c0.1,2.2-1.2,4.2-3.3,5v0.1c2.6,0.8,4.4,3.3,4.3,6c0,4-3.1,6.6-7.7,6.6s-7.7-2.6-7.7-6.6
		c-0.1-2.7,1.6-5.1,4.2-6V174c-2-0.8-3.3-2.8-3.2-4.9c0-3.5,2.7-6.2,6.7-6.2S528.6,165.6,528.6,169.1z M516.3,180.1
		c0,2.9,2.1,4.8,5.6,4.8s5.6-2,5.6-4.8s-2.2-5-5.6-5S516.3,177.2,516.3,180.1L516.3,180.1z M517.2,169.1c0,2.5,1.8,4.3,4.7,4.3
		s4.7-1.9,4.7-4.3c-0.1-2.6-2.3-4.6-4.9-4.5C519.3,164.7,517.4,166.6,517.2,169.1z"/>
	<path class="st1" d="M563.2,174.6c0,7.2-3.3,12-8.3,12s-8-4.6-8-11.7s3.3-11.7,8.2-11.7S563.2,167.6,563.2,174.6z M549.1,174.7
		c0,6.3,2.4,10,6,10s6-3.7,6-9.8c0-6.3-2.4-9.8-6.1-9.8S549.1,168.7,549.1,174.7z"/>
	<g>
		<ellipse transform="matrix(0.9732 -0.2298 0.2298 0.9732 -12.1359 23.4215)" class="st0" cx="94.5" cy="63.8" rx="7.4" ry="7.4"/>
		<path class="st0" d="M37,138.8c0,0,0-99.8,0-111.7c0-12-13-11.5-13-11.5v122.3c0,23.4,2.9,53.5,27.2,68.5
			c9.5,5.9,19.4-2.1,19.4-4.4c-5.5-1.7-9.3-3.9-11.5-5.3C43.6,187.1,37,169.8,37,138.8z"/>
		<path class="st0" d="M112.8,165.6L112.8,165.6c-8-8.3-12-21.2-12-41.2c0,0,0-9,0-20c0-11-13-10.7-13-10.7v29.7
			c0,17.2,2.2,39.1,17.3,52.3l0,0c2.3,2.1,4.8,4,7.6,5.7c9.5,5.9,19.4-2.1,19.4-4.4c-5.5-1.7-9.3-3.9-11.5-5.3
			C117.7,170,115.1,168,112.8,165.6z"/>
		<path class="st0" d="M181.1,169c-0.1,0-0.1,0-0.2,0c-0.1,0-0.1,0-0.2,0H181.1z"/>
		<path class="st0" d="M211.7,102.7c-7,21.1-14.8,33-21.3,43.3c-2.8,4.4-5.2,7.1-7.3,8.6c-0.7,0.5-1.4,0.7-2.1,0.7
			c-0.7,0-1.5-0.3-2.1-0.7c-2.1-1.5-4.6-4.2-7.3-8.6c-6.5-10.3-14.3-22.1-21.3-43.3c-3.3-9.4-11.1-10.5-15.9-9
			c10.6,32.5,24.1,54.6,33.8,67.6c1.2,1.6,5.5,6.7,11.3,7.6l0,0c0.1,0,0.2,0,0.2,0c0.3,0,0.5,0.1,0.8,0.1c0.2,0,0.3,0,0.5,0
			c0.2,0,0.3,0,0.5,0c0.3,0,0.5,0,0.8-0.1c0.1,0,0.2,0,0.2,0l0,0c5.8-0.9,10.1-6,11.3-7.6c9.8-13,23.2-35.1,33.8-67.6
			C222.8,92.2,215,93.3,211.7,102.7z"/>
		<path class="st0" d="M246.7,45.5l-7.5,19.2v2.8h2.8l1.9-4.8c0-0.1,0.1-0.2,0.2-0.2h9.1c0.1,0,0.2,0.1,0.2,0.2l1.9,4.8h2.8v-2.8
			l-7.5-19.2H246.7z M252,58.9c0,0.1-0.1,0.1-0.2,0.1h-6c-0.1,0-0.2,0-0.2-0.1c0-0.1-0.1-0.2,0-0.2l3-7.9c0-0.1,0.1-0.2,0.2-0.2
			c0.1,0,0.2,0.1,0.2,0.2l3,7.9C252,58.8,252,58.9,252,58.9z"/>
		<path class="st0" d="M293.4,45.5L287,62.3c0,0.1-0.1,0.2-0.2,0.2c-0.1,0-0.2-0.1-0.2-0.2L280,45.5h-2.8v3.2l7.5,18.8h4.1l7.5-18.8
			v-3.2H293.4z"/>
		<path class="st0" d="M257.9,49.2h5.9c0.1,0,0.3,0.1,0.3,0.3v18.1h3.7V49.5c0-0.1,0.1-0.3,0.3-0.3h6v-3.7h-16.1V49.2z"/>
	</g>
</g>
</svg>
