<?xml version="1.0" encoding="utf-8"?>
<!-- Generator: Adobe Illustrator 23.0.3, SVG Export Plug-In . SVG Version: 6.00 Build 0)  -->
<svg version="1.1" id="Layer_1" xmlns="http://www.w3.org/2000/svg" xmlns:xlink="http://www.w3.org/1999/xlink" x="0px" y="0px"
	 viewBox="0 0 326.2 101.1" style="enable-background:new 0 0 326.2 101.1;" xml:space="preserve">
<style type="text/css">
	.st0{fill:#97B23C;}
</style>
<g>
	<g>
		<path class="st0" d="M60.3,64.3c0.9-1.6,2.3-2.7,4.3-3.5s4.3-1.2,7.1-1.2c2.4,0,4.4,0.2,5.9,0.7s2.8,1.2,3.8,2.2
			c1.1,0.9,1.9,2.1,2.5,3.4c0.6,1.3,0.9,2.8,0.9,4.5c0,2.4-0.5,4.4-1.6,6c-1.1,1.7-2.6,2.8-4.5,3.5s-4.1,1-6.5,1
			c-2.6,0-4.8-0.4-6.8-1.1c-1.9-0.7-3.5-2-4.7-3.7c-1.2-1.8-1.8-4-1.8-6.7C58.9,67.5,59.4,65.8,60.3,64.3z M52.8,77.3
			c1.8,1.8,4.2,3.2,7.3,4.2c3.1,0.9,6.8,1.4,11,1.4c4,0,7.5-0.4,10.6-1.2c2.2-0.6,4.3-1.4,6-2.5c1.8-1.1,3.1-2.3,4-3.7
			c1.2-1.9,1.9-3.9,1.9-6c0-1.3-0.2-2.4-0.6-3.5s-1.1-2-1.9-2.9c-0.8-0.9-2.1-1.8-3.7-2.6s-3.5-1.5-5.6-2c-2.8-0.6-6-0.9-9.4-0.9
			c-3.5,0-6.7,0.3-9.7,0.9c-2.3,0.5-4.4,1.3-6.4,2.4c-2,1.1-3.5,2.4-4.5,4c-1.1,1.6-1.6,3.4-1.6,5.5C50.1,73.2,51,75.5,52.8,77.3z"
			/>
		<path class="st0" d="M136.4,79.1l-1.3,1.7c-2.4,0.8-4.5,1.3-6.4,1.6c-1.9,0.3-4.3,0.4-7.1,0.4c-4,0-7.6-0.4-10.7-1.2
			c-2.4-0.6-4.5-1.4-6.2-2.5c-1.7-1-3-2.1-3.9-3.4c-1.4-1.8-2.1-3.8-2.1-5.9c0-3.6,2-6.6,6.2-8.9c4.1-2.3,9.9-3.5,17.4-3.5
			c2.6,0,4.9,0.1,6.9,0.3c2,0.2,4.4,0.6,7.1,1.2l0.1,0.2c-0.3,0.5-0.5,1.2-0.7,2c-0.3,1.3-0.5,2.5-0.5,3.6H133c0-1.2-0.1-2.3-0.2-3
			c-1.3-0.8-2.7-1.4-4.3-1.8c-1.6-0.4-3.6-0.6-6.1-0.6c-4.5,0-8.1,0.9-10.8,2.6c-2.7,1.7-4,4.1-4,7.2c0,1.9,0.5,3.5,1.4,4.9
			s2.1,2.5,3.6,3.4s3,1.6,4.5,2c2.1,0.5,4.6,0.8,7.5,0.8c1.9,0,3.8-0.1,5.5-0.4s3.6-0.7,5.7-1.4L136.4,79.1z"/>
		<path class="st0" d="M157.5,64l6.1,8.9c-1.7,0-3.7,0.1-5.9,0.1c-2.3,0-4.3,0-6.1-0.1L157.5,64z M145.5,82.2l6.6,0.1v-1.5
			c-2.3,0-3.6-0.1-4.1-0.3c-0.3-0.1-0.5-0.3-0.5-0.6c0-0.4,0.5-1.4,1.4-3l1.3-2H165l2.4,3.8c0.5,0.7,0.7,1.1,0.7,1.4
			c0,0.2-0.1,0.4-0.4,0.5c-0.3,0.1-1.6,0.2-3.9,0.2v1.5l10-0.1l8,0.1v-1.5c-0.6,0-1-0.1-1.3-0.1c-0.9,0-1.5-0.1-1.7-0.1
			s-0.4-0.1-0.6-0.2c-0.2-0.1-0.3-0.3-0.5-0.5l-1.2-1.6l-1.8-2.4l-12.7-18h-4l-2.5,3.9L148,73c-1.4,2.1-2.4,3.5-2.9,4.3
			c-1.1,1.5-1.7,2.4-2,2.6c-0.2,0.2-0.4,0.4-0.7,0.5c-0.2,0.1-0.4,0.2-0.8,0.2c-0.3,0.1-1.2,0.1-2.8,0.2v1.5L145.5,82.2z"/>
		<path class="st0" d="M184.9,82.3v-1.5c2.2-0.1,3.5-0.2,3.9-0.3c0.2,0,0.4-0.1,0.6-0.2c0.2-0.2,0.3-0.4,0.3-0.7
			c0.1-0.7,0.2-2.1,0.3-4.3c0-1.1,0.1-2.9,0.1-5.5c0-2.3,0-4.4-0.1-6.2c-0.1-1.8-0.2-2.9-0.4-3.2c-0.1-0.2-0.2-0.3-0.4-0.4
			c-0.2-0.1-0.5-0.2-0.9-0.2c-1.3-0.1-2.4-0.2-3.4-0.2v-1.5c4,0.1,6.7,0.1,8.2,0.1c2,0,3.9-0.1,5.9-0.1l2.5,3.4l2,2.6l9.1,11.4
			c1.9-2.3,3.4-4,4.4-5.3l3.8-4.8c2.1-2.7,3.4-4.3,3.8-5c0.5-0.6,1-1.4,1.6-2.3c2.5,0.1,4.1,0.1,4.9,0.1l8.6-0.1v1.5h-0.4
			c-1.9,0-3.2,0.1-3.7,0.4c-0.5,0.3-0.8,0.8-0.8,1.6c0,1,0,1.7,0,2.2l-0.1,4.8v6.1c0,1.5,0,2.3,0,2.6c0.1,1.5,0.3,2.4,0.4,2.7
			c0.1,0.2,0.2,0.3,0.3,0.4c0.2,0.1,0.4,0.2,0.7,0.2c0.3,0.1,1.5,0.1,3.6,0.2v1.5l-9.2-0.1l-9,0.1v-1.5c2.4,0,3.8-0.1,4.1-0.2
			s0.6-0.4,0.7-0.8c0.1-0.4,0.2-1.9,0.2-4.3V62.8l-6.6,8.1l-3.2,4c-0.8,1.1-2,2.6-3.5,4.6c-0.9,1.2-1.7,2.2-2.2,3h-1.9
			c-0.7-1-1.7-2.3-3-4c-2.2-2.9-3.9-5.1-5-6.5l-7.5-9.3v8.5c0,1.4,0,3.1,0.1,5.1c0,2,0.1,3.1,0.2,3.3c0.1,0.3,0.2,0.5,0.3,0.6
			c0.2,0.1,0.5,0.2,0.9,0.3c0.4,0.1,1.6,0.1,3.5,0.2v1.5c-2.1-0.1-4.3-0.1-6.6-0.1C188.9,82.2,186.6,82.2,184.9,82.3z"/>
		<path class="st0" d="M243,59.6v-1.5l8.4,0.1l12.8-0.2c2.5,0,4.5,0.2,5.9,0.5c1.5,0.3,2.7,0.9,3.7,1.7s1.6,1.9,1.6,3.2
			c0,1.3-0.5,2.5-1.5,3.6c-1,1.1-2.5,2.1-4.7,2.8c-2.1,0.7-4.4,1.1-6.8,1.1c-0.6,0-1.2,0-1.8-0.1c-0.6,0-1.2-0.1-1.7-0.2
			c-0.2-0.3-0.5-0.8-1-1.2l0.6-0.4c0.4,0.1,0.8,0.1,1.2,0.2c0.4,0,0.7,0.1,1,0.1c1.8,0,3.3-0.4,4.5-1.2c1.2-0.8,1.8-1.9,1.8-3.4
			c0-1.6-0.6-2.7-1.9-3.5c-1.2-0.8-3-1.2-5.2-1.2c-1,0-2.2,0.1-3.5,0.3c-0.1,0.7-0.2,1.8-0.2,3.1l-0.1,3.4v6.6c0,1.6,0,3.3,0.1,5
			c0.1,1,0.2,1.6,0.3,1.9c0.1,0.1,0.2,0.2,0.4,0.3c0.2,0.1,0.5,0.1,1,0.2l3.8,0.1v1.5c-4.9-0.1-8.6-0.1-11.1-0.1
			c-2.7,0-5.3,0.1-7.8,0.1v-1.5c2.1,0,3.5-0.1,4-0.3c0.2-0.1,0.3-0.1,0.4-0.3c0.1-0.2,0.2-0.6,0.3-1.3c0.2-1.8,0.3-3.9,0.3-6.2v-6.1
			l-0.2-3.2c0-1.4-0.1-2.3-0.1-2.6c0-0.4-0.1-0.6-0.3-0.8c-0.1-0.1-0.2-0.2-0.4-0.2c-0.2-0.1-0.5-0.1-1-0.2L243,59.6z"/>
		<path class="st0" d="M289.9,64.3c0.9-1.6,2.3-2.7,4.3-3.5s4.3-1.2,7.1-1.2c2.4,0,4.4,0.2,5.9,0.7s2.8,1.2,3.9,2.2
			c1.1,0.9,1.9,2.1,2.5,3.4c0.6,1.3,0.9,2.8,0.9,4.5c0,2.4-0.5,4.4-1.6,6c-1.1,1.7-2.6,2.8-4.5,3.5s-4,1-6.5,1
			c-2.6,0-4.9-0.4-6.8-1.1s-3.5-2-4.7-3.7c-1.2-1.8-1.8-4-1.8-6.7C288.5,67.5,289,65.8,289.9,64.3z M282.4,77.3
			c1.8,1.8,4.2,3.2,7.2,4.2c3.1,0.9,6.8,1.4,11.1,1.4c4,0,7.5-0.4,10.6-1.2c2.3-0.6,4.3-1.4,6-2.5c1.8-1.1,3.1-2.3,4-3.7
			c1.2-1.9,1.9-3.9,1.9-6c0-1.3-0.2-2.4-0.7-3.5c-0.4-1.1-1.1-2-1.9-2.9c-0.8-0.9-2.1-1.8-3.7-2.6s-3.5-1.5-5.6-2
			c-2.8-0.6-6-0.9-9.4-0.9c-3.5,0-6.7,0.3-9.7,0.9c-2.3,0.5-4.4,1.3-6.4,2.4c-2,1.1-3.5,2.4-4.5,4c-1.1,1.6-1.6,3.4-1.6,5.5
			C279.7,73.2,280.6,75.5,282.4,77.3z"/>
		<path class="st0" d="M53,89.3v-0.5c1.9,0,3.5,0.1,4.6,0.1c0.7,0,1.6,0,2.4,0h2.3c0.3,0,0.5,0,0.7,0c1.5,0,2.7,0.1,3.6,0.3
			c0.9,0.2,1.6,0.5,2.1,0.9s0.7,0.9,0.7,1.5c0,0.5-0.2,1-0.6,1.5s-1,0.9-1.8,1.3c-0.8,0.3-1.6,0.6-2.4,0.7c-0.6,0.1-1.2,0.2-2,0.2
			c-0.6,0-1.3,0-2-0.1l-0.3-0.6c0.9,0.1,1.5,0.2,2,0.2c0.7,0,1.4-0.1,2.1-0.3c0.6-0.2,1.1-0.5,1.5-0.9s0.5-0.9,0.5-1.4
			s-0.2-0.9-0.5-1.3c-0.4-0.4-0.9-0.7-1.6-0.9c-0.7-0.2-1.6-0.3-2.6-0.3c-0.9,0-1.9,0.1-2.9,0.3c-0.1,0.6-0.1,1.5-0.1,2.8v4.3
			c0,0.8,0,1.5,0.1,2.3c0,0.5,0.1,0.9,0.2,1c0.1,0.1,0.3,0.2,0.5,0.2c0.3,0.1,0.9,0.1,2.1,0.1v0.5c-1.8-0.1-3.1-0.1-3.9-0.1
			c-0.3,0-1.8,0-4.5,0.1v-0.5c1.1,0,1.8,0,2.1-0.1s0.4-0.1,0.5-0.2S56,100,56,99.6c0-0.1,0-0.9,0.1-2.4v-4c0-0.8,0-1.5-0.1-2.3
			c0-0.5-0.1-0.9-0.2-1c-0.1-0.1-0.3-0.2-0.5-0.2C54.8,89.3,54.1,89.3,53,89.3z"/>
		<path class="st0" d="M76.6,89.3v-0.5c0.4,0,0.9,0,1.7,0l2.8,0.1c0.5,0,1.4,0,2.5,0c1.5,0,2.4,0,2.6,0c1.8,0,3.2,0.1,4,0.3
			c0.8,0.2,1.5,0.5,2,0.9s0.7,0.9,0.7,1.4s-0.2,0.9-0.7,1.4c-0.4,0.5-1.1,0.9-1.9,1.2c-0.8,0.3-1.9,0.6-3.2,0.7
			c0.2,0.2,0.8,0.6,1.7,1.3l3.6,2.9c1,0.8,1.7,1.2,1.8,1.3c0.1,0,0.2,0,0.3,0.1c0.1,0,0.5,0,0.9,0v0.5c-0.7-0.1-1.4-0.1-1.9-0.1
			c-0.6,0-1.3,0-2.1,0.1c-0.6-0.4-1.7-1.3-3.1-2.5c-0.8-0.7-1.5-1.2-2.2-1.7c-1-0.8-2-1.5-2.9-2.1l0.1-0.3c0.5,0,0.9,0,1.1,0
			c1.7,0,3-0.2,3.9-0.7s1.3-1.1,1.3-1.9c0-0.7-0.4-1.3-1.2-1.7c-0.8-0.4-1.9-0.6-3.5-0.6c-1,0-2,0.1-2.9,0.3c0,0.3-0.1,0.6-0.1,0.9
			c0,0.1,0,0.9-0.1,2.5v3.8c0,0.8,0,1.5,0.1,2.3c0,0.5,0.1,0.9,0.2,1s0.3,0.2,0.5,0.2c0.2,0.1,0.9,0.1,2.1,0.1v0.5
			c-1.4-0.1-2.6-0.1-3.8-0.1c-0.9,0-2.5,0-4.7,0.1v-0.5c1.1,0,1.8,0,2.1-0.1c0.3-0.1,0.4-0.1,0.5-0.2s0.2-0.4,0.2-0.8
			c0-0.1,0-0.9,0.1-2.4v-4c0-0.8,0-1.5-0.1-2.3c0-0.5-0.1-0.9-0.2-1s-0.3-0.2-0.5-0.2C78.5,89.3,77.8,89.3,76.6,89.3z"/>
		<path class="st0" d="M106.2,91.6c0.6-0.8,1.5-1.4,2.6-1.8s2.5-0.6,4-0.6c1.1,0,2,0.1,3,0.3c0.9,0.2,1.7,0.4,2.2,0.7
			c0.6,0.3,1.1,0.6,1.5,1s0.7,0.8,1,1.3c0.4,0.8,0.6,1.6,0.6,2.5c0,1-0.3,2-0.9,2.8s-1.4,1.4-2.6,1.9c-1.1,0.5-2.5,0.7-4,0.7
			c-1.1,0-2.1-0.1-3-0.3c-0.9-0.2-1.8-0.6-2.5-1c-0.7-0.5-1.3-1-1.8-1.7c-0.3-0.4-0.5-0.9-0.7-1.5s-0.3-1.1-0.3-1.6
			C105.4,93.2,105.6,92.3,106.2,91.6z M103.1,97.3c0.5,0.8,1.2,1.5,2.1,2.1s2,1,3.3,1.3s2.7,0.4,4.2,0.4c3.3,0,6.1-0.6,8.2-1.9
			c2.2-1.3,3.3-2.9,3.3-4.8c0-0.6-0.1-1.2-0.3-1.7c-0.2-0.5-0.5-1-0.9-1.3c-0.5-0.5-1.1-1-2-1.4c-0.8-0.4-1.9-0.8-3.2-1
			c-1.3-0.3-2.7-0.4-4.3-0.4c-1.7,0-3.2,0.2-4.6,0.5c-1.3,0.3-2.5,0.8-3.6,1.4s-1.8,1.3-2.3,2c-0.5,0.8-0.7,1.6-0.7,2.5
			C102.4,95.7,102.6,96.5,103.1,97.3z"/>
		<path class="st0" d="M131.5,89.3v-0.5c2,0,3.5,0.1,4.6,0.1c0.8,0,1.6,0,2.4,0h2.3c0.3,0,0.5,0,0.7,0c1.5,0,2.8,0.1,3.6,0.3
			c0.9,0.2,1.6,0.5,2.1,0.9s0.7,0.9,0.7,1.5c0,0.5-0.2,1-0.6,1.5c-0.4,0.5-1,0.9-1.8,1.3c-0.8,0.3-1.6,0.6-2.5,0.7
			c-0.6,0.1-1.2,0.2-2,0.2c-0.6,0-1.3,0-2-0.1l-0.3-0.6c0.9,0.1,1.5,0.2,2,0.2c0.7,0,1.4-0.1,2.1-0.3c0.7-0.2,1.2-0.5,1.5-0.9
			c0.4-0.4,0.5-0.9,0.5-1.4s-0.2-0.9-0.5-1.3s-0.9-0.7-1.6-0.9c-0.7-0.2-1.6-0.3-2.6-0.3c-0.9,0-1.9,0.1-2.9,0.3
			c-0.1,0.6-0.1,1.5-0.1,2.8v4.3c0,0.8,0,1.5,0.1,2.3c0,0.5,0.1,0.9,0.2,1c0.1,0.1,0.3,0.2,0.5,0.2c0.3,0.1,0.9,0.1,2.1,0.1v0.5
			c-1.8-0.1-3.1-0.1-3.9-0.1c-0.3,0-1.9,0-4.6,0.1v-0.5c1.1,0,1.8,0,2.1-0.1c0.2-0.1,0.4-0.1,0.5-0.2s0.2-0.4,0.2-0.8
			c0-0.1,0-0.9,0.1-2.4v-4c0-0.8,0-1.5-0.1-2.3c0-0.5-0.1-0.9-0.2-1c-0.1-0.1-0.3-0.2-0.5-0.2C133.4,89.3,132.7,89.3,131.5,89.3z"/>
		<path class="st0" d="M163.7,100.3v0.5c-2.1-0.1-3.4-0.1-4-0.1l-4.5,0.1v-0.5c1.1,0,1.8,0,2.1-0.1c0.2-0.1,0.4-0.1,0.5-0.2
			s0.2-0.4,0.2-0.8c0-0.1,0-0.9,0.1-2.4v-4c0-0.8,0-1.5-0.1-2.3c0-0.5-0.1-0.9-0.2-1c-0.1-0.1-0.3-0.2-0.5-0.2
			c-0.3,0-0.9-0.1-2.1-0.1v-0.5c1.8,0,3.3,0.1,4.3,0.1s2.4,0,4.2-0.1v0.5c-1.1,0-1.8,0-2.1,0.1c-0.2,0-0.4,0.1-0.5,0.2
			s-0.2,0.4-0.2,0.8c0,0.1,0,0.9-0.1,2.4v4c0,0.8,0,1.5,0,2.3c0,0.5,0.1,0.9,0.2,1c0.1,0.1,0.3,0.2,0.5,0.2
			C161.9,100.3,162.6,100.3,163.7,100.3z"/>
		<path class="st0" d="M171.4,100.9v-0.5c1,0,1.7,0,2-0.1c0.1-0.1,0.2-0.1,0.3-0.2s0.2-0.4,0.2-0.9c0.1-0.8,0.1-1.4,0.1-2v-4.4
			c0-0.8,0-1.5-0.1-2.3c0-0.5-0.1-0.9-0.2-1c-0.1-0.1-0.3-0.2-0.5-0.2s-0.9-0.1-2.1-0.1v-0.5h4.1h4.4c2.1,0,3.6,0,4.6,0
			c0.9,0,1.9,0,2.7,0.1c-0.2,0.3-0.3,0.6-0.3,0.8c0,0.1-0.1,0.7-0.3,1.8h-0.9c0-0.6,0-1.1-0.2-1.6c-0.5-0.1-1.1-0.2-1.8-0.3
			c-1.1-0.1-2.2-0.1-3.3-0.1c-0.2,0-0.7,0-1.6,0c-0.8,0-1.4,0-1.7,0c0,0.6-0.1,1.2-0.1,1.8l-0.1,2.9c1.1,0.1,2.2,0.1,3.1,0.1
			c1.2,0,2.1,0,3-0.1c0.3,0,0.5-0.1,0.6-0.1c0.1-0.1,0.2-0.3,0.2-0.7l0.1-0.6h0.9v0.2l-0.1,1.8l0.1,2h-1v-0.6c0-0.4-0.1-0.7-0.2-0.8
			c-0.1-0.1-0.3-0.2-0.6-0.2c-0.6-0.1-1.6-0.1-3.2-0.1c-0.7,0-1.6,0-2.8,0.1c0,0.6-0.1,1.4-0.1,2.5c0,1,0,1.8,0.1,2.4
			c1.4,0,2.9,0.1,4.7,0.1c1.2,0,2.1,0,2.6-0.1c0.5,0,1-0.1,1.5-0.2c0.1-0.2,0.2-0.4,0.3-0.7c0.2-0.5,0.4-0.9,0.4-1.2h1
			c-0.2,1.1-0.4,2.1-0.4,2.8c-0.8,0.1-1.8,0.1-3,0.1l-8.6-0.1C175,100.8,173.8,100.8,171.4,100.9z"/>
		<path class="st0" d="M200.1,98.4l-0.1-2.7v-3.4l0.1-1.3c0-0.7,0-1.2,0.1-1.5c1.2-0.1,2.4-0.2,3.6-0.2c2.3,0,4,0.2,5.3,0.6
			s2.2,1,2.9,1.8c0.6,0.8,0.9,1.7,0.9,2.7c0,0.7-0.2,1.5-0.5,2.2s-0.8,1.3-1.4,1.7c-0.6,0.4-1.2,0.8-1.9,1s-1.4,0.4-2.4,0.5
			c-0.9,0.1-2,0.2-3.2,0.2s-2.3,0-3.3-0.1C200.1,99.3,200.1,98.8,200.1,98.4z M198.8,100.8c0.4,0,1.3,0,2.6,0c1,0,1.8,0,2.4,0
			c1.8,0,3.2-0.1,4.2-0.3c1-0.2,2-0.4,2.9-0.7c0.9-0.3,1.8-0.8,2.6-1.3c0.8-0.6,1.4-1.2,1.9-2s0.7-1.6,0.7-2.4
			c0-1.2-0.5-2.2-1.5-3.1c-1-0.8-2.2-1.4-3.6-1.8c-1.4-0.4-3.3-0.5-5.7-0.5c-0.8,0-1.9,0-3.3,0c-1.4,0-2.6,0-3.4,0
			c-1.1,0-2.3,0-3.7-0.1v0.5c1,0,1.7,0.1,2,0.1c0.1,0,0.2,0.1,0.3,0.2s0.2,0.4,0.2,0.9c0,0.7,0.1,1.4,0.1,2v3.5c0,0.5,0,1.3-0.1,2.5
			c0,0.7-0.1,1.2-0.2,1.6c-0.4,0.2-0.8,0.3-1.4,0.5v0.4C197.1,100.8,198.2,100.8,198.8,100.8z"/>
		<path class="st0" d="M234,90.9l3.6,5.2h-7.3L234,90.9z M226.7,100.8c0.8,0,2,0,3.6,0.1v-0.5c-0.9,0-1.5,0-1.9-0.1
			c-0.2,0-0.4-0.1-0.5-0.2c-0.1,0-0.1-0.1-0.1-0.2c0-0.2,0.1-0.5,0.4-0.9l1.6-2.2h8.4l1.8,2.6c0.1,0.2,0.2,0.4,0.2,0.5
			s0,0.1-0.1,0.2s-0.3,0.1-0.5,0.1s-0.9,0.1-1.9,0.1v0.5l4.6-0.1c0.6,0,1.6,0,3.1,0.1v-0.5c-0.8,0-1.2,0-1.5-0.1
			c-0.2-0.1-0.4-0.2-0.6-0.4c-0.3-0.4-1-1.2-2-2.6l-6.2-8.6h-0.9c-1.3,1.8-2.1,3-2.5,3.5l-3.6,4.8c-1.1,1.4-1.7,2.2-1.9,2.4
			c-0.3,0.4-0.5,0.6-0.7,0.7s-0.3,0.2-0.5,0.2s-0.7,0.1-1.4,0.1v0.5C224.7,100.8,225.8,100.8,226.7,100.8z"/>
		<path class="st0" d="M257.8,98.4l-0.1-2.7v-3.4l0.1-1.3c0-0.7,0.1-1.2,0.1-1.5c1.2-0.1,2.4-0.2,3.6-0.2c2.2,0,4,0.2,5.3,0.6
			s2.2,1,2.9,1.8c0.6,0.8,1,1.7,1,2.7c0,0.7-0.2,1.5-0.5,2.2s-0.8,1.3-1.4,1.7c-0.6,0.4-1.2,0.8-1.9,1c-0.7,0.2-1.4,0.4-2.4,0.5
			c-0.9,0.1-2,0.2-3.2,0.2s-2.3,0-3.3-0.1C257.8,99.3,257.8,98.8,257.8,98.4z M256.4,100.8c0.4,0,1.3,0,2.6,0c1,0,1.8,0,2.4,0
			c1.8,0,3.1-0.1,4.2-0.3c1-0.2,2-0.4,2.9-0.7c0.9-0.3,1.8-0.8,2.6-1.3c0.8-0.6,1.4-1.2,1.9-2s0.7-1.6,0.7-2.4
			c0-1.2-0.5-2.2-1.5-3.1c-1-0.8-2.2-1.4-3.7-1.8c-1.4-0.4-3.3-0.5-5.7-0.5c-0.8,0-1.9,0-3.3,0s-2.6,0-3.4,0c-1.1,0-2.3,0-3.7-0.1
			v0.5c1,0,1.7,0.1,2,0.1c0.1,0,0.2,0.1,0.3,0.2s0.2,0.4,0.2,0.9c0,0.7,0.1,1.4,0.1,2v3.5c0,0.5,0,1.3-0.1,2.5
			c0,0.7-0.1,1.2-0.2,1.6c-0.4,0.2-0.8,0.3-1.4,0.5v0.4C254.8,100.8,255.8,100.8,256.4,100.8z"/>
		<path class="st0" d="M281.8,100.9v-0.5c1,0,1.7,0,2-0.1c0.1-0.1,0.2-0.1,0.3-0.2c0.1-0.1,0.2-0.4,0.2-0.9c0.1-0.8,0.1-1.4,0.1-2
			v-4.4c0-0.8,0-1.5-0.1-2.3c0-0.5-0.1-0.9-0.2-1s-0.3-0.2-0.5-0.2s-0.9-0.1-2.1-0.1v-0.5h4.1h4.4c2.1,0,3.6,0,4.5,0
			c1,0,1.9,0,2.7,0.1c-0.1,0.3-0.3,0.6-0.3,0.8c0,0.1-0.1,0.7-0.3,1.8h-0.9c0-0.6,0-1.1-0.2-1.6c-0.5-0.1-1.1-0.2-1.8-0.3
			c-1.1-0.1-2.2-0.1-3.3-0.1c-0.2,0-0.8,0-1.6,0c-0.8,0-1.4,0-1.7,0c-0.1,0.6-0.1,1.2-0.1,1.8l-0.1,2.9c1.1,0.1,2.2,0.1,3.1,0.1
			c1.1,0,2.1,0,3-0.1c0.3,0,0.5-0.1,0.6-0.1c0.1-0.1,0.2-0.3,0.2-0.7l0.1-0.6h0.9v0.2l-0.1,1.8l0.1,2h-1v-0.6c0-0.4-0.1-0.7-0.2-0.8
			c-0.1-0.1-0.3-0.2-0.6-0.2c-0.6-0.1-1.6-0.1-3.2-0.1c-0.6,0-1.6,0-2.8,0.1c0,0.6-0.1,1.4-0.1,2.5c0,1,0,1.8,0.1,2.4
			c1.4,0,2.9,0.1,4.7,0.1c1.2,0,2.1,0,2.6-0.1c0.5,0,1-0.1,1.4-0.2c0.1-0.2,0.2-0.4,0.4-0.7c0.2-0.5,0.3-0.9,0.4-1.2h1
			c-0.3,1.1-0.4,2.1-0.4,2.8c-0.8,0.1-1.8,0.1-3,0.1l-8.6-0.1C285.5,100.8,284.2,100.8,281.8,100.9z"/>
		<path class="st0" d="M305.6,100.4c0.2-0.6,0.3-1.4,0.3-2.7h1c0.1,0.8,0.1,1.3,0.3,1.5c0.1,0.1,0.4,0.3,0.8,0.5s1,0.3,1.7,0.5
			c0.7,0.1,1.4,0.2,2,0.2c1,0,1.9-0.1,2.7-0.4c0.8-0.3,1.4-0.6,1.8-1s0.6-0.9,0.6-1.4c0-0.4-0.1-0.7-0.3-1c-0.2-0.3-0.5-0.5-0.9-0.7
			s-0.8-0.3-1.4-0.3c-0.4,0-1.1-0.1-2.1-0.2c-1.1-0.1-2-0.2-2.7-0.3c-1-0.2-1.7-0.4-2.2-0.6s-0.9-0.6-1.1-1
			c-0.3-0.4-0.4-0.8-0.4-1.3c0-0.7,0.3-1.3,0.9-1.9s1.5-1.1,2.6-1.4c1.2-0.3,2.4-0.5,3.8-0.5c0.8,0,1.7,0.1,2.7,0.2s1.9,0.3,2.7,0.6
			c-0.1,0.4-0.2,0.7-0.3,1c0,0.3-0.1,0.8-0.1,1.4h-1c0-0.9-0.1-1.3-0.1-1.4c-0.2-0.2-0.6-0.4-1-0.6c-1-0.3-2-0.5-3.1-0.5
			c-1.4,0-2.5,0.2-3.3,0.7s-1.2,1.2-1.2,1.9c0,0.5,0.1,0.8,0.4,1.1c0.3,0.3,0.8,0.5,1.6,0.6c0.5,0.1,1.4,0.2,2.6,0.3
			c1.2,0.1,2.3,0.2,3.2,0.3c0.9,0.2,1.6,0.3,2,0.6c0.4,0.2,0.8,0.5,1,0.9c0.3,0.4,0.4,0.8,0.4,1.2c0,1.1-0.8,2.1-2.4,3
			c-1.6,0.8-3.6,1.2-6.1,1.2C308.9,101.1,307.2,100.9,305.6,100.4z"/>
	</g>
	<g>
		<path class="st0" d="M38.8,92.7L38.8,92.7c-0.4-0.1-7.8-2.3-15.4-2.3S8.5,92.5,8.2,92.6l0,0c0,0.2,0,0.3-0.1,0.4l0.3,0.3
			c0,0,7.4-2.2,15-2.2s15.1,2.2,15.1,2.2l0.4-0.3C38.8,92.9,38.8,92.8,38.8,92.7z"/>
		<g>
			<path class="st0" d="M40.7,101.1l-0.6-0.2c-5.4-2.1-11.1-3.2-16.9-3.2c-9.6,0-16.1,3-16.2,3L6.3,101l0.2-0.7
				c1-4.5,5.8-39.3,5.8-39.7v-0.3h0.2c1-0.2,1.6-0.9,2.4-1.8c0.7-0.8,1.8-1.2,2.4-1.4l0.3-5.4h0.3c0.6-0.1,0.6-0.2,0.9-0.6
				c0.1-0.2,0.3-0.5,0.7-0.8c0.9-0.9,2.6-1,3.1-1h0.5v0.9c0.5,0,1.6,0.2,2.2,0.9c0.7,0.7,2,0.8,2,0.8h0.3l0.5,4.9
				c0.7,0,2.2,0.2,3.2,1.6c0.7,1,1.3,1.1,1.6,1.1c0.2,0,0.2,0,0.3,0l0.4-0.2l0.1,0.5c3.5,24.2,6.9,40.7,6.9,40.9L40.7,101.1
				L40.7,101.1z M23.2,96.9c5.6,0,11.2,1,16.5,3C39,96.7,36.1,81.4,33,60c-0.5,0-1.3-0.1-2.3-1.4c-0.8-1.1-1.9-1.3-2.5-1.3
				c-0.2,0-0.3,0-0.3,0l-0.4,0.1l-0.5-5c-0.5-0.1-1.5-0.2-2.2-0.9c-0.6-0.6-1.7-0.7-2-0.7h-0.5V50c-0.6,0-1.8,0.2-2.4,0.8
				c-0.3,0.3-0.5,0.5-0.6,0.7c-0.3,0.4-0.5,0.7-1.1,0.8L18,57.6l-0.3,0.1c0,0-1.5,0.4-2.2,1.2c-0.8,0.9-1.5,1.7-2.5,2
				c-0.4,3.2-4.5,32.6-5.7,38.8C9.2,99,15.2,96.9,23.2,96.9L23.2,96.9z"/>
		</g>
		<rect x="19.2" y="56" class="st0" width="0.3" height="1.2"/>
		<rect x="20.7" y="59" class="st0" width="0.5" height="1.8"/>
		<rect x="18.2" y="63.9" class="st0" width="0.5" height="1.4"/>
		<rect x="25.2" y="57.9" class="st0" width="0.6" height="1.7"/>
		<rect x="31" y="63.2" class="st0" width="0.5" height="1.4"/>
		<path class="st0" d="M38.9,71.4c-0.1-1.5-1.3-0.3-1.8-0.1c-0.5,0.2-3.3,0.3-3.3,0.3c-1.5,0-2.6,0.6-3.3,0.8
			c-0.4,0.2-0.7,0.3-0.8,0.3c0-0.1-0.1-0.1-0.1-0.2c0.3-0.6,1.4-2,1.7-2.1c0.4-0.1,4.1-0.3,4.8-0.5s0.9-0.8,0.8-1.4
			c-0.1-0.6-0.2-1.5-1-1.1s-2.9,0.8-4,0.9c-1.1,0.1-1.8,0.3-2,0.5c-0.2,0.1-1.3,1.5-1.8,2.1l0,0c-0.7-0.6-2.2-1.4-2.3-3.6
			c0,0,1-0.1,1.4-0.2c0.4-0.2,1.5-0.2,1.9-0.2S30,67,30,66.3c-0.1-0.7-0.4-0.8-1.3-1.2c-0.8-0.4-0.9-0.4-1.1-0.5s-0.5-0.6-0.8-0.7
			c0,0,0.1-0.3,0.5-0.6c0,0-1.8-0.1-1.9-0.3s0-0.6,0-0.6s-3.7,1.3-3.7,4.2c0,1.8-0.2,2.1-0.6,2.7c0,0,0.6,0.1,1.2,0
			c0,0-1.2,0.8-0.2,2c0,0-0.1-0.6,0.3-0.7c0.2,0.3,0.1,1.3,0,1.9c0.3,0,0.4,0,0.6-0.4c0.4,0.7,0,2-0.1,2.2c0,0,0.4,0.2,0.7-0.1
			c0.3-0.3,0.4-0.5,0.4-0.2c0,0.4-0.5,1.9-1,1.4c-0.3-0.4-0.5-0.6-0.8-2.2C21.8,71.7,21,69,19.6,68c-1.5-1-1.2-1.4-6.8-1.6
			s-7.1-3.3-7.1-3.3s-0.1,6.4,5.6,5.5c0,0-1.6,0.8-3,0.3c-1.4-0.6-1.8-0.8-2.1-1.2c0,0,1.8,5.3,8,2.7c0,0-1.1,1.9-4.9,2
			c0,0,3.9,2.5,7,0.2c0,0-1.3,2.3-5,2.7c0,0,4.1,1.7,6.5-1c0,0-0.9,2-4.4,2.9c0,0,1.6,0.3,2.9,0.1c0.9-0.2,1.7-0.5,2.3-0.9
			c0.3-0.2,0.5-0.5,0.8-0.7c0.8-1,2.1-0.5,2.3,0.3c0.2,0.8,0.7,2.1-0.4,2.9s-1.6,1.8-1.6,1.8s-0.7-0.3-1.1-1.2
			c-0.4-0.9-1.4-2-2.6-1.7c-1.7,0.5-2.1,3.8-4.3,3.5C10,81.1,8.9,80,8.3,79c-0.3,0.8,0.5,4.4,3.3,5.4c2.8,0.9,3.4-0.3,4.3-1.4
			c0.8-1.1,2.3-2.7,3.2-0.7c0,0-0.2,1.8,0.5,2.8c0.3,0.4,1.1,1.1,1.2,2c0.2,0.9,0.1,2-1.1,3c0,0-0.2,0.2,0,0.5s0.6,1.2,0.8,1.5
			c0.2,0.3,0.2,1.1,0.1,1.6c-0.2,0.5-0.3,1.2,0.4,1.9c0,0-0.2,1.1-0.3,1.8c0,0,2.3,0.1,3.5-0.1c0,0-2-2.4-2.2-3.9s-0.1-2.7-0.1-2.7
			s1-0.5,1.6-2.3c0,0,0,1.7-0.5,2.6c-0.6,0.9,0.1,1.1,0.4,1.4s1.4,1.7,1,3.4c0,0,0.9,0.6,0.6,1.6c0,0,1.5-0.1,3.4,0.1
			c0,0-1.3-1.9-2-3.1s-1.7-2.9-1.2-4.1c0.4-0.9,1.8-2.3,1.5-3.5s-0.8-2-0.8-2.8c0-0.9,0.1-1.6,0.4-1.9s1.5-0.8,2.1-1.4
			c1.5-1.3,2.5-2.6,2.1-5.4c0.5-0.2,1.8-1.4,2.6-1.6s4,0.1,5,0C39,73.4,39,72.9,38.9,71.4z"/>
		<rect x="22.4" y="49.4" class="st0" width="0.7" height="9.6"/>
		<polygon class="st0" points="28.6,60.9 27.9,60.8 27.4,56.7 28.1,56.7 		"/>
		<polygon class="st0" points="17.8,61.3 17.1,61.3 17.3,57.6 18,57.5 		"/>
	</g>
</g>
<g>
	<path class="st0" d="M23.4,8.6c0.2,0.4-0.1,0.7-0.5,0.7h-2.3c-0.3,0-0.6-0.1-0.8-0.4c-1.5-2.5-3.8-3.8-6.5-3.8
		c-4.1,0-7.2,3-7.2,8.5c0,5.6,3.2,9,7.7,9c3.2,0,5-1.6,6.1-3.9c0.2-0.3,0.4-0.5,0.8-0.5H23c0.5,0,0.7,0.3,0.5,0.7
		c-1.2,3.4-4.5,7-10.1,7C6.7,26,2.2,21.1,2.2,14c0-7.2,4.9-12.2,11.2-12.2C18,1.8,21.8,4.3,23.4,8.6z"/>
	<path class="st0" d="M49,13.5C49,20.7,44.1,26,37.6,26c-6.3,0-11.1-5-11.1-12.1S31.5,1.8,38,1.8C44.3,1.8,49,6.5,49,13.5z
		 M30.3,13.7c0,5.6,3.2,9,7.6,9c4.2,0,7.4-3.2,7.4-8.8S42,5.1,37.7,5.1C33.5,5.1,30.3,8.1,30.3,13.7z"/>
	<path class="st0" d="M73.4,25.5c-0.4,0-0.6-0.2-0.6-0.6L72.4,6.8L66.6,25c-0.1,0.3-0.3,0.5-0.7,0.5h-2.5c-0.3,0-0.6-0.2-0.7-0.5
		l-6-18.7l-0.3,18.6c0,0.4-0.2,0.6-0.6,0.6h-2.6c-0.4,0-0.6-0.2-0.6-0.6l0.7-22c0-0.4,0.3-0.6,0.7-0.6h4.2c0.3,0,0.6,0.2,0.7,0.5
		l5.7,17.7l5.7-17.7c0.1-0.3,0.3-0.5,0.7-0.5h4.1c0.4,0,0.6,0.2,0.7,0.6l0.7,22c0,0.4-0.2,0.6-0.6,0.6H73.4z"/>
	<path class="st0" d="M84.9,11.7h9.7c0.4,0,0.6,0.2,0.6,0.6v2.1c0,0.4-0.2,0.6-0.6,0.6h-9.7v7h11c0.4,0,0.6,0.2,0.6,0.6v2.1
		c0,0.4-0.2,0.6-0.6,0.6H81.6c-0.4,0-0.6-0.2-0.6-0.6l0.1-22c0-0.4,0.2-0.6,0.6-0.6h14.2c0.4,0,0.6,0.2,0.6,0.6v2.1
		c0,0.4-0.2,0.6-0.6,0.6H84.8L84.9,11.7z"/>
	<path class="st0" d="M104.1,15.9l0.1,9c0,0.4-0.2,0.6-0.6,0.6h-2.8c-0.4,0-0.6-0.2-0.6-0.6l0.1-22c0-0.4,0.2-0.6,0.6-0.6h9.2
		c4.8,0,7.8,2.8,7.8,6.7c0,3.2-2.2,6-5.9,6.7l6.5,9.1c0.3,0.4,0.1,0.8-0.4,0.8h-3.3c-0.3,0-0.6-0.1-0.8-0.4l-6.1-9.2L104.1,15.9
		L104.1,15.9z M109.6,12.6c3.1,0,4.5-1.2,4.5-3.3c0-2.3-1.7-3.6-4.5-3.6H104l0.1,7h5.5V12.6z"/>
	<path class="st0" d="M142,8.6c0.2,0.4-0.1,0.7-0.5,0.7h-2.3c-0.3,0-0.6-0.1-0.8-0.4c-1.5-2.5-3.8-3.8-6.5-3.8c-4.1,0-7.2,3-7.2,8.5
		c0,5.6,3.2,9,7.7,9c3.2,0,5-1.6,6.1-3.9c0.2-0.3,0.4-0.5,0.8-0.5h2.3c0.5,0,0.7,0.3,0.5,0.7c-1.2,3.4-4.5,7-10.1,7
		c-6.7,0-11.2-5-11.2-12.1c0-7.2,4.9-12.2,11.2-12.2C136.7,1.8,140.5,4.3,142,8.6z"/>
	<path class="st0" d="M151.9,24.9c0,0.4-0.2,0.6-0.6,0.6h-2.7c-0.4,0-0.6-0.2-0.6-0.6l0.1-22c0-0.4,0.2-0.6,0.6-0.6h2.5
		c0.4,0,0.6,0.2,0.6,0.6L151.9,24.9z"/>
	<path class="st0" d="M162.7,18.8l-2.2,6.2c-0.1,0.3-0.3,0.5-0.7,0.5h-2.6c-0.5,0-0.7-0.3-0.5-0.7l8.1-22c0.1-0.3,0.3-0.5,0.7-0.5h3
		c0.4,0,0.6,0.2,0.7,0.5l8.1,22c0.2,0.4-0.1,0.7-0.5,0.7h-2.6c-0.4,0-0.6-0.2-0.7-0.5l-2.2-6.2H162.7z M167.1,6.9h-0.2l-3,8.5h6.2
		L167.1,6.9z"/>
	<path class="st0" d="M195.5,22.1c0.4,0,0.6,0.2,0.6,0.6v2.1c0,0.4-0.2,0.6-0.6,0.6h-14.7c-0.4,0-0.6-0.2-0.6-0.6l0.1-22
		c0-0.4,0.2-0.6,0.6-0.6h2.5c0.4,0,0.6,0.2,0.6,0.6l0.1,19.2L195.5,22.1L195.5,22.1z"/>
	<path class="st0" d="M205,24.9c0,0.4-0.2,0.6-0.6,0.6h-2.7c-0.4,0-0.6-0.2-0.6-0.6l0.1-22c0-0.4,0.2-0.6,0.6-0.6h2.5
		c0.4,0,0.6,0.2,0.6,0.6L205,24.9z"/>
	<path class="st0" d="M227.6,22.1c0.4,0,0.6,0.2,0.6,0.6v2.2c0,0.4-0.2,0.6-0.6,0.6h-16.3c-0.4,0-0.6-0.2-0.6-0.6v-1.8
		c0-0.3,0.1-0.6,0.4-1L223,6V5.7h-11c-0.4,0-0.6-0.2-0.6-0.6V2.9c0-0.4,0.2-0.6,0.6-0.6h15.3c0.4,0,0.6,0.2,0.6,0.6v1.7
		c0,0.3,0,0.6-0.4,1l-12,16.2V22L227.6,22.1L227.6,22.1z"/>
	<path class="st0" d="M237.2,18.8L235,25c-0.1,0.3-0.3,0.5-0.7,0.5h-2.6c-0.5,0-0.7-0.3-0.5-0.7l8.1-22c0.1-0.3,0.3-0.5,0.7-0.5h3
		c0.4,0,0.6,0.2,0.7,0.5l8.1,22c0.2,0.4-0.1,0.7-0.5,0.7h-2.6c-0.4,0-0.6-0.2-0.7-0.5l-2.2-6.2H237.2z M241.6,6.9h-0.2l-3,8.5h6.2
		L241.6,6.9z"/>
</g>
</svg>
