<?xml version="1.0" encoding="utf-8"?>
<!-- Generator: Adobe Illustrator 23.0.3, SVG Export Plug-In . SVG Version: 6.00 Build 0)  -->
<svg version="1.1" id="Layer_1" xmlns="http://www.w3.org/2000/svg" xmlns:xlink="http://www.w3.org/1999/xlink" x="0px" y="0px"
	 viewBox="0 0 498.6 326.3" style="enable-background:new 0 0 498.6 326.3;" xml:space="preserve">
<style type="text/css">
	.st0{fill:#96B13C;}
	.st1{fill:#C2BEB3;}
</style>
<title>Artboard 2</title>
<g id="_Layer_3">
	<path class="st0" d="M40.7,260.4c0.4,0,0.7,0.3,0.7,0.7c0,0,0,0.1,0,0.1c-0.2,10.7-7,17.6-16.9,17.6c-10,0-16.9-8-16.9-19.4
		c0-11.3,7.3-19.3,17.3-19.3c6.4-0.2,12.3,3.6,14.7,9.5c0.2,0.5-0.1,0.7-0.5,0.7H37c-0.3,0-0.6-0.2-0.8-0.5
		c-2.3-4.2-6.7-6.8-11.5-6.6c-7.8,0-13.6,6.1-13.6,15.9c0,9.9,5.7,16.4,13.9,16.4c6.4,0,11.9-4.1,12.8-11.9l-10-0.1
		c-0.3,0-0.6-0.2-0.6-0.5c0-0.1,0-0.1,0-0.2V261c0-0.3,0.2-0.6,0.5-0.6c0.1,0,0.1,0,0.2,0L40.7,260.4z"/>
	<path class="st0" d="M101.1,262c0,10.9-6.4,16.8-15.1,16.8s-14.9-5.9-14.9-16.8l0.1-20.7c0-0.3,0.2-0.6,0.5-0.6c0,0,0.1,0,0.2,0
		h2.2c0.3,0,0.6,0.2,0.6,0.5c0,0,0,0.1,0,0.2l0.1,20.3c0.1,9.4,4.6,13.9,11.4,13.9s11.3-4.6,11.4-13.9v-20.3c0-0.3,0.2-0.6,0.5-0.6
		c0,0,0.1,0,0.2,0h2.3c0.3,0,0.6,0.2,0.6,0.5c0,0.1,0,0.1,0,0.2L101.1,262z"/>
	<path class="st0" d="M136.8,266.1l-4.2,11.6c-0.1,0.3-0.4,0.5-0.7,0.5h-2.4c-0.5,0-0.7-0.3-0.5-0.7l13.5-36.3
		c0.1-0.3,0.4-0.5,0.7-0.5h2.9c0.3,0,0.6,0.2,0.7,0.5l13.5,36.3c0.2,0.5-0.1,0.7-0.5,0.7h-2.4c-0.3,0-0.6-0.2-0.7-0.5l-4.2-11.6
		H136.8z M144.7,245.1h-0.2l-6.5,17.8h13.3L144.7,245.1z"/>
	<path class="st0" d="M209.2,243.3c0,0.3-0.2,0.6-0.5,0.6c-0.1,0-0.1,0-0.2,0H197l0.1,33.7c0,0.3-0.2,0.6-0.5,0.6c0,0-0.1,0-0.2,0
		h-2.5c-0.3,0-0.6-0.2-0.6-0.5c0-0.1,0-0.1,0-0.2l0.2-33.7h-11.8c-0.3,0-0.6-0.2-0.6-0.5c0,0,0-0.1,0-0.2v-2c0-0.3,0.2-0.6,0.5-0.6
		c0.1,0,0.1,0,0.2,0h26.9c0.3,0,0.6,0.2,0.6,0.5c0,0,0,0.1,0,0.2L209.2,243.3z"/>
	<path class="st0" d="M259.8,275c0.3,0,0.6,0.2,0.6,0.4c0,0.1,0,0.1,0,0.2v2c0,0.3-0.2,0.6-0.5,0.6c0,0-0.1,0-0.2,0h-22.6
		c-0.3,0-0.6-0.2-0.6-0.5c0,0,0-0.1,0-0.2l0.1-36.3c0-0.3,0.2-0.6,0.5-0.6c0,0,0.1,0,0.2,0h22.3c0.3,0,0.6,0.2,0.6,0.5
		c0,0,0,0.1,0,0.2v2c0,0.3-0.2,0.6-0.5,0.6c-0.1,0-0.1,0-0.2,0h-19.4l0.1,13h16.4c0.3,0,0.6,0.2,0.6,0.5c0,0,0,0.1,0,0.2v2
		c0,0.3-0.2,0.6-0.5,0.6c-0.1,0-0.1,0-0.2,0h-16.4l0.1,14.9L259.8,275z"/>
	<path class="st0" d="M323.3,278.2c-0.3,0-0.6-0.2-0.6-0.5c0,0,0-0.1,0-0.2l-0.5-33.2l-12.2,33.3c-0.1,0.3-0.4,0.5-0.7,0.5h-2.5
		c-0.3,0-0.6-0.2-0.7-0.5L293.6,244l-0.5,33.6c0,0.3-0.2,0.6-0.5,0.6c0,0-0.1,0-0.2,0h-2.4c-0.3,0-0.6-0.2-0.6-0.5
		c0-0.1,0-0.1,0-0.2l1-36.3c0-0.3,0.2-0.6,0.5-0.6c0,0,0.1,0,0.2,0h4c0.3,0,0.6,0.2,0.7,0.5L308,274l12.1-32.8
		c0.1-0.3,0.4-0.5,0.7-0.5h3.8c0.3,0,0.6,0.2,0.6,0.5c0,0.1,0,0.1,0,0.2l1,36.3c0,0.3-0.2,0.6-0.5,0.6c0,0-0.1,0-0.2,0L323.3,278.2z
		"/>
	<path class="st0" d="M361.9,266.1l-4.2,11.6c-0.1,0.3-0.4,0.5-0.7,0.5h-2.4c-0.5,0-0.7-0.3-0.5-0.7l13.5-36.3
		c0.1-0.3,0.4-0.5,0.7-0.5h2.9c0.3,0,0.6,0.2,0.7,0.5l13.5,36.3c0.1,0.5-0.1,0.7-0.5,0.7h-2.4c-0.3,0-0.6-0.2-0.7-0.5l-4.2-11.6
		H361.9z M369.8,245.1h-0.2l-6.5,17.8h13.3L369.8,245.1z"/>
	<path class="st0" d="M436.5,275c0.3,0,0.6,0.2,0.6,0.5c0,0,0,0.1,0,0.2v2c0,0.3-0.2,0.6-0.5,0.6c0,0-0.1,0-0.2,0h-22.7
		c-0.3,0-0.6-0.2-0.6-0.5c0,0,0-0.1,0-0.2l0.1-36.3c0-0.3,0.2-0.6,0.5-0.6c0.1,0,0.1,0,0.2,0h2.3c0.3,0,0.6,0.2,0.6,0.5
		c0,0,0,0.1,0,0.2l0.1,33.7L436.5,275z"/>
	<path class="st0" d="M470.3,266.1l-4.2,11.6c-0.1,0.3-0.4,0.5-0.7,0.5H463c-0.5,0-0.7-0.3-0.5-0.7l13.5-36.3
		c0.1-0.3,0.4-0.5,0.7-0.5h2.9c0.3,0,0.6,0.2,0.7,0.5l13.5,36.3c0.1,0.5,0,0.7-0.5,0.7h-2.4c-0.3,0-0.6-0.2-0.7-0.5l-4.2-11.6H470.3
		z M478.3,245.1H478l-6.5,17.8h13.3L478.3,245.1z"/>
	<path class="st1" d="M20,302.4c0,0.2-0.1,0.3-0.2,0.3c0,0-0.1,0-0.1,0H11l-0.6,6.8h0.2c1.2-0.8,2.6-1.2,4-1.1
		c3.4-0.1,6.3,2.6,6.4,6c0,0.2,0,0.4,0,0.6c0,3.7-2.4,6.4-6.6,6.4c-3.8,0-6.3-2.2-6.8-4.8c-0.1-0.2,0.1-0.4,0.3-0.4H9
		c0.2,0,0.3,0.1,0.4,0.3c0.5,1.9,2.2,3.1,4.8,3.1c3,0,4.9-1.8,4.9-4.8s-1.7-4.9-4.8-4.9c-1.4,0-2.8,0.4-3.9,1.3
		c-0.1,0.1-0.3,0.1-0.4,0.1l-1.2,0c-0.2,0-0.3-0.1-0.3-0.4l0.9-9.8c0-0.2,0.2-0.3,0.3-0.3c0,0,0,0,0,0h10c0.2,0,0.3,0.1,0.3,0.2
		c0,0,0,0.1,0,0.1L20,302.4z"/>
	<path class="st1" d="M48.9,305.9c0.1,1.9-1.1,3.7-2.9,4.4v0.1c2.3,0.7,3.9,2.9,3.8,5.3c0,3.5-2.7,5.8-6.8,5.8s-6.8-2.3-6.8-5.8
		c-0.1-2.4,1.4-4.5,3.7-5.3v-0.1c-1.7-0.7-2.9-2.4-2.8-4.3c0-3.1,2.3-5.4,5.9-5.4S48.9,302.9,48.9,305.9z M38,315.7
		c0,2.5,1.9,4.3,5,4.3s5-1.7,5-4.3s-2-4.4-5-4.4S38,313.1,38,315.7L38,315.7z M38.9,306c0,2.2,1.6,3.8,4.1,3.8
		c2.1,0.2,3.9-1.3,4.1-3.4c0-0.1,0-0.3,0-0.4c0-2.1-1.7-3.9-3.8-3.9c-0.1,0-0.2,0-0.4,0c-2.1-0.2-3.9,1.4-4.1,3.5
		C38.9,305.8,38.9,305.9,38.9,306L38.9,306z"/>
	<path class="st1" d="M77.8,301c0.2,0,0.3,0.1,0.3,0.2c0,0,0,0.1,0,0.1v0.8c0,0.2-0.1,0.5-0.2,0.7c-3.1,5.8-5.7,11.9-7.9,18.1
		c0,0.2-0.2,0.3-0.4,0.3h-1.5c-0.3,0-0.4-0.1-0.3-0.4c2.3-6.2,5-12.2,8.2-17.9v-0.1H65.5c-0.2,0-0.3-0.1-0.3-0.3c0,0,0-0.1,0-0.1v-1
		c0-0.2,0.1-0.3,0.3-0.3L77.8,301z"/>
	<path class="st1" d="M107.7,315.8c0,0.2-0.1,0.3-0.2,0.3c0,0-0.1,0-0.1,0h-2.9v4.8c0,0.2-0.1,0.3-0.3,0.3c0,0,0,0-0.1,0h-1.3
		c-0.2,0-0.3-0.1-0.3-0.3v-4.8h-9.2c-0.2,0-0.3-0.1-0.3-0.2c0,0,0-0.1,0-0.1v-0.9c0-0.3,0-0.6,0.2-0.8l9-12.8
		c0.1-0.2,0.3-0.3,0.6-0.3h1.2c0.2,0,0.3,0.1,0.3,0.2c0,0,0,0.1,0,0.1v13.1h2.9c0.2,0,0.3,0.1,0.3,0.3L107.7,315.8z M102.6,303.8
		h-0.1L95,314.4v0.1h7.6L102.6,303.8z"/>
	<path class="st1" d="M133.7,313.8c0,0.2-0.1,0.3-0.3,0.3c0,0,0,0-0.1,0h-8.5c-0.2,0-0.3-0.1-0.3-0.3c0,0,0,0,0-0.1v-1
		c0-0.2,0.1-0.3,0.3-0.3h8.5c0.2,0,0.3,0.1,0.3,0.3V313.8z"/>
	<path class="st1" d="M163.8,305.9c0.1,1.9-1.1,3.7-2.9,4.4v0.1c2.3,0.7,3.9,2.9,3.8,5.3c0,3.5-2.7,5.8-6.8,5.8s-6.8-2.3-6.8-5.8
		c-0.1-2.4,1.4-4.5,3.7-5.3v-0.1c-1.7-0.7-2.8-2.4-2.7-4.3c0-3.1,2.3-5.4,5.9-5.4S163.8,302.9,163.8,305.9z M152.9,315.7
		c0,2.5,1.9,4.3,5,4.3s5-1.7,5-4.3s-2-4.4-5-4.4S152.9,313.1,152.9,315.7L152.9,315.7z M153.8,306c0.2,2.3,2.1,4,4.4,3.8
		c2.1-0.1,3.7-1.8,3.8-3.8c-0.2-2.3-2.1-4-4.4-3.8C155.5,302.3,153.9,303.9,153.8,306z"/>
	<path class="st1" d="M194.4,310.9c0,6.4-3,10.6-7.3,10.6s-7-4-7-10.3s2.9-10.4,7.3-10.4S194.4,304.6,194.4,310.9z M181.9,310.9
		c0,5.5,2.1,8.8,5.3,8.8s5.3-3.3,5.3-8.6c0-5.5-2.1-8.6-5.4-8.6S181.9,305.6,181.9,310.9z"/>
	<g>
		<ellipse transform="matrix(0.9732 -0.2298 0.2298 0.9732 -12.5482 19.8546)" class="st0" cx="79" cy="63.8" rx="7.4" ry="7.4"/>
		<path class="st0" d="M21.5,138.8c0,0,0-99.8,0-111.7c0-12-13-11.5-13-11.5v122.3c0,23.4,2.9,53.5,27.2,68.5
			c9.5,5.9,19.4-2.1,19.4-4.4c-5.5-1.7-9.3-3.9-11.5-5.3C28.1,187.1,21.5,169.8,21.5,138.8z"/>
		<path class="st0" d="M97.3,165.6L97.3,165.6c-8-8.3-12-21.2-12-41.2c0,0,0-9,0-20c0-11-13-10.7-13-10.7v29.7
			c0,17.2,2.2,39.1,17.3,52.3l0,0c2.3,2.1,4.8,4,7.6,5.7c9.5,5.9,19.4-2.1,19.4-4.4c-5.5-1.7-9.3-3.9-11.5-5.3
			C102.2,170,99.6,168,97.3,165.6z"/>
		<path class="st0" d="M165.6,169c-0.1,0-0.1,0-0.2,0c-0.1,0-0.1,0-0.2,0H165.6z"/>
		<path class="st0" d="M196.2,102.7c-7,21.1-14.8,33-21.3,43.3c-2.8,4.4-5.2,7.1-7.3,8.6c-0.7,0.5-1.4,0.7-2.1,0.7
			c-0.7,0-1.5-0.3-2.1-0.7c-2.1-1.5-4.6-4.2-7.3-8.6c-6.5-10.3-14.3-22.1-21.3-43.3c-3.3-9.4-11.1-10.5-15.9-9
			c10.6,32.5,24.1,54.6,33.8,67.6c1.2,1.6,5.5,6.7,11.3,7.6l0,0c0.1,0,0.2,0,0.2,0c0.3,0,0.5,0.1,0.8,0.1c0.2,0,0.3,0,0.5,0
			c0.2,0,0.3,0,0.5,0c0.3,0,0.5,0,0.8-0.1c0.1,0,0.2,0,0.2,0l0,0c5.8-0.9,10.1-6,11.3-7.6c9.8-13,23.2-35.1,33.8-67.6
			C207.3,92.2,199.5,93.3,196.2,102.7z"/>
		<path class="st0" d="M231.2,45.5l-7.5,19.2v2.8h2.8l1.9-4.8c0-0.1,0.1-0.2,0.2-0.2h9.1c0.1,0,0.2,0.1,0.2,0.2l1.9,4.8h2.8v-2.8
			l-7.5-19.2H231.2z M236.4,58.9c0,0.1-0.1,0.1-0.2,0.1h-6c-0.1,0-0.2,0-0.2-0.1c0-0.1-0.1-0.2,0-0.2l3-7.9c0-0.1,0.1-0.2,0.2-0.2
			c0.1,0,0.2,0.1,0.2,0.2l3,7.9C236.5,58.8,236.5,58.8,236.4,58.9z"/>
		<path class="st0" d="M277.9,45.5l-6.4,16.7c0,0.1-0.1,0.2-0.2,0.2c-0.1,0-0.2-0.1-0.2-0.2l-6.4-16.7h-2.8v3.2l7.5,18.8h4.1
			l7.5-18.8v-3.2H277.9z"/>
		<path class="st0" d="M242.4,49.2h5.9c0.1,0,0.3,0.1,0.3,0.3v18.1h3.7V49.4c0-0.1,0.1-0.3,0.3-0.3h6v-3.7h-16.1V49.2z"/>
	</g>
</g>
</svg>
