<?xml version="1.0" encoding="utf-8"?>
<!-- Generator: Adobe Illustrator 23.0.3, SVG Export Plug-In . SVG Version: 6.00 Build 0)  -->
<svg version="1.1" id="Layer_1" xmlns="http://www.w3.org/2000/svg" xmlns:xlink="http://www.w3.org/1999/xlink" x="0px" y="0px"
	 viewBox="0 0 261.1 169.3" style="enable-background:new 0 0 261.1 169.3;" xml:space="preserve">
<style type="text/css">
	.st0{fill:#96B13C;}
</style>
<title>Artboard 1</title>
<path class="st0" d="M18,158.3c0.2,0,0.4,0.2,0.4,0.4c0,0,0,0,0,0.1c-0.1,5.7-3.8,9.4-9,9.4s-9-4.3-9-10.3s3.9-10.3,9.2-10.3
	c3.4-0.1,6.5,1.9,7.8,5c0.1,0.3,0,0.4-0.3,0.4H16c-0.2,0-0.3-0.1-0.4-0.3c-1.2-2.2-3.6-3.6-6.1-3.5c-4.2,0-7.2,3.2-7.2,8.5
	s3,8.7,7.4,8.7c3.4,0,6.3-2.2,6.8-6.3h-5.3c-0.2,0-0.3-0.1-0.3-0.2c0,0,0-0.1,0-0.1v-1c0-0.2,0.1-0.3,0.2-0.3c0,0,0.1,0,0.1,0
	L18,158.3z"/>
<path class="st0" d="M50.1,159.2c0,5.8-3.4,8.9-8,8.9s-7.9-3.1-7.9-8.9l0-11c0-0.2,0.1-0.3,0.2-0.3c0,0,0.1,0,0.1,0h1.2
	c0.2,0,0.3,0.1,0.3,0.2c0,0,0,0.1,0,0.1V159c0,5,2.4,7.4,6.1,7.4s6-2.4,6-7.4v-10.8c0-0.2,0.1-0.3,0.2-0.3c0,0,0.1,0,0.1,0h1.2
	c0.2,0,0.3,0.1,0.3,0.2c0,0,0,0.1,0,0.1L50.1,159.2z"/>
<path class="st0" d="M69.1,161.4l-2.2,6.1c-0.1,0.2-0.2,0.3-0.4,0.3h-1.3c-0.3,0-0.4-0.1-0.3-0.4l7.2-19.3c0-0.2,0.2-0.3,0.4-0.3H74
	c0.2,0,0.3,0.1,0.4,0.3l7.2,19.3c0.1,0.3,0,0.4-0.3,0.4H80c-0.2,0-0.3-0.1-0.4-0.3l-2.2-6.1H69.1z M73.3,150.2h-0.1l-3.5,9.5h7.1
	L73.3,150.2z"/>
<path class="st0" d="M107.6,149.2c0,0.2-0.1,0.3-0.2,0.3c0,0-0.1,0-0.1,0H101l0.1,17.9c0,0.2-0.1,0.3-0.2,0.3c0,0-0.1,0-0.1,0h-1.3
	c-0.2,0-0.3-0.1-0.3-0.2c0,0,0-0.1,0-0.1l0.1-17.9H93c-0.2,0-0.3-0.1-0.3-0.2c0,0,0-0.1,0-0.1v-1.1c0-0.2,0.1-0.3,0.2-0.3
	c0,0,0.1,0,0.1,0h14.3c0.2,0,0.3,0.1,0.3,0.2c0,0,0,0.1,0,0.1L107.6,149.2z"/>
<path class="st0" d="M134.4,166.1c0.2,0,0.3,0.1,0.3,0.2c0,0,0,0.1,0,0.1v1.1c0,0.2-0.1,0.3-0.2,0.3c0,0-0.1,0-0.1,0h-12
	c-0.2,0-0.3-0.1-0.3-0.2c0,0,0-0.1,0-0.1l0.1-19.3c0-0.2,0.1-0.3,0.2-0.3c0,0,0.1,0,0.1,0h11.9c0.2,0,0.3,0.1,0.3,0.2
	c0,0,0,0.1,0,0.1v1.1c0,0.2-0.1,0.3-0.2,0.3c0,0-0.1,0-0.1,0h-10.3v6.9h8.7c0.2,0,0.3,0.1,0.3,0.3c0,0,0,0,0,0.1v1
	c0,0.2-0.1,0.3-0.3,0.3c0,0,0,0-0.1,0h-8.7v7.9L134.4,166.1z"/>
<path class="st0" d="M168.2,167.8c-0.2,0-0.3-0.1-0.3-0.2c0,0,0-0.1,0-0.1l-0.3-17.6l-6.5,17.7c0,0.2-0.2,0.3-0.4,0.3h-1.3
	c-0.2,0-0.3-0.1-0.4-0.3l-6.6-17.9l-0.2,17.9c0,0.2-0.1,0.3-0.3,0.3h-1.3c-0.2,0-0.3-0.1-0.3-0.2c0,0,0-0.1,0-0.1l0.5-19.3
	c0-0.2,0.1-0.3,0.2-0.3c0,0,0.1,0,0.1,0h2.1c0.2,0,0.3,0.1,0.4,0.3l6.5,17.4l6.4-17.4c0-0.2,0.2-0.3,0.4-0.3h2
	c0.2,0,0.3,0.1,0.3,0.2c0,0,0,0.1,0,0.1l0.5,19.3c0,0.2-0.1,0.3-0.2,0.3c0,0-0.1,0-0.1,0H168.2z"/>
<path class="st0" d="M188.8,161.4l-2.2,6.1c-0.1,0.2-0.2,0.3-0.4,0.3h-1.3c-0.3,0-0.4-0.1-0.3-0.4l7.2-19.3c0-0.2,0.2-0.3,0.4-0.3
	h1.6c0.2,0,0.3,0.1,0.4,0.3l7.2,19.3c0.1,0.3,0,0.4-0.3,0.4h-1.3c-0.2,0-0.3-0.1-0.4-0.3l-2.2-6.1H188.8z M193,150.2h-0.1l-3.5,9.5
	h7.1L193,150.2z"/>
<path class="st0" d="M228.4,166.1c0.2,0,0.3,0.1,0.3,0.2c0,0,0,0.1,0,0.1v1.1c0,0.2-0.1,0.3-0.2,0.3c0,0-0.1,0-0.1,0h-12.1
	c-0.2,0-0.3-0.1-0.3-0.2c0,0,0-0.1,0-0.1l0.1-19.3c0-0.2,0.1-0.3,0.2-0.3c0,0,0.1,0,0.1,0h1.2c0.2,0,0.3,0.1,0.3,0.2
	c0,0,0,0.1,0,0.1l0.1,17.9H228.4z"/>
<path class="st0" d="M246.4,161.4l-2.2,6.1c-0.1,0.2-0.2,0.3-0.4,0.3h-1.3c-0.3,0-0.4-0.1-0.3-0.4l7.2-19.3c0-0.2,0.2-0.3,0.4-0.3
	h1.6c0.2,0,0.3,0.1,0.4,0.3l7.2,19.3c0.1,0.3,0,0.4-0.3,0.4h-1.3c-0.2,0-0.3-0.1-0.4-0.3l-2.2-6.1H246.4z M250.6,150.2h-0.1
	l-3.5,9.5h7.1L250.6,150.2z"/>
<g>
	<ellipse transform="matrix(0.9732 -0.2298 0.2298 0.9732 -5.847 11.4574)" class="st0" cx="46.3" cy="30.8" rx="4.6" ry="4.6"/>
	<path class="st0" d="M10.3,77.7c0,0,0-62.4,0-69.9c0-7.5-8.1-7.2-8.1-7.2v76.4c0,14.6,1.8,33.5,17,42.8c6,3.7,12.1-1.3,12.2-2.7
		c-3.4-1-5.8-2.5-7.2-3.3C14.5,107.9,10.3,97.1,10.3,77.7z"/>
	<path class="st0" d="M57.7,94.5L57.7,94.5c-5-5.2-7.5-13.3-7.5-25.7c0,0,0-5.6,0-12.5c0-6.9-8.1-6.7-8.1-6.7v18.6
		c0,10.8,1.4,24.4,10.8,32.7l0,0c1.4,1.3,3,2.5,4.8,3.6c6,3.7,12.1-1.3,12.2-2.7c-3.4-1-5.8-2.5-7.2-3.3
		C60.8,97.2,59.1,96,57.7,94.5z"/>
	<path class="st0" d="M100.4,96.6C100.4,96.6,100.4,96.6,100.4,96.6c-0.1,0-0.2,0-0.2,0H100.4z"/>
	<path class="st0" d="M119.6,55.1c-4.4,13.2-9.3,20.6-13.3,27.1c-1.7,2.7-3.2,4.4-4.6,5.4c-0.4,0.3-0.9,0.5-1.3,0.5
		c-0.5,0-0.9-0.2-1.3-0.5c-1.3-1-2.9-2.6-4.6-5.4c-4-6.4-8.9-13.8-13.3-27.1c-2.1-5.9-6.9-6.6-10-5.6c6.6,20.3,15.1,34.1,21.2,42.3
		c0.8,1,3.4,4.2,7.1,4.7l0,0c0.1,0,0.1,0,0.2,0c0.2,0,0.3,0,0.5,0c0.1,0,0.2,0,0.3,0c0.1,0,0.2,0,0.3,0c0.2,0,0.3,0,0.5,0
		c0.1,0,0.1,0,0.2,0l0,0c3.7-0.5,6.3-3.7,7.1-4.7c6.1-8.1,14.5-21.9,21.2-42.3C126.5,48.6,121.6,49.3,119.6,55.1z"/>
	<path class="st0" d="M141.5,19.4l-4.7,12v1.8h1.8l1.2-3c0-0.1,0.1-0.1,0.2-0.1h5.7c0.1,0,0.1,0,0.2,0.1l1.2,3h1.8v-1.8l-4.7-12
		H141.5z M144.7,27.8c0,0-0.1,0.1-0.1,0.1h-3.7c-0.1,0-0.1,0-0.1-0.1c0,0,0-0.1,0-0.2l1.9-4.9c0-0.1,0.1-0.1,0.2-0.1
		c0.1,0,0.1,0,0.2,0.1l1.9,4.9C144.8,27.7,144.8,27.7,144.7,27.8z"/>
	<path class="st0" d="M170.7,19.4l-4,10.5c0,0.1-0.1,0.1-0.2,0.1c-0.1,0-0.1,0-0.2-0.1l-4-10.5h-1.8v2l4.7,11.8h2.6l4.7-11.8v-2
		H170.7z"/>
	<path class="st0" d="M148.5,21.7h3.7c0.1,0,0.2,0.1,0.2,0.2v11.3h2.3V21.9c0-0.1,0.1-0.2,0.2-0.2h3.8v-2.3h-10V21.7z"/>
</g>
</svg>
