<?xml version="1.0" encoding="utf-8"?>
<!-- Generator: Adobe Illustrator 24.1.1, SVG Export Plug-In . SVG Version: 6.00 Build 0)  -->
<svg version="1.1" id="Capa_1" xmlns="http://www.w3.org/2000/svg" xmlns:xlink="http://www.w3.org/1999/xlink" x="0px" y="0px"
	 viewBox="0 0 882 670" style="enable-background:new 0 0 882 670;" xml:space="preserve">
<style type="text/css">
	.st0{clip-path:url(#SVGID_2_);}
	.st1{fill:#FFFFFF;}
	.st2{fill:none;stroke:#CCCCCC;stroke-width:10.4592;stroke-miterlimit:10;}
</style>
<g>
	<g>
		<g>
			<defs>
				<polygon id="SVGID_1_" points="24.7,18.9 24.7,541.6 377.8,541.6 377.8,654 444.6,654 444.6,546.5 861.7,546.5 861.7,13.7 				
					"/>
			</defs>
			<clipPath id="SVGID_2_">
				<use xlink:href="#SVGID_1_"  style="overflow:visible;"/>
			</clipPath>
			<g id="nNaoxE_5_" class="st0">
				
					<image style="overflow:visible;" width="1221" height="771" id="nNaoxE_6_" xlink:href="2D136272.png"  transform="matrix(1.4834 0 0 1.4834 -60.952 -60.9105)">
				</image>
			</g>
		</g>
		<rect x="215.2" y="485" class="st1" width="101.9" height="45.9"/>
	</g>
	<polygon class="st2" points="25.1,31.3 861.7,28.9 861.7,539.6 541.9,539.6 541.9,505.2 534.5,505.2 534.5,539.5 438.1,539.5 
		438.1,649.3 381.4,649.3 381.4,546.9 386.9,546.9 386.9,539.5 24.7,541.6 	"/>
	<g>
		<line class="st2" x1="443.2" y1="28.9" x2="443.2" y2="100.5"/>
		<polyline class="st2" points="347.9,344 308.6,344 308.6,448.7 347.9,448.7 		"/>
		<line class="st2" x1="397.1" y1="448.7" x2="483.5" y2="448.7"/>
		<line class="st2" x1="443.2" y1="447.8" x2="443.2" y2="179.2"/>
		<line class="st2" x1="443.2" y1="309.2" x2="483.5" y2="309.2"/>
		<polyline class="st2" points="537.8,351.4 537.8,309.2 696.5,309.2 		"/>
		<polyline class="st2" points="537.8,398.8 537.8,448.7 696.5,448.7 		"/>
		<polyline class="st2" points="749.4,351.4 749.4,309.2 861.7,309.2 		"/>
		<polyline class="st2" points="861.7,447.8 749.4,447.8 749.4,398.8 		"/>
		<line class="st2" x1="654.8" y1="447.8" x2="654.8" y2="69.3"/>
	</g>
</g>
</svg>
